0
SECTION
2
HEADER
9
$INSUNITS
70
4
9
$ACADVER
1
AC1014
9
$HANDSEED
5
FFFF
0
ENDSEC
0
SECTION
2
TABLES
0
TABLE
2
VPORT
5
8
100
AcDbSymbolTable
0
ENDTAB
0
TABLE
2
LTYPE
5
5
100
AcDbSymbolTable
0
LTYPE
5
14
100
AcDbSymbolTableRecord
100
AcDbLinetypeTableRecord
2
BYBLOCK
70
0
0
LTYPE
5
15
100
AcDbSymbolTableRecord
100
AcDbLinetypeTableRecord
2
BYLAYER
70
0
0
ENDTAB
0
TABLE
2
LAYER
5
2
100
AcDbSymbolTable
70
2
0
LAYER
5
50
100
AcDbSymbolTableRecord
100
AcDbLayerTableRecord
2
0
70
0
6
CONTINUOUS
0
ENDTAB
0
TABLE
2
STYLE
5
3
100
AcDbSymbolTable
70
1
0
STYLE
5
11
100
AcDbSymbolTableRecord
100
AcDbTextStyleTableRecord
2
STANDARD
70
0
0
ENDTAB
0
TABLE
2
VIEW
5
6
100
AcDbSymbolTable
70
0
0
ENDTAB
0
TABLE
2
UCS
5
7
100
AcDbSymbolTable
70
0
0
ENDTAB
0
TABLE
2
APPID
5
9
100
AcDbSymbolTable
70
2
0
APPID
5
12
100
AcDbSymbolTableRecord
100
AcDbRegAppTableRecord
2
ACAD
70
0
0
ENDTAB
0
TABLE
2
DIMSTYLE
5
A
100
AcDbSymbolTable
70
1
0
ENDTAB
0
TABLE
2
BLOCK_RECORD
5
1
100
AcDbSymbolTable
70
1
0
BLOCK_RECORD
5
1F
100
AcDbSymbolTableRecord
100
AcDbBlockTableRecord
2
*MODEL_SPACE
0
BLOCK_RECORD
5
1B
100
AcDbSymbolTableRecord
100
AcDbBlockTableRecord
2
*PAPER_SPACE
0
ENDTAB
0
ENDSEC
0
SECTION
2
BLOCKS
0
BLOCK
5
20
100
AcDbEntity
100
AcDbBlockBegin
2
*MODEL_SPACE
0
ENDBLK
5
21
100
AcDbEntity
100
AcDbBlockEnd
0
BLOCK
5
1C
100
AcDbEntity
100
AcDbBlockBegin
2
*PAPER_SPACE
0
ENDBLK
5
1D
100
AcDbEntity
100
AcDbBlockEnd
0
ENDSEC
0
SECTION
2
ENTITIES
0
ELLIPSE
5
100
100
AcDbEntity
8
0
100
AcDbEllipse
10
103.67694279297241
20
148.24929490025414
30
3.7370995187302469e-10
11
3.1999999996064665
21
4.953812176922323e-05
31
0.0
40
0.99999999960670882
41
2.1316282072803006e-14
42
1.570796326794925
0
LINE
5
101
100
AcDbEntity
8
0
100
AcDbLine
10
103.6768932548506
20
151.44929489860209
30
3.8177461192390183e-10
11
-103.68205805832432
21
151.44608484454548
31
3.8184566619747784e-10
0
ELLIPSE
5
102
100
AcDbEntity
8
0
100
AcDbEllipse
10
-103.68200852020257
20
148.24608484618747
30
3.737454790098127e-10
11
-3.1999999996165562
21
-4.9538121769337573e-05
31
0.0
40
0.99999999960670882
41
4.7123889803846897
42
6.2831853071795862
0
LINE
5
103
100
AcDbEntity
8
0
100
AcDbLine
10
-106.88200851981912
20
148.2460353080657
30
3.737454790098127e-10
11
-106.88178734758701
21
133.95903531540733
31
3.3775648944356362e-10
0
ELLIPSE
5
104
100
AcDbEntity
8
0
100
AcDbEllipse
10
-126.68178734521447
20
133.95872879827914
30
3.3775648944356362e-10
11
19.799999997627442
21
0.0003065171284480382
31
0.0
40
0.99999999960670893
41
4.7123889803847012
42
6.2831853071795747
0
LINE
5
105
100
AcDbEntity
8
0
100
AcDbLine
10
-126.68148082808588
20
114.15872880843884
30
2.8784086225641659e-10
11
-148.00248082554302
21
114.15839874521309
31
2.8780533511962858e-10
0
ELLIPSE
5
106
100
AcDbEntity
8
0
100
AcDbEllipse
10
-148.00243128742127
20
110.95839874686388
30
2.7970514793196344e-10
11
-3.1999999996077455
21
-4.9538121769246026e-05
31
0.0
40
0.99999999960670882
41
4.7123889803846755
42
6.2831853071795933
0
LINE
5
107
100
AcDbEntity
8
0
100
AcDbLine
10
-151.20243128702901
20
110.95834920874209
30
2.7970514793196344e-10
11
-151.19900346577919
21
-110.46764732327264
31
-2.7846169814438326e-10
0
ELLIPSE
5
108
100
AcDbEntity
8
0
100
AcDbEllipse
10
-147.99900346616261
20
-110.46759778515087
30
-2.7846169814438326e-10
11
-3.1999999996165562
21
-4.9538121769379423e-05
31
0.0
40
0.99999999960670882
41
0
42
1.5707963267949108
0
LINE
5
109
100
AcDbEntity
8
0
100
AcDbLine
10
-147.99895392804081
20
-113.6675977835089
30
-2.865618853320484e-10
11
-126.6779539305939
21
-113.66726772029195
31
-2.8659741246883641e-10
0
ELLIPSE
5
110
100
AcDbEntity
8
0
100
AcDbEllipse
10
-126.6776474134651
20
-133.46726771013226
30
-3.3647751251919544e-10
11
19.799999997627442
21
0.00030651712844803516
31
0.0
40
0.99999999960670893
41
8.8817841970012523e-16
42
1.5707963267949214
0
LINE
5
111
100
AcDbEntity
8
0
100
AcDbLine
10
-106.87764741583764
20
-133.46696119300378
30
-3.3647751251919544e-10
11
-106.87742624359447
21
-147.75396118567096
31
-3.7246650208544452e-10
0
ELLIPSE
5
112
100
AcDbEntity
8
0
100
AcDbEllipse
10
-103.67742624398799
20
-147.75391164754819
30
-3.7250202922223252e-10
11
-3.1999999996064665
21
-4.953812176922323e-05
31
0.0
40
0.99999999960670882
41
3.2684965844964609e-13
42
1.5707963267949179
0
LINE
5
113
100
AcDbEntity
8
0
100
AcDbLine
10
-103.67737670586619
20
-150.95391164589611
30
-3.8056668927310966e-10
11
103.68157460730873
21
-150.95070159183854
31
-3.8056668927310966e-10
0
ELLIPSE
5
114
100
AcDbEntity
8
0
100
AcDbEllipse
10
103.68152506918699
20
-147.7507015934805
30
-3.7250202922223252e-10
11
3.1999999996165562
21
4.9538121769421287e-05
31
0.0
40
0.99999999960670882
41
4.7123889803846897
42
6.2831853071795791
0
LINE
5
115
100
AcDbEntity
8
0
100
AcDbLine
10
106.88152506880357
20
-147.75065205535873
30
-3.7250202922223252e-10
11
106.88130389657044
21
-133.46365206270136
31
-3.3647751251919544e-10
0
ELLIPSE
5
116
100
AcDbEntity
8
0
100
AcDbEllipse
10
126.68130389419788
20
-133.46334554557316
30
-3.3647751251919544e-10
11
-19.799999997627442
21
-0.00030651712844798886
31
0.0
40
0.99999999960670893
41
4.7123889803847003
42
6.2831853071795738
0
LINE
5
117
100
AcDbEntity
8
0
100
AcDbLine
10
126.68099737706932
20
-113.66334555573287
30
-2.8659741246883641e-10
11
148.00199737452647
21
-113.66301549250808
31
-2.865263581952604e-10
0
ELLIPSE
5
118
100
AcDbEntity
8
0
100
AcDbEllipse
10
148.0019478364047
20
-110.46301549415888
30
-2.7846169814438326e-10
11
3.1999999996077455
21
4.9538121769240049e-05
31
0.0
40
0.99999999960670882
41
4.7123889803847039
42
6.2831853071795862
0
LINE
5
119
100
AcDbEntity
8
0
100
AcDbLine
10
151.20194783601244
20
-110.46296595603712
30
-2.7846169814438326e-10
11
151.19852001476363
21
110.96303057597768
31
2.7970514793196344e-10
0
ELLIPSE
5
120
100
AcDbEntity
8
0
100
AcDbEllipse
10
147.99852001514708
20
110.96298103785591
30
2.7974067506875144e-10
11
3.1999999996165562
21
4.9538121769379423e-05
31
0.0
40
0.99999999960670882
41
7.1054273576010019e-15
42
1.5707963267949108
0
LINE
5
121
100
AcDbEntity
8
0
100
AcDbLine
10
147.99847047702531
20
114.16298103621394
30
2.8780533511962858e-10
11
126.67747047957711
21
114.16265097299798
31
2.8784086225641659e-10
0
ELLIPSE
5
122
100
AcDbEntity
8
0
100
AcDbEllipse
10
126.6771639624485
20
133.96265096283824
30
3.3775648944356362e-10
11
-19.799999997627442
21
-0.00030651712844803516
31
0.0
40
0.99999999960670893
41
6.2831853071795853
42
7.8539816339744979
0
LINE
5
123
100
AcDbEntity
8
0
100
AcDbLine
10
106.87716396482108
20
133.96234444570979
30
3.3775648944356362e-10
11
106.87694279257889
21
148.24934443837597
31
3.7370995187302469e-10
0
ELLIPSE
5
124
100
AcDbEntity
8
0
100
AcDbEllipse
10
146.75033546060362
20
64.463600587590278
30
1.6342482922482304e-10
11
-1.6999999997970181
21
-2.6267827197588497e-05
31
0.0
40
0.99999999960671448
41
0
42
6.2831853071795862
0
ELLIPSE
5
125
100
AcDbEntity
8
0
100
AcDbEllipse
10
147.44390330068831
20
29.39746089235479
30
7.4145134476566454e-11
11
1.6999999997970592
21
2.6267827257130848e-05
31
0.0
40
0.99999999960671471
41
0
42
6.2831853071795862
0
ELLIPSE
5
126
100
AcDbEntity
8
0
100
AcDbEllipse
10
147.4448057362454
20
-28.897455066242088
30
-7.2795103278622264e-11
11
1.6999999997970592
21
2.6267827257130848e-05
31
0.0
40
0.99999999960671471
41
0
42
6.2831853071795862
0
ELLIPSE
5
127
100
AcDbEntity
8
0
100
AcDbEllipse
10
146.75232770928113
20
-64.459062655501114
30
-1.6157741811184678e-10
11
-1.6999999997977806
21
-2.6218527341822667e-05
31
0.0
40
0.99999999960670893
41
0
42
6.2831853071795862
0
ELLIPSE
5
128
100
AcDbEntity
8
0
100
AcDbEllipse
10
62.240689849643573
20
-145.93139425378536
30
-3.6791902857657988e-10
11
1.6999999997985804
21
2.6169227044316016e-05
31
0.0
40
0.99999999960670938
41
0
42
6.2831853071795862
0
ELLIPSE
5
129
100
AcDbEntity
8
0
100
AcDbEllipse
10
-62.335410893702942
20
-145.9333119362939
30
-3.6791902857657988e-10
11
-1.6999999997985804
21
-2.6169227037120366e-05
31
0.0
40
0.99999999960670938
41
0
42
6.2831853071795862
0
ELLIPSE
5
130
100
AcDbEntity
8
0
100
AcDbEllipse
10
-146.75033546060362
20
-64.463600587590278
30
-1.6161294524863479e-10
11
1.6999999997970181
21
2.62678271973803e-05
31
0.0
40
0.99999999960671448
41
0
42
6.2831853071795862
0
ELLIPSE
5
131
100
AcDbEntity
8
0
100
AcDbEllipse
10
-147.44390330068833
20
-29.397460892354754
30
-7.4074080202990444e-11
11
-1.6999999997970592
21
-2.6267827256922657e-05
31
0.0
40
0.99999999960671471
41
0
42
6.2831853071795862
0
ELLIPSE
5
132
100
AcDbEntity
8
0
100
AcDbEllipse
10
-147.4448057362454
20
28.897455066242117
30
7.2866157552198274e-11
11
-1.6999999997970592
21
-2.6267827256922657e-05
31
0.0
40
0.99999999960671471
41
0
42
6.2831853071795862
0
ELLIPSE
5
133
100
AcDbEntity
8
0
100
AcDbEllipse
10
-146.75232770928116
20
64.459062655501128
30
1.6338930208803504e-10
11
1.6999999997977806
21
2.6218527341614483e-05
31
0.0
40
0.99999999960670893
41
0
42
6.2831853071795862
0
ELLIPSE
5
134
100
AcDbEntity
8
0
100
AcDbEllipse
10
-62.340005423847451
20
145.94354037263219
30
3.6799008285015589e-10
11
-1.6999999997978199
21
-2.6218527299130438e-05
31
0.0
40
0.99999999960670916
41
0
42
6.2831853071795862
0
ELLIPSE
5
135
100
AcDbEntity
8
0
100
AcDbEllipse
10
62.236095319443308
20
145.94546166786631
30
3.6795455571336788e-10
11
1.6999999997978199
21
2.6218527291934795e-05
31
0.0
40
0.99999999960670916
41
0
42
6.2831853071795862
0
ENDSEC
0
SECTION
2
OBJECTS
0
DICTIONARY
5
C
100
AcDbDictionary
3
ACAD_GROUP
350
D
3
ACAD_MLINESTYLE
350
17
0
DICTIONARY
5
D
100
AcDbDictionary
0
DICTIONARY
5
1A
330
C
100
AcDbDictionary
0
DICTIONARY
5
17
100
AcDbDictionary
0
ENDSEC
0
EOF
