0
SECTION
2
HEADER
9
$INSUNITS
70
4
9
$ACADVER
1
AC1014
9
$HANDSEED
5
FFFF
0
ENDSEC
0
SECTION
2
TABLES
0
TABLE
2
VPORT
5
8
100
AcDbSymbolTable
0
ENDTAB
0
TABLE
2
LTYPE
5
5
100
AcDbSymbolTable
0
LTYPE
5
14
100
AcDbSymbolTableRecord
100
AcDbLinetypeTableRecord
2
BYBLOCK
70
0
0
LTYPE
5
15
100
AcDbSymbolTableRecord
100
AcDbLinetypeTableRecord
2
BYLAYER
70
0
0
ENDTAB
0
TABLE
2
LAYER
5
2
100
AcDbSymbolTable
70
2
0
LAYER
5
50
100
AcDbSymbolTableRecord
100
AcDbLayerTableRecord
2
0
70
0
6
CONTINUOUS
0
ENDTAB
0
TABLE
2
STYLE
5
3
100
AcDbSymbolTable
70
1
0
STYLE
5
11
100
AcDbSymbolTableRecord
100
AcDbTextStyleTableRecord
2
STANDARD
70
0
0
ENDTAB
0
TABLE
2
VIEW
5
6
100
AcDbSymbolTable
70
0
0
ENDTAB
0
TABLE
2
UCS
5
7
100
AcDbSymbolTable
70
0
0
ENDTAB
0
TABLE
2
APPID
5
9
100
AcDbSymbolTable
70
2
0
APPID
5
12
100
AcDbSymbolTableRecord
100
AcDbRegAppTableRecord
2
ACAD
70
0
0
ENDTAB
0
TABLE
2
DIMSTYLE
5
A
100
AcDbSymbolTable
70
1
0
ENDTAB
0
TABLE
2
BLOCK_RECORD
5
1
100
AcDbSymbolTable
70
1
0
BLOCK_RECORD
5
1F
100
AcDbSymbolTableRecord
100
AcDbBlockTableRecord
2
*MODEL_SPACE
0
BLOCK_RECORD
5
1B
100
AcDbSymbolTableRecord
100
AcDbBlockTableRecord
2
*PAPER_SPACE
0
ENDTAB
0
ENDSEC
0
SECTION
2
BLOCKS
0
BLOCK
5
20
100
AcDbEntity
100
AcDbBlockBegin
2
*MODEL_SPACE
0
ENDBLK
5
21
100
AcDbEntity
100
AcDbBlockEnd
0
BLOCK
5
1C
100
AcDbEntity
100
AcDbBlockBegin
2
*PAPER_SPACE
0
ENDBLK
5
1D
100
AcDbEntity
100
AcDbBlockEnd
0
ENDSEC
0
SECTION
2
ENTITIES
0
LWPOLYLINE
5
100
100
AcDbEntity
8
0
100
AcDbPolyline
90
49
70
1
43
0.0
10
-106.16044826021236
20
161.60374369652672
10
-1.0000000000558629
20
161.58688031972389
10
104.16044826021164
20
161.60374369652726
42
-0.20273867826538428
10
111.04826967224865
20
158.69247468834607
42
0.20269694116468517
10
115.99778483818264
20
156.60000000000011
10
116.49999999999964
20
156.59999999999911
42
-0.41421356237309503
10
123.09999999999867
20
150.00000000000011
10
123.09999999999881
20
149.00000000000011
42
-0.28968986330278607
10
119.32857142857063
20
143.03684784082617
42
0.20208231530668824
10
115.49999999999969
20
138.7508893593301
10
115.5000000000004
20
25.749110640670981
42
0.20208231530669515
10
119.32857142857065
20
21.463152159174072
42
-0.28968986330279112
10
123.0999999999989
20
15.500000000000211
10
123.09999999999948
20
14.500000000000213
42
-0.28968986330279023
10
119.32857142857095
20
8.5368478408258319
42
0.2020823153066923
10
115.49999999999991
20
4.2508893593297081
10
115.50000000000065
20
-108.75088935932871
42
0.20208231530670459
10
119.32857142857102
20
-113.03684784082608
42
-0.28968986330278446
10
123.09999999999911
20
-118.99999999999989
10
123.10000000000014
20
-119.99999999999987
42
-0.41421356237309503
10
116.50000000000013
20
-126.59999999999991
10
116.26637250078615
20
-126.59999999999953
42
0.02429527364848643
10
115.50000000000013
20
-126.63726045261291
10
115.50000000000028
20
-126.92820750377736
42
0.11538668399948954
10
112.43564417263335
20
-128.81435843611609
42
-0.1979008694639727
10
105.67389531912315
20
-131.59975995623091
10
-107.67389531912286
20
-131.59975995623091
42
-0.19790086946397306
10
-114.43564417263281
20
-128.81435843611621
42
0.11538668399948934
10
-117.49999999999987
20
-126.92820750377729
10
-117.49999999999986
20
-126.63726045261321
42
0.024295273648487287
10
-118.26637250078589
20
-126.59999999999928
10
-118.49999999999987
20
-126.59999999999928
42
-0.41421356237309503
10
-125.0999999999989
20
-120.0000000000003
10
-125.09999999999991
20
-119.00000000000031
42
-0.28968986330278534
10
-121.32857142857125
20
-113.03684784082557
42
0.20208231530670423
10
-117.49999999999991
20
-108.75088935932929
10
-117.50000000000064
20
4.2508893593291237
42
0.2020823153066926
10
-121.3285714285709
20
8.5368478408259474
42
-0.28968986330278951
10
-125.09999999999911
20
14.49999999999979
10
-125.09999999999971
20
15.499999999999792
42
-0.28968986330279051
10
-121.32857142857117
20
21.463152159174189
42
0.2020823153066951
10
-117.50000000000013
20
25.749110640670398
10
-117.50000000000087
20
138.75088935932953
42
0.2020823153066891
10
-121.32857142857122
20
143.03684784082591
42
-0.28968986330278484
10
-125.09999999999934
20
148.99999999999972
10
-125.10000000000034
20
149.99999999999969
42
-0.41421356237309503
10
-118.50000000000036
20
156.59999999999971
10
-117.99778483818335
20
156.59999999999937
42
0.20269694116468528
10
-113.04826967224923
20
158.69247468834556
42
-0.20273867826538428
0
LWPOLYLINE
5
101
100
AcDbEntity
8
0
100
AcDbPolyline
90
3
70
1
43
0.0
10
-117.50000000000034
20
150.81085857503072
10
-117.50000000000034
20
150.8466185312617
42
3.6027732461080006
10
-116.40007611890753
20
148.98212002184772
42
0.27298417107309281
0
LWPOLYLINE
5
102
100
AcDbEntity
8
0
100
AcDbPolyline
90
4
70
1
43
0.0
10
-117.50000000000013
20
15.969693845669703
10
-117.50000000000013
20
16.346618531262102
42
1.6787441193288906
10
-117.50000000000011
20
12.653381468737603
10
-117.50000000000011
20
13.030306154329912
42
0.40824829046386191
0
LWPOLYLINE
5
103
100
AcDbEntity
8
0
100
AcDbPolyline
90
4
70
1
43
0.0
10
115.50000000000004
20
16.346618531262209
42
-1.6787441193289059
10
115.5
20
12.65338146873821
10
115.4999999999999
20
13.030306154330297
42
-0.40824829046385824
10
115.49999999999989
20
15.969693845670088
0
LWPOLYLINE
5
104
100
AcDbEntity
8
0
100
AcDbPolyline
90
3
70
1
43
0.0
10
115.49999999999969
20
150.84661853126204
42
-3.6027732461080064
10
114.4000761189069
20
148.98212002184812
42
-0.27298417107309186
10
115.4999999999997
20
150.81085857503103
0
CIRCLE
5
105
100
AcDbEntity
8
0
100
AcDbCircle
10
-1.000000000000079
20
132.25001439859892
30
-1.9539925233402755e-13
40
4.1500000000000101
210
9.1560497986860267e-33
220
-1.9721522630525295e-31
230
1
0
CIRCLE
5
106
100
AcDbEntity
8
0
100
AcDbCircle
10
-118.49999999999989
20
-120.00000000000028
30
2.1316282072803006e-13
40
2.0999999999999899
210
5.5282531697884456e-30
220
0
230
1
0
CIRCLE
5
107
100
AcDbEntity
8
0
100
AcDbCircle
10
1.0000000000005911
20
113.03595510221993
30
1.5987211554602257e-13
40
8.0500000000000007
210
-9.1560497986856763e-33
220
1.9721522630525295e-31
230
-1
0
CIRCLE
5
108
100
AcDbEntity
8
0
100
AcDbCircle
10
-116.50000000000011
20
-119.99999999999989
30
-2.1316282072803006e-13
40
2.0999999999999899
210
-9.156049798685326e-33
220
0
230
-1
0
ENDSEC
0
SECTION
2
OBJECTS
0
DICTIONARY
5
C
100
AcDbDictionary
3
ACAD_GROUP
350
D
3
ACAD_MLINESTYLE
350
17
0
DICTIONARY
5
D
100
AcDbDictionary
0
DICTIONARY
5
1A
330
C
100
AcDbDictionary
0
DICTIONARY
5
17
100
AcDbDictionary
0
ENDSEC
0
EOF
