0
SECTION
2
HEADER
9
$INSUNITS
70
4
9
$ACADVER
1
AC1014
9
$HANDSEED
5
FFFF
0
ENDSEC
0
SECTION
2
TABLES
0
TABLE
2
VPORT
5
8
100
AcDbSymbolTable
0
ENDTAB
0
TABLE
2
LTYPE
5
5
100
AcDbSymbolTable
0
LTYPE
5
14
100
AcDbSymbolTableRecord
100
AcDbLinetypeTableRecord
2
BYBLOCK
70
0
0
LTYPE
5
15
100
AcDbSymbolTableRecord
100
AcDbLinetypeTableRecord
2
BYLAYER
70
0
0
ENDTAB
0
TABLE
2
LAYER
5
2
100
AcDbSymbolTable
70
2
0
LAYER
5
50
100
AcDbSymbolTableRecord
100
AcDbLayerTableRecord
2
0
70
0
6
CONTINUOUS
0
ENDTAB
0
TABLE
2
STYLE
5
3
100
AcDbSymbolTable
70
1
0
STYLE
5
11
100
AcDbSymbolTableRecord
100
AcDbTextStyleTableRecord
2
STANDARD
70
0
0
ENDTAB
0
TABLE
2
VIEW
5
6
100
AcDbSymbolTable
70
0
0
ENDTAB
0
TABLE
2
UCS
5
7
100
AcDbSymbolTable
70
0
0
ENDTAB
0
TABLE
2
APPID
5
9
100
AcDbSymbolTable
70
2
0
APPID
5
12
100
AcDbSymbolTableRecord
100
AcDbRegAppTableRecord
2
ACAD
70
0
0
ENDTAB
0
TABLE
2
DIMSTYLE
5
A
100
AcDbSymbolTable
70
1
0
ENDTAB
0
TABLE
2
BLOCK_RECORD
5
1
100
AcDbSymbolTable
70
1
0
BLOCK_RECORD
5
1F
100
AcDbSymbolTableRecord
100
AcDbBlockTableRecord
2
*MODEL_SPACE
0
BLOCK_RECORD
5
1B
100
AcDbSymbolTableRecord
100
AcDbBlockTableRecord
2
*PAPER_SPACE
0
ENDTAB
0
ENDSEC
0
SECTION
2
BLOCKS
0
BLOCK
5
20
100
AcDbEntity
100
AcDbBlockBegin
2
*MODEL_SPACE
0
ENDBLK
5
21
100
AcDbEntity
100
AcDbBlockEnd
0
BLOCK
5
1C
100
AcDbEntity
100
AcDbBlockBegin
2
*PAPER_SPACE
0
ENDBLK
5
1D
100
AcDbEntity
100
AcDbBlockEnd
0
ENDSEC
0
SECTION
2
ENTITIES
0
LWPOLYLINE
5
100
100
AcDbEntity
8
0
100
AcDbPolyline
90
4
70
1
43
0.0
10
40.182161120162981
20
-25.549838879841911
42
-0.99999999999999989
10
40.182161120162981
20
-28.949838879841909
10
30.182161120162981
20
-28.949838879841909
42
-0.99999999999999989
10
30.182161120162981
20
-25.549838879841911
0
LWPOLYLINE
5
101
100
AcDbEntity
8
0
100
AcDbPolyline
90
4
70
1
43
0.0
10
40.182161120162981
20
59.450161120158086
42
-0.99999999999999989
10
40.182161120162981
20
56.050161120158094
10
30.182161120162981
20
56.050161120158094
42
-0.99999999999999989
10
30.182161120162981
20
59.450161120158086
0
LWPOLYLINE
5
102
100
AcDbEntity
8
0
100
AcDbPolyline
90
4
70
1
43
0.0
10
-39.817838879837026
20
-28.949838879841909
10
-29.817838879837026
20
-28.949838879841909
42
0.99999999999999989
10
-29.817838879837026
20
-25.549838879841911
10
-39.817838879837026
20
-25.549838879841911
42
0.99999999999999989
0
LWPOLYLINE
5
103
100
AcDbEntity
8
0
100
AcDbPolyline
90
4
70
1
43
0.0
10
-29.817838879837026
20
59.450161120158086
42
-0.99999999999999989
10
-29.817838879837026
20
56.050161120158094
10
-39.817838879837026
20
56.050161120158094
42
-0.99999999999999989
10
-39.817838879837026
20
59.450161120158086
0
LWPOLYLINE
5
104
100
AcDbEntity
8
0
100
AcDbPolyline
90
32
70
1
43
0.0
10
-93.436698586202198
20
82.999999999998707
10
-93.436698586202198
20
107.49999999999901
42
-0.41421356237309681
10
-90.436698586202183
20
110.49999999999901
10
91.436698586202297
20
110.49999999999901
42
-0.41421356237309503
10
94.436698586202311
20
107.49999999999901
10
94.436698586202326
20
82.999999999998707
42
0.41421356237309503
10
97.436698586202297
20
79.999999999998707
10
107.5
20
79.999999999998721
42
-0.41421356237309503
10
110.5
20
76.999999999998721
10
110.49999999999999
20
-77.000000000001421
42
-0.41421356237309503
10
107.5
20
-80.000000000001407
10
97.436698586202297
20
-80.000000000001307
42
0.41421356237310542
10
94.436698586202311
20
-83.000000000001407
10
94.436698586202311
20
-107.50000000000099
42
-0.41421356237309503
10
91.436698586202297
20
-110.50000000000099
10
11.75
20
-110.5000000000009
42
-0.41421356237309503
10
10.500000000000099
20
-109.25000000000099
10
10.50000000000006
20
-101.25000000000099
42
0.41421356237309503
10
9.2500000000000693
20
-100.00000000000099
10
-8.2499999999999591
20
-100.00000000000101
42
0.41421356237309503
10
-9.4999999999999503
20
-101.25000000000099
10
-9.4999999999999023
20
-109.25000000000099
42
-0.41421356237309553
10
-10.749999999999904
20
-110.50000000000099
10
-90.436698586202198
20
-110.50000000000099
42
-0.41421356237309503
10
-93.436698586202198
20
-107.50000000000099
10
-93.43669858620224
20
-83.000000000001307
42
0.41421356237309503
10
-96.436698586202212
20
-80.000000000001293
10
-106.5
20
-80.000000000001421
42
-0.41421356237309503
10
-109.50000000000001
20
-77.000000000001421
10
-109.5
20
76.999999999998721
42
-0.41421356237309503
10
-106.5
20
79.999999999998707
10
-96.436698586202212
20
79.999999999998735
42
0.41421356237309503
0
CIRCLE
5
105
100
AcDbEntity
8
0
100
AcDbCircle
10
0
20
0
30
0
40
7.5
210
0
220
0
230
1
0
ENDSEC
0
SECTION
2
OBJECTS
0
DICTIONARY
5
C
100
AcDbDictionary
3
ACAD_GROUP
350
D
3
ACAD_MLINESTYLE
350
17
0
DICTIONARY
5
D
100
AcDbDictionary
0
DICTIONARY
5
1A
330
C
100
AcDbDictionary
0
DICTIONARY
5
17
100
AcDbDictionary
0
ENDSEC
0
EOF
