0
SECTION
2
HEADER
9
$INSUNITS
70
4
9
$ACADVER
1
AC1014
9
$HANDSEED
5
FFFF
0
ENDSEC
0
SECTION
2
TABLES
0
TABLE
2
VPORT
5
8
100
AcDbSymbolTable
0
ENDTAB
0
TABLE
2
LTYPE
5
5
100
AcDbSymbolTable
0
LTYPE
5
14
100
AcDbSymbolTableRecord
100
AcDbLinetypeTableRecord
2
BYBLOCK
70
0
0
LTYPE
5
15
100
AcDbSymbolTableRecord
100
AcDbLinetypeTableRecord
2
BYLAYER
70
0
0
ENDTAB
0
TABLE
2
LAYER
5
2
100
AcDbSymbolTable
70
2
0
LAYER
5
50
100
AcDbSymbolTableRecord
100
AcDbLayerTableRecord
2
0
70
0
6
CONTINUOUS
0
ENDTAB
0
TABLE
2
STYLE
5
3
100
AcDbSymbolTable
70
1
0
STYLE
5
11
100
AcDbSymbolTableRecord
100
AcDbTextStyleTableRecord
2
STANDARD
70
0
0
ENDTAB
0
TABLE
2
VIEW
5
6
100
AcDbSymbolTable
70
0
0
ENDTAB
0
TABLE
2
UCS
5
7
100
AcDbSymbolTable
70
0
0
ENDTAB
0
TABLE
2
APPID
5
9
100
AcDbSymbolTable
70
2
0
APPID
5
12
100
AcDbSymbolTableRecord
100
AcDbRegAppTableRecord
2
ACAD
70
0
0
ENDTAB
0
TABLE
2
DIMSTYLE
5
A
100
AcDbSymbolTable
70
1
0
ENDTAB
0
TABLE
2
BLOCK_RECORD
5
1
100
AcDbSymbolTable
70
1
0
BLOCK_RECORD
5
1F
100
AcDbSymbolTableRecord
100
AcDbBlockTableRecord
2
*MODEL_SPACE
0
BLOCK_RECORD
5
1B
100
AcDbSymbolTableRecord
100
AcDbBlockTableRecord
2
*PAPER_SPACE
0
ENDTAB
0
ENDSEC
0
SECTION
2
BLOCKS
0
BLOCK
5
20
100
AcDbEntity
100
AcDbBlockBegin
2
*MODEL_SPACE
0
ENDBLK
5
21
100
AcDbEntity
100
AcDbBlockEnd
0
BLOCK
5
1C
100
AcDbEntity
100
AcDbBlockBegin
2
*PAPER_SPACE
0
ENDBLK
5
1D
100
AcDbEntity
100
AcDbBlockEnd
0
ENDSEC
0
SECTION
2
ENTITIES
0
LWPOLYLINE
5
100
100
AcDbEntity
8
0
100
AcDbPolyline
90
32
70
1
43
0.0
10
107.50000000000011
20
79.999996185301669
42
-0.41421356237309503
10
110.00000000000013
20
77.499996185301654
10
110.00000000000011
20
-77.500003814698346
42
-0.41421356237309503
10
107.50000000000011
20
-80.000003814698346
10
97.43669858620234
20
-80.000003814698374
42
0.41421356237309503
10
94.436698586202326
20
-83.00000381469836
10
94.43669858620234
20
-107.00000381469805
42
-0.41421356237309503
10
91.936698586202326
20
-109.50000381469806
10
13.000000000000085
20
-109.50000381469805
42
-0.41421356237309531
10
10.500000000000076
20
-107.00000381469805
10
10.500000000000071
20
-101.25000381469809
42
0.41421356237309503
10
9.2500000000000817
20
-100.00000381469809
10
-8.2499999999999467
20
-100.0000038146981
42
0.41421356237309503
10
-9.4999999999999787
20
-101.25000381469809
10
-9.4999999999999716
20
-107.00000381469808
42
-0.41421356237309476
10
-11.999999999999984
20
-109.50000381469809
10
-90.936698586202155
20
-109.50000381469809
42
-0.41421356237309503
10
-93.436698586202169
20
-107.00000381469808
10
-93.436698586202198
20
-83.000003814698545
42
0.41421356237309503
10
-96.436698586202169
20
-80.00000381469853
10
-106.49999999999986
20
-80.00000381469853
42
-0.41421356237309503
10
-108.99999999999989
20
-77.500003814698516
10
-108.99999999999989
20
77.499996185301569
42
-0.41421356237309503
10
-106.49999999999989
20
79.999996185301569
10
-96.436698586202255
20
79.999996185301598
42
0.41421356237309503
10
-93.436698586202255
20
82.999996185301583
10
-93.436698586202283
20
106.99999618530187
42
-0.41421356237309503
10
-90.936698586202255
20
109.49999618530188
10
91.93669858620224
20
109.49999618530187
42
-0.41421356237309503
10
94.43669858620224
20
106.99999618530187
10
94.436698586202283
20
82.999996185301654
42
0.41421356237309503
10
97.436698586202255
20
79.999996185301669
0
LWPOLYLINE
5
101
100
AcDbEntity
8
0
100
AcDbPolyline
90
4
70
1
43
0.0
10
-39.182161120162917
20
-28.949842694539036
42
-0.99999999999999989
10
-39.182161120162917
20
-25.549842694539038
10
-29.18216112016292
20
-25.549842694539034
42
-0.99999999999999989
10
-29.18216112016292
20
-28.949842694539033
0
LWPOLYLINE
5
102
100
AcDbEntity
8
0
100
AcDbPolyline
90
4
70
1
43
0.0
10
-39.182161120162952
20
56.050157305460964
42
-0.99999999999999989
10
-39.182161120162952
20
59.450157305460962
10
-29.182161120162956
20
59.450157305460969
42
-0.99999999999999989
10
-29.182161120162956
20
56.050157305460971
0
LWPOLYLINE
5
103
100
AcDbEntity
8
0
100
AcDbPolyline
90
4
70
1
43
0.0
10
30.81783887983709
20
-28.949842694539004
10
40.817838879837083
20
-28.949842694539001
42
0.99999999999999989
10
40.817838879837083
20
-25.549842694539002
10
30.817838879837083
20
-25.549842694539006
42
0.99999999999999989
0
LWPOLYLINE
5
104
100
AcDbEntity
8
0
100
AcDbPolyline
90
4
70
1
43
0.0
10
30.817838879837058
20
56.050157305460992
42
-0.99999999999999989
10
30.817838879837048
20
59.450157305460991
10
40.817838879837048
20
59.450157305460998
42
-0.99999999999999989
10
40.817838879837048
20
56.050157305460999
0
CIRCLE
5
105
100
AcDbEntity
8
0
100
AcDbCircle
10
-1.0000000000000686
20
-3.8146976135002524e-06
30
0
40
7.5
210
0
220
0
230
-1
0
ENDSEC
0
SECTION
2
OBJECTS
0
DICTIONARY
5
C
100
AcDbDictionary
3
ACAD_GROUP
350
D
3
ACAD_MLINESTYLE
350
17
0
DICTIONARY
5
D
100
AcDbDictionary
0
DICTIONARY
5
1A
330
C
100
AcDbDictionary
0
DICTIONARY
5
17
100
AcDbDictionary
0
ENDSEC
0
EOF
