0
SECTION
2
HEADER
9
$INSUNITS
70
4
9
$ACADVER
1
AC1014
9
$HANDSEED
5
FFFF
0
ENDSEC
0
SECTION
2
TABLES
0
TABLE
2
VPORT
5
8
100
AcDbSymbolTable
0
ENDTAB
0
TABLE
2
LTYPE
5
5
100
AcDbSymbolTable
0
LTYPE
5
14
100
AcDbSymbolTableRecord
100
AcDbLinetypeTableRecord
2
BYBLOCK
70
0
0
LTYPE
5
15
100
AcDbSymbolTableRecord
100
AcDbLinetypeTableRecord
2
BYLAYER
70
0
0
ENDTAB
0
TABLE
2
LAYER
5
2
100
AcDbSymbolTable
70
2
0
LAYER
5
50
100
AcDbSymbolTableRecord
100
AcDbLayerTableRecord
2
0
70
0
6
CONTINUOUS
0
ENDTAB
0
TABLE
2
STYLE
5
3
100
AcDbSymbolTable
70
1
0
STYLE
5
11
100
AcDbSymbolTableRecord
100
AcDbTextStyleTableRecord
2
STANDARD
70
0
0
ENDTAB
0
TABLE
2
VIEW
5
6
100
AcDbSymbolTable
70
0
0
ENDTAB
0
TABLE
2
UCS
5
7
100
AcDbSymbolTable
70
0
0
ENDTAB
0
TABLE
2
APPID
5
9
100
AcDbSymbolTable
70
2
0
APPID
5
12
100
AcDbSymbolTableRecord
100
AcDbRegAppTableRecord
2
ACAD
70
0
0
ENDTAB
0
TABLE
2
DIMSTYLE
5
A
100
AcDbSymbolTable
70
1
0
ENDTAB
0
TABLE
2
BLOCK_RECORD
5
1
100
AcDbSymbolTable
70
1
0
BLOCK_RECORD
5
1F
100
AcDbSymbolTableRecord
100
AcDbBlockTableRecord
2
*MODEL_SPACE
0
BLOCK_RECORD
5
1B
100
AcDbSymbolTableRecord
100
AcDbBlockTableRecord
2
*PAPER_SPACE
0
ENDTAB
0
ENDSEC
0
SECTION
2
BLOCKS
0
BLOCK
5
20
100
AcDbEntity
100
AcDbBlockBegin
2
*MODEL_SPACE
0
ENDBLK
5
21
100
AcDbEntity
100
AcDbBlockEnd
0
BLOCK
5
1C
100
AcDbEntity
100
AcDbBlockBegin
2
*PAPER_SPACE
0
ENDBLK
5
1D
100
AcDbEntity
100
AcDbBlockEnd
0
ENDSEC
0
SECTION
2
ENTITIES
0
LWPOLYLINE
5
100
100
AcDbEntity
8
0
100
AcDbPolyline
90
4
70
1
43
0.0
10
39.182161120162917
20
-25.549842694539038
42
-0.99999999999999989
10
39.182161120162917
20
-28.949842694539036
10
29.182161120162903
20
-28.949842694539033
42
-0.99999999999999989
10
29.18216112016291
20
-25.549842694539034
0
LWPOLYLINE
5
101
100
AcDbEntity
8
0
100
AcDbPolyline
90
4
70
1
43
0.0
10
39.182161120162952
20
59.450157305461019
42
-0.99999999999999989
10
39.182161120162952
20
56.050157305461013
10
29.182161120162938
20
56.050157305461028
42
-0.99999999999999989
10
29.182161120162945
20
59.450157305461026
0
LWPOLYLINE
5
102
100
AcDbEntity
8
0
100
AcDbPolyline
90
4
70
1
43
0.0
10
-40.817838879837147
20
-28.949842694539001
10
-30.817838879837144
20
-28.949842694539004
42
0.99999999999999989
10
-30.81783887983714
20
-25.549842694539006
10
-40.817838879837147
20
-25.549842694539002
42
0.99999999999999989
0
LWPOLYLINE
5
103
100
AcDbEntity
8
0
100
AcDbPolyline
90
4
70
1
43
0.0
10
-30.817838879837108
20
59.45015730546104
42
-0.99999999999999989
10
-30.817838879837108
20
56.050157305461042
10
-40.817838879837112
20
56.050157305461056
42
-0.99999999999999989
10
-40.817838879837112
20
59.450157305461047
0
LWPOLYLINE
5
104
100
AcDbEntity
8
0
100
AcDbPolyline
90
32
70
1
43
0.0
10
-110.00000000000017
20
77.499996185301711
42
-0.41421356237309503
10
-107.50000000000017
20
79.999996185301725
10
-97.43669858620234
20
79.99999618530174
42
0.41421356237309503
10
-94.436698586202326
20
82.999996185301711
10
-94.436698586202311
20
106.99999618530194
42
-0.41421356237309503
10
-91.936698586202283
20
109.49999618530197
10
90.936698586202311
20
109.49999618530198
42
-0.41421356237309503
10
93.43669858620234
20
106.99999618530194
10
93.43669858620234
20
82.99999618530164
42
0.41421356237309503
10
96.436698586202311
20
79.99999618530164
10
106.49999999999994
20
79.999996185301654
42
-0.41421356237309503
10
108.99999999999997
20
77.499996185301626
10
108.99999999999994
20
-77.500003814698573
42
-0.41421356237309503
10
106.49999999999993
20
-80.000003814698587
10
96.436698586202255
20
-80.000003814698488
42
0.41421356237310375
10
93.436698586202255
20
-83.000003814698573
10
93.436698586202226
20
-107.00000381469815
42
-0.41421356237309503
10
90.936698586202198
20
-109.50000381469818
10
11.999999999999991
20
-109.50000381469818
42
-0.41421356237309476
10
9.4999999999999787
20
-107.00000381469815
10
9.4999999999999414
20
-101.25000381469816
42
0.41421356237309503
10
8.2499999999999485
20
-100.00000381469816
10
-9.2500000000000924
20
-100.00000381469818
42
0.41421356237309503
10
-10.500000000000085
20
-101.25000381469816
10
-10.500000000000078
20
-107.00000381469812
42
-0.41421356237309531
10
-13.000000000000096
20
-109.50000381469813
10
-91.936698586202382
20
-109.50000381469815
42
-0.41421356237309503
10
-94.436698586202411
20
-107.00000381469812
10
-94.436698586202425
20
-83.000003814698417
42
0.41421356237309503
10
-97.436698586202397
20
-80.000003814698402
10
-107.50000000000017
20
-80.000003814698402
42
-0.41421356237309503
10
-110.0000000000002
20
-77.500003814698388
0
CIRCLE
5
105
100
AcDbEntity
8
0
100
AcDbCircle
10
-1.0000000000000731
20
-3.8146976125537913e-06
30
0
40
7.5
210
-3.9443045261050617e-31
220
-2.4651903288156471e-32
230
1
0
ENDSEC
0
SECTION
2
OBJECTS
0
DICTIONARY
5
C
100
AcDbDictionary
3
ACAD_GROUP
350
D
3
ACAD_MLINESTYLE
350
17
0
DICTIONARY
5
D
100
AcDbDictionary
0
DICTIONARY
5
1A
330
C
100
AcDbDictionary
0
DICTIONARY
5
17
100
AcDbDictionary
0
ENDSEC
0
EOF
