0
SECTION
2
HEADER
9
$INSUNITS
70
4
9
$ACADVER
1
AC1014
9
$HANDSEED
5
FFFF
0
ENDSEC
0
SECTION
2
TABLES
0
TABLE
2
VPORT
5
8
100
AcDbSymbolTable
0
ENDTAB
0
TABLE
2
LTYPE
5
5
100
AcDbSymbolTable
0
LTYPE
5
14
100
AcDbSymbolTableRecord
100
AcDbLinetypeTableRecord
2
BYBLOCK
70
0
0
LTYPE
5
15
100
AcDbSymbolTableRecord
100
AcDbLinetypeTableRecord
2
BYLAYER
70
0
0
ENDTAB
0
TABLE
2
LAYER
5
2
100
AcDbSymbolTable
70
2
0
LAYER
5
50
100
AcDbSymbolTableRecord
100
AcDbLayerTableRecord
2
0
70
0
6
CONTINUOUS
0
ENDTAB
0
TABLE
2
STYLE
5
3
100
AcDbSymbolTable
70
1
0
STYLE
5
11
100
AcDbSymbolTableRecord
100
AcDbTextStyleTableRecord
2
STANDARD
70
0
0
ENDTAB
0
TABLE
2
VIEW
5
6
100
AcDbSymbolTable
70
0
0
ENDTAB
0
TABLE
2
UCS
5
7
100
AcDbSymbolTable
70
0
0
ENDTAB
0
TABLE
2
APPID
5
9
100
AcDbSymbolTable
70
2
0
APPID
5
12
100
AcDbSymbolTableRecord
100
AcDbRegAppTableRecord
2
ACAD
70
0
0
ENDTAB
0
TABLE
2
DIMSTYLE
5
A
100
AcDbSymbolTable
70
1
0
ENDTAB
0
TABLE
2
BLOCK_RECORD
5
1
100
AcDbSymbolTable
70
1
0
BLOCK_RECORD
5
1F
100
AcDbSymbolTableRecord
100
AcDbBlockTableRecord
2
*MODEL_SPACE
0
BLOCK_RECORD
5
1B
100
AcDbSymbolTableRecord
100
AcDbBlockTableRecord
2
*PAPER_SPACE
0
ENDTAB
0
ENDSEC
0
SECTION
2
BLOCKS
0
BLOCK
5
20
100
AcDbEntity
100
AcDbBlockBegin
2
*MODEL_SPACE
0
ENDBLK
5
21
100
AcDbEntity
100
AcDbBlockEnd
0
BLOCK
5
1C
100
AcDbEntity
100
AcDbBlockBegin
2
*PAPER_SPACE
0
ENDBLK
5
1D
100
AcDbEntity
100
AcDbBlockEnd
0
ENDSEC
0
SECTION
2
ENTITIES
0
SPLINE
5
100
100
AcDbEntity
8
0
100
AcDbSpline
70
0
71
3
72
18
73
14
74
0
42
0.000000001
43
0.0000000001
44
0.0000000001
40
0
40
0
40
0
40
0
40
0.050111023162092802
40
0.050111023162092802
40
0.10226147970239448
40
0.10226147970239448
40
0.15645047883790233
40
0.15645047883790233
40
0.21267709957745437
40
0.21267709957745437
40
0.24852047511084066
40
0.24852047511084066
40
0.28514280399476605
40
0.28514280399476605
40
0.28514280399476605
40
0.28514280399476605
10
-49.241883847274678
20
-63.07478870106511
30
0
10
-49.119803264528358
20
-63.188795740848747
30
0
10
-49.02163601975424
20
-63.32596671695687
30
0
10
-48.879304031404985
20
-63.636033161443635
30
0
10
-48.838897453221684
20
-63.80701944154584
30
0
10
-48.824312956353907
20
-64.161801086696585
30
0
10
-48.85289437839927
20
-64.342267124987075
30
0
10
-48.978794213200835
20
-64.689118566152302
30
0
10
-49.077356386008965
20
-64.851247673051304
30
0
10
-49.284415260799356
20
-65.079165401451718
30
0
10
-49.375570161763385
20
-65.157711006767286
30
0
10
-49.576755845471027
20
-65.292934371097402
30
0
10
-49.686399887348998
20
-65.34859737855372
30
0
10
-49.801486158140875
20
-65.390649428218936
30
0
0
ARC
5
101
100
AcDbEntity
8
0
100
AcDbCircle
10
-50.199999999998106
20
-63.900000000000496
30
0
40
1.5429999999999213
210
0
220
0
230
1
100
AcDbArc
50
255.0324409838145
51
284.96755901611692
0
SPLINE
5
102
100
AcDbEntity
8
0
100
AcDbSpline
70
0
71
3
72
18
73
14
74
0
42
0.000000001
43
0.0000000001
44
0.0000000001
40
0
40
0
40
0
40
0
40
0.059038687326664681
40
0.059038687326664681
40
0.11603342985476685
40
0.11603342985476685
40
0.17098340798686384
40
0.17098340798686384
40
0.22388783903959969
40
0.22388783903959969
40
0.25550516053604944
40
0.25550516053604944
40
0.28634738033247931
40
0.28634738033247931
40
0.28634738033247931
40
0.28634738033247931
10
-50.59851384185707
20
-65.390649428218467
30
0
10
-50.783356397589152
20
-65.323108719144869
30
0
10
-50.953480164336071
20
-65.22070523877737
30
0
10
-51.23892671524662
20
-64.960145003839287
30
0
10
-51.353245968809972
20
-64.806454955364742
30
0
10
-51.512414487181076
20
-64.469590485908398
30
0
10
-51.558088922731088
20
-64.290805883013633
30
0
10
-51.576679182334473
20
-63.932617943448889
30
0
10
-51.552031485785164
20
-63.756826129984248
30
0
10
-51.458980563088694
20
-63.49184971752009
30
0
10
-51.412492314208158
20
-63.397226269390984
30
0
10
-51.299028968462409
20
-63.22350721513061
30
0
10
-51.232982349444363
20
-63.144703779091245
30
0
10
-51.158116152720503
20
-63.074788701063945
30
0
0
ARC
5
103
100
AcDbEntity
8
0
100
AcDbCircle
10
-50.199999999998106
20
-63.900000000000496
30
0
40
1.2645000000000657
210
6.3640331721274072e-32
220
-7.3889959899354511e-32
230
1
100
AcDbArc
50
40.737834993951509
51
139.26216500597798
0
SPLINE
5
104
100
AcDbEntity
8
0
100
AcDbSpline
70
0
71
3
72
18
73
14
74
0
42
0.000000001
43
0.0000000001
44
0.0000000001
40
0
40
0
40
0
40
0
40
0.05011102316209428
40
0.05011102316209428
40
0.10226147970240279
40
0.10226147970240279
40
0.15645047883791166
40
0.15645047883791166
40
0.21267709957745229
40
0.21267709957745229
40
0.24852047511081787
40
0.24852047511081787
40
0.28514280399473013
40
0.28514280399473013
40
0.28514280399473013
40
0.28514280399473013
10
51.158116152723636
20
-63.074788701064826
30
0
10
51.280196735469936
20
-63.188795740848498
30
0
10
51.378363980244011
20
-63.325966716956643
30
0
10
51.520695968593195
20
-63.636033161443429
30
0
10
51.561102546776453
20
-63.807019441545648
30
0
10
51.575687043644152
20
-64.161801086696371
30
0
10
51.547105621598767
20
-64.342267124986819
30
0
10
51.421205786797131
20
-64.689118566152047
30
0
10
51.322643613988973
20
-64.851247673051034
30
0
10
51.115584739198553
20
-65.079165401451377
30
0
10
51.024429838234539
20
-65.157711006766917
30
0
10
50.823244154526812
20
-65.292934371097033
30
0
10
50.713600112648763
20
-65.348597378553336
30
0
10
50.598513841856899
20
-65.390649428218524
30
0
0
ARC
5
105
100
AcDbEntity
8
0
100
AcDbCircle
10
50.200000000000038
20
-63.899999999999963
30
0
40
1.5429999999999466
210
0
220
0
230
1
100
AcDbArc
50
255.0324409838008
51
284.96755901610243
0
SPLINE
5
106
100
AcDbEntity
8
0
100
AcDbSpline
70
0
71
3
72
18
73
14
74
0
42
0.000000001
43
0.0000000001
44
0.0000000001
40
0
40
0
40
0
40
0
40
0.059038687326668969
40
0.059038687326668969
40
0.11603342985478898
40
0.11603342985478898
40
0.17098340798689704
40
0.17098340798689704
40
0.22388783903964288
40
0.22388783903964288
40
0.25550516053611472
40
0.25550516053611472
40
0.28634738033255369
40
0.28634738033255369
40
0.28634738033255369
40
0.28634738033255369
10
49.801486158140705
20
-65.39064942821787
30
0
10
49.616643602408637
20
-65.323108719144216
30
0
10
49.446519835661739
20
-65.220705238776674
30
0
10
49.161073284751211
20
-64.960145003838505
30
0
10
49.046754031187938
20
-64.806454955363947
30
0
10
48.887585512816933
20
-64.469590485907617
30
0
10
48.841911077266943
20
-64.290805883012823
30
0
10
48.823320817663635
20
-63.932617943448051
30
0
10
48.847968514212994
20
-63.756826129983423
30
0
10
48.941019436909549
20
-63.491849717519244
30
0
10
48.987507685790099
20
-63.397226269390174
30
0
10
49.100971031535849
20
-63.223507215129899
30
0
10
49.167017650553916
20
-63.14470377909052
30
0
10
49.241883847277819
20
-63.074788701063213
30
0
0
ARC
5
107
100
AcDbEntity
8
0
100
AcDbCircle
10
50.200000000000038
20
-63.899999999999963
30
0
40
1.264500000000031
210
-6.3640331721255998e-32
220
7.3889959899368808e-32
230
1
100
AcDbArc
50
40.737834993937938
51
139.26216500596564
0
CIRCLE
5
108
100
AcDbEntity
8
0
100
AcDbCircle
10
49.799999999999983
20
114.90000000000008
30
0
40
3.3000000000000007
210
3.1115076389305709e-61
220
1.9721522630525295e-31
230
1
0
CIRCLE
5
109
100
AcDbEntity
8
0
100
AcDbCircle
10
-50.200000000000884
20
114.89999999999955
30
0
40
3.3000000000000007
210
3.1115076389305709e-61
220
1.9721522630525295e-31
230
1
0
CIRCLE
5
110
100
AcDbEntity
8
0
100
AcDbCircle
10
-50.200000000000017
20
-51.899999999999935
30
0
40
3.2999999999999918
210
0
220
-0
230
1
0
CIRCLE
5
111
100
AcDbEntity
8
0
100
AcDbCircle
10
49.799999999999983
20
-51.899999999999935
30
0
40
3.2999999999999918
210
0
220
-0
230
1
0
LWPOLYLINE
5
112
100
AcDbEntity
8
0
100
AcDbPolyline
90
30
70
1
43
0.0
10
-89.917114788936047
20
-61.300042498588205
10
-61.604072342752751
20
-61.300042852572048
42
-0.19671691303560462
10
-60.765685424947335
20
-61.651471862576656
10
-54.151471862574176
20
-68.265685424949709
42
0.19891236737964779
10
-53.585786437624954
20
-68.500000000000455
10
-46.814213562371123
20
-68.500000000000398
42
0.19891236737963999
10
-46.248528137421943
20
-68.265685424949666
10
-39.634314575048883
20
-61.651471862576471
42
-0.19671690526407307
10
-38.795927693155782
20
-61.300042852875343
10
38.795927657243261
20
-61.300042852571437
42
-0.19671691303606742
10
39.634314575050801
20
-61.651471862576074
10
46.248528137423861
20
-68.265685424949183
42
0.19891236737965884
10
46.814213562373112
20
-68.499999999999915
10
53.585786437626943
20
-68.499999999999929
42
0.19891236737965801
10
54.151471862576173
20
-68.265685424949169
10
60.765685424949247
20
-61.651471862576045
42
-0.19671690526360971
10
61.604072306840216
20
-61.300042852874952
10
89.91711478893798
20
-61.300042498587288
10
92.565685424949251
20
-58.651471862576017
42
0.19891236737965889
10
92.799999999999997
20
-58.085786437626808
10
92.800000000000026
20
121.08578643762696
42
0.1989123673796383
10
92.565685424949251
20
121.65147186257619
10
90.151471862576145
20
124.06568542494936
42
0.1989123673796383
10
89.585786437626908
20
124.3000000000001
10
-89.585786437626865
20
124.30000000000007
42
0.19891236737964985
10
-90.151471862576074
20
124.06568542494844
10
-92.565685424949208
20
121.65147186257529
42
0.19891236737963833
10
-92.79999999999994
20
121.08578643762604
10
-92.79999999999815
20
-58.085786437627732
42
0.19891236737963047
10
-92.565685424947347
20
-58.651471862576948
0
ENDSEC
0
SECTION
2
OBJECTS
0
DICTIONARY
5
C
100
AcDbDictionary
3
ACAD_GROUP
350
D
3
ACAD_MLINESTYLE
350
17
0
DICTIONARY
5
D
100
AcDbDictionary
0
DICTIONARY
5
1A
330
C
100
AcDbDictionary
0
DICTIONARY
5
17
100
AcDbDictionary
0
ENDSEC
0
EOF
