0
SECTION
2
HEADER
9
$INSUNITS
70
4
9
$ACADVER
1
AC1014
9
$HANDSEED
5
FFFF
0
ENDSEC
0
SECTION
2
TABLES
0
TABLE
2
VPORT
5
8
100
AcDbSymbolTable
0
ENDTAB
0
TABLE
2
LTYPE
5
5
100
AcDbSymbolTable
0
LTYPE
5
14
100
AcDbSymbolTableRecord
100
AcDbLinetypeTableRecord
2
BYBLOCK
70
0
0
LTYPE
5
15
100
AcDbSymbolTableRecord
100
AcDbLinetypeTableRecord
2
BYLAYER
70
0
0
ENDTAB
0
TABLE
2
LAYER
5
2
100
AcDbSymbolTable
70
2
0
LAYER
5
50
100
AcDbSymbolTableRecord
100
AcDbLayerTableRecord
2
0
70
0
6
CONTINUOUS
0
ENDTAB
0
TABLE
2
STYLE
5
3
100
AcDbSymbolTable
70
1
0
STYLE
5
11
100
AcDbSymbolTableRecord
100
AcDbTextStyleTableRecord
2
STANDARD
70
0
0
ENDTAB
0
TABLE
2
VIEW
5
6
100
AcDbSymbolTable
70
0
0
ENDTAB
0
TABLE
2
UCS
5
7
100
AcDbSymbolTable
70
0
0
ENDTAB
0
TABLE
2
APPID
5
9
100
AcDbSymbolTable
70
2
0
APPID
5
12
100
AcDbSymbolTableRecord
100
AcDbRegAppTableRecord
2
ACAD
70
0
0
ENDTAB
0
TABLE
2
DIMSTYLE
5
A
100
AcDbSymbolTable
70
1
0
ENDTAB
0
TABLE
2
BLOCK_RECORD
5
1
100
AcDbSymbolTable
70
1
0
BLOCK_RECORD
5
1F
100
AcDbSymbolTableRecord
100
AcDbBlockTableRecord
2
*MODEL_SPACE
0
BLOCK_RECORD
5
1B
100
AcDbSymbolTableRecord
100
AcDbBlockTableRecord
2
*PAPER_SPACE
0
ENDTAB
0
ENDSEC
0
SECTION
2
BLOCKS
0
BLOCK
5
20
100
AcDbEntity
100
AcDbBlockBegin
2
*MODEL_SPACE
0
ENDBLK
5
21
100
AcDbEntity
100
AcDbBlockEnd
0
BLOCK
5
1C
100
AcDbEntity
100
AcDbBlockBegin
2
*PAPER_SPACE
0
ENDBLK
5
1D
100
AcDbEntity
100
AcDbBlockEnd
0
ENDSEC
0
SECTION
2
ENTITIES
0
LWPOLYLINE
5
100
100
AcDbEntity
8
0
100
AcDbPolyline
90
24
70
1
43
0.0
10
84.999759189565438
20
120.99999798834295
42
-0.41421356237309503
10
86.999759189565424
20
118.99999798834295
10
86.999759189565452
20
93.999997556209451
42
0.41421356237309503
10
88.999759189565438
20
91.999997556209451
10
120.00000180304106
20
91.999997556209451
42
-0.41421356237309503
10
122.00000180304104
20
89.999997556209465
10
122.00000180304113
20
-90.000005185604252
42
-0.41421356237309503
10
120.00000180304113
20
-92.000005185604238
10
88.999759189565509
20
-92.000005185604266
42
0.41421356237308204
10
86.999759189565523
20
-94.000005185604167
10
86.999759189565552
20
-119.00000381469707
42
-0.41421356237309503
10
84.999759189565538
20
-121.00000381469707
10
-83.000001281499578
20
-121.00000381469712
42
-0.41421356237309503
10
-85.000001281499564
20
-119.00000381469712
10
-85.000001281499607
20
-94.000005185604323
42
0.41421356237309503
10
-87.000001281499593
20
-92.000005185604323
10
-118.00000180303989
20
-92.000005185604351
42
-0.41421356237309503
10
-120.00000180303988
20
-90.000005185604351
10
-120.00000180303998
20
89.999997556209351
42
-0.41421356237309503
10
-118.00000180303996
20
91.999997556209365
10
-87.000001281499664
20
91.999997556209379
42
0.41421356237309503
10
-85.00000128149965
20
93.999997556209379
10
-85.000001281499664
20
118.99999798834288
42
-0.41421356237309503
10
-83.000001281499678
20
120.99999798834288
0
CIRCLE
5
101
100
AcDbEntity
8
0
100
AcDbCircle
10
116.49999999999891
20
-36.250011618015236
30
3.5527136788005009e-14
40
1.6500000000000001
210
0
220
0
230
-1
0
CIRCLE
5
102
100
AcDbEntity
8
0
100
AcDbCircle
10
116.49999999999991
20
3.9886203374036593e-06
30
3.5527136788005009e-14
40
1.6500000000000001
210
0
220
0
230
-1
0
CIRCLE
5
103
100
AcDbEntity
8
0
100
AcDbCircle
10
116.49999999999893
20
36.250003988620264
30
3.5527136788005009e-14
40
1.6500000000000001
210
0
220
0
230
-1
0
CIRCLE
5
104
100
AcDbEntity
8
0
100
AcDbCircle
10
42.000240810434278
20
117.49999618530289
30
3.5527136788005009e-14
40
1.6500000000000001
210
0
220
0
230
-1
0
CIRCLE
5
105
100
AcDbEntity
8
0
100
AcDbCircle
10
-0.99975918956577559
20
117.4999961853029
30
3.5527136788005009e-14
40
1.6500000000000001
210
0
220
0
230
-1
0
CIRCLE
5
106
100
AcDbEntity
8
0
100
AcDbCircle
10
-43.999759189565822
20
117.49999618530293
30
3.5527136788005009e-14
40
1.6500000000000001
210
0
220
0
230
-1
0
CIRCLE
5
107
100
AcDbEntity
8
0
100
AcDbCircle
10
-118.49999999999908
20
36.250003988620264
30
3.5527136788005009e-14
40
1.6500000000000001
210
0
220
0
230
-1
0
CIRCLE
5
108
100
AcDbEntity
8
0
100
AcDbCircle
10
-118.50000000000009
20
3.9886203626049528e-06
30
3.5527136788005009e-14
40
1.6500000000000001
210
0
220
0
230
-1
0
CIRCLE
5
109
100
AcDbEntity
8
0
100
AcDbCircle
10
-118.50000000000109
20
-36.249996011379643
30
3.5527136788005009e-14
40
1.6500000000000001
210
0
220
0
230
-1
0
CIRCLE
5
110
100
AcDbEntity
8
0
100
AcDbCircle
10
-43.999759189565928
20
-117.50000381469707
30
3.5527136788005009e-14
40
1.6500000000000001
210
0
220
0
230
-1
0
CIRCLE
5
111
100
AcDbEntity
8
0
100
AcDbCircle
10
-0.99975918956588794
20
-117.5000038146971
30
3.5527136788005009e-14
40
1.6500000000000001
210
0
220
0
230
-1
0
CIRCLE
5
112
100
AcDbEntity
8
0
100
AcDbCircle
10
42.000240810434079
20
-117.50000381469711
30
3.5527136788005009e-14
40
1.6500000000000001
210
0
220
0
230
-1
0
ENDSEC
0
SECTION
2
OBJECTS
0
DICTIONARY
5
C
100
AcDbDictionary
3
ACAD_GROUP
350
D
3
ACAD_MLINESTYLE
350
17
0
DICTIONARY
5
D
100
AcDbDictionary
0
DICTIONARY
5
1A
330
C
100
AcDbDictionary
0
DICTIONARY
5
17
100
AcDbDictionary
0
ENDSEC
0
EOF
