0
SECTION
2
HEADER
9
$INSUNITS
70
4
9
$ACADVER
1
AC1014
9
$HANDSEED
5
FFFF
0
ENDSEC
0
SECTION
2
TABLES
0
TABLE
2
VPORT
5
8
100
AcDbSymbolTable
0
ENDTAB
0
TABLE
2
LTYPE
5
5
100
AcDbSymbolTable
0
LTYPE
5
14
100
AcDbSymbolTableRecord
100
AcDbLinetypeTableRecord
2
BYBLOCK
70
0
0
LTYPE
5
15
100
AcDbSymbolTableRecord
100
AcDbLinetypeTableRecord
2
BYLAYER
70
0
0
ENDTAB
0
TABLE
2
LAYER
5
2
100
AcDbSymbolTable
70
2
0
LAYER
5
50
100
AcDbSymbolTableRecord
100
AcDbLayerTableRecord
2
0
70
0
6
CONTINUOUS
0
ENDTAB
0
TABLE
2
STYLE
5
3
100
AcDbSymbolTable
70
1
0
STYLE
5
11
100
AcDbSymbolTableRecord
100
AcDbTextStyleTableRecord
2
STANDARD
70
0
0
ENDTAB
0
TABLE
2
VIEW
5
6
100
AcDbSymbolTable
70
0
0
ENDTAB
0
TABLE
2
UCS
5
7
100
AcDbSymbolTable
70
0
0
ENDTAB
0
TABLE
2
APPID
5
9
100
AcDbSymbolTable
70
2
0
APPID
5
12
100
AcDbSymbolTableRecord
100
AcDbRegAppTableRecord
2
ACAD
70
0
0
ENDTAB
0
TABLE
2
DIMSTYLE
5
A
100
AcDbSymbolTable
70
1
0
ENDTAB
0
TABLE
2
BLOCK_RECORD
5
1
100
AcDbSymbolTable
70
1
0
BLOCK_RECORD
5
1F
100
AcDbSymbolTableRecord
100
AcDbBlockTableRecord
2
*MODEL_SPACE
0
BLOCK_RECORD
5
1B
100
AcDbSymbolTableRecord
100
AcDbBlockTableRecord
2
*PAPER_SPACE
0
ENDTAB
0
ENDSEC
0
SECTION
2
BLOCKS
0
BLOCK
5
20
100
AcDbEntity
100
AcDbBlockBegin
2
*MODEL_SPACE
0
ENDBLK
5
21
100
AcDbEntity
100
AcDbBlockEnd
0
BLOCK
5
1C
100
AcDbEntity
100
AcDbBlockBegin
2
*PAPER_SPACE
0
ENDBLK
5
1D
100
AcDbEntity
100
AcDbBlockEnd
0
ENDSEC
0
SECTION
2
ENTITIES
0
LWPOLYLINE
5
100
100
AcDbEntity
8
0
100
AcDbPolyline
90
16
70
1
43
0.0
10
-8.9998469203674478
20
-125.00000381469806
10
-8.9998469203674514
20
-139.50000381469809
10
125.93669858620186
20
-139.50000381469815
10
125.93669858620186
20
-113.00000381469815
10
139.49999999999986
20
-113.00000381469815
10
139.49999999999994
20
112.99999618530187
10
125.93669858620196
20
112.99999618530187
10
125.93669858620196
20
139.49999618530188
10
-125.93669858620203
20
139.49999618530197
10
-125.93669858620204
20
112.99999618530197
10
-139.50000000000006
20
112.99999618530197
10
-139.50000000000014
20
-113.00000381469803
10
-125.93669858620216
20
-113.00000381469803
10
-125.93669858620216
20
-139.50000381469803
10
-26.000000000000068
20
-139.50000381469806
10
-26.000000000000053
20
-125.00000381469805
0
LWPOLYLINE
5
101
100
AcDbEntity
8
0
100
AcDbPolyline
90
4
70
1
43
0.0
10
-45.317838879837076
20
29.050157305461038
42
0.99999999999999989
10
-45.317838879837069
20
32.450157305461033
10
-55.317838879837069
20
32.45015730546104
42
0.99999999999999989
10
-55.317838879837076
20
29.050157305461042
0
LWPOLYLINE
5
102
100
AcDbEntity
8
0
100
AcDbPolyline
90
4
70
1
43
0.0
10
-45.317838879837112
20
-54.949842694538972
10
-55.317838879837105
20
-54.949842694538958
42
-0.99999999999999989
10
-55.317838879837105
20
-51.549842694538967
10
-45.317838879837097
20
-51.549842694538974
42
-0.99999999999999989
0
LWPOLYLINE
5
103
100
AcDbEntity
8
0
100
AcDbPolyline
90
4
70
1
43
0.0
10
54.682161120162895
20
-54.949842694539015
42
0.99999999999999989
10
54.682161120162903
20
-51.549842694539016
10
44.682161120162895
20
-51.549842694539009
42
0.99999999999999989
10
44.682161120162888
20
-54.949842694539008
0
LWPOLYLINE
5
104
100
AcDbEntity
8
0
100
AcDbPolyline
90
4
70
1
43
0.0
10
54.682161120162931
20
29.050157305460999
42
0.99999999999999989
10
54.682161120162938
20
32.450157305460998
10
44.682161120162931
20
32.450157305460998
42
0.99999999999999989
10
44.682161120162924
20
29.050157305461003
0
CIRCLE
5
105
100
AcDbEntity
8
0
100
AcDbCircle
10
-1.3183898417423734e-15
20
-79.999999999999986
30
0
40
7.5
210
4.3790577010150533e-47
220
0
230
1
0
ENDSEC
0
SECTION
2
OBJECTS
0
DICTIONARY
5
C
100
AcDbDictionary
3
ACAD_GROUP
350
D
3
ACAD_MLINESTYLE
350
17
0
DICTIONARY
5
D
100
AcDbDictionary
0
DICTIONARY
5
1A
330
C
100
AcDbDictionary
0
DICTIONARY
5
17
100
AcDbDictionary
0
ENDSEC
0
EOF
