<?xml version="1.0" standalone="no"?>
 <!DOCTYPE svg PUBLIC "-//W3C//DTD SVG 1.1//EN" 
 "http://www.w3.org/Graphics/SVG/1.1/DTD/svg11.dtd"> 
<svg
  xmlns:svg="http://www.w3.org/2000/svg"
  xmlns="http://www.w3.org/2000/svg"
  xmlns:xlink="http://www.w3.org/1999/xlink"
  version="1.1"
  width="297.0022mm" height="210.0072mm" viewBox="0.0000 0.0000 297.0022 210.0072">
<title>SVG Image created as MM Skirt-F_Paste.svg date 2023/10/08 23:25:44 </title>
  <desc>Image generated by PCBNEW </desc>
<g style="fill:#000000; fill-opacity:1.0000;stroke:#000000; stroke-opacity:1.0000;
stroke-linecap:round; stroke-linejoin:round;"
 transform="translate(0 0) scale(1 1)">
</g>
<g style="fill:#000000; fill-opacity:0.0; 
stroke:#000000; stroke-width:0.0000; stroke-opacity:1; 
stroke-linecap:round; stroke-linejoin:round;">
<g >
</g>
<g style="fill:#000000; fill-opacity:0.0; 
stroke:#000000; stroke-width:0.0000; stroke-opacity:1; 
stroke-linecap:round; stroke-linejoin:round;">
</g>
<g style="fill:#000000; fill-opacity:1.0000; 
stroke:#000000; stroke-width:0.0000; stroke-opacity:1; 
stroke-linecap:round; stroke-linejoin:round;">
<path style="fill:#000000; fill-opacity:1.0000; 
stroke:#000000; stroke-width:0.0000; stroke-opacity:1; 
stroke-linecap:round; stroke-linejoin:round;fill-rule:evenodd;"
d="M 120.2214,87.6428
119.6811,88.4843
118.4189,87.6740
118.9591,86.8325
Z" /> 
<path style="fill:#000000; fill-opacity:1.0000; 
stroke:#000000; stroke-width:0.0000; stroke-opacity:1; 
stroke-linecap:round; stroke-linejoin:round;fill-rule:evenodd;"
d="M 121.9501,84.9500
121.4099,85.7915
120.1476,84.9811
120.6879,84.1396
Z" /> 
<path style="fill:#000000; fill-opacity:1.0000; 
stroke:#000000; stroke-width:0.0000; stroke-opacity:1; 
stroke-linecap:round; stroke-linejoin:round;fill-rule:evenodd;"
d="M 117.8267,82.3028
117.2865,83.1443
116.0242,82.3340
116.5645,81.4925
Z" /> 
<path style="fill:#000000; fill-opacity:1.0000; 
stroke:#000000; stroke-width:0.0000; stroke-opacity:1; 
stroke-linecap:round; stroke-linejoin:round;fill-rule:evenodd;"
d="M 116.0980,84.9957
115.5577,85.8372
114.2955,85.0268
114.8357,84.1853
Z" /> 
</g>
<g >
</g>
<g style="fill:#000000; fill-opacity:1.0000; 
stroke:#000000; stroke-width:0.0000; stroke-opacity:1; 
stroke-linecap:round; stroke-linejoin:round;">
<path style="fill:#000000; fill-opacity:1.0000; 
stroke:#000000; stroke-width:0.0000; stroke-opacity:1; 
stroke-linecap:round; stroke-linejoin:round;fill-rule:evenodd;"
d="M 124.9372,102.1661
124.3969,103.0076
123.1347,102.1972
123.6749,101.3557
Z" /> 
<path style="fill:#000000; fill-opacity:1.0000; 
stroke:#000000; stroke-width:0.0000; stroke-opacity:1; 
stroke-linecap:round; stroke-linejoin:round;fill-rule:evenodd;"
d="M 126.6659,99.4732
126.1257,100.3147
124.8634,99.5044
125.4037,98.6629
Z" /> 
<path style="fill:#000000; fill-opacity:1.0000; 
stroke:#000000; stroke-width:0.0000; stroke-opacity:1; 
stroke-linecap:round; stroke-linejoin:round;fill-rule:evenodd;"
d="M 130.7893,102.1204
130.2491,102.9619
128.9868,102.1515
129.5271,101.3100
Z" /> 
<path style="fill:#000000; fill-opacity:1.0000; 
stroke:#000000; stroke-width:0.0000; stroke-opacity:1; 
stroke-linecap:round; stroke-linejoin:round;fill-rule:evenodd;"
d="M 129.0606,104.8132
128.5203,105.6547
127.2581,104.8444
127.7983,104.0029
Z" /> 
</g>
<g >
</g>
<g style="fill:#000000; fill-opacity:1.0000; 
stroke:#000000; stroke-width:0.0000; stroke-opacity:1; 
stroke-linecap:round; stroke-linejoin:round;">
<path style="fill:#000000; fill-opacity:1.0000; 
stroke:#000000; stroke-width:0.0000; stroke-opacity:1; 
stroke-linecap:round; stroke-linejoin:round;fill-rule:evenodd;"
d="M 122.4250,87.6680
122.9653,86.8265
124.2275,87.6368
123.6873,88.4783
Z" /> 
<path style="fill:#000000; fill-opacity:1.0000; 
stroke:#000000; stroke-width:0.0000; stroke-opacity:1; 
stroke-linecap:round; stroke-linejoin:round;fill-rule:evenodd;"
d="M 120.6963,90.3608
121.2365,89.5193
122.4988,90.3297
121.9585,91.1712
Z" /> 
<path style="fill:#000000; fill-opacity:1.0000; 
stroke:#000000; stroke-width:0.0000; stroke-opacity:1; 
stroke-linecap:round; stroke-linejoin:round;fill-rule:evenodd;"
d="M 124.8197,93.0080
125.3599,92.1665
126.6222,92.9768
126.0819,93.8183
Z" /> 
<path style="fill:#000000; fill-opacity:1.0000; 
stroke:#000000; stroke-width:0.0000; stroke-opacity:1; 
stroke-linecap:round; stroke-linejoin:round;fill-rule:evenodd;"
d="M 126.5484,90.3151
127.0887,89.4736
128.3509,90.2840
127.8107,91.1255
Z" /> 
</g>
<g >
</g>
<g style="fill:#000000; fill-opacity:1.0000; 
stroke:#000000; stroke-width:0.0000; stroke-opacity:1; 
stroke-linecap:round; stroke-linejoin:round;">
<path style="fill:#000000; fill-opacity:1.0000; 
stroke:#000000; stroke-width:0.0000; stroke-opacity:1; 
stroke-linecap:round; stroke-linejoin:round;fill-rule:evenodd;"
d="M 126.1334,82.3340
126.6737,81.4925
127.9359,82.3028
127.3957,83.1443
Z" /> 
<path style="fill:#000000; fill-opacity:1.0000; 
stroke:#000000; stroke-width:0.0000; stroke-opacity:1; 
stroke-linecap:round; stroke-linejoin:round;fill-rule:evenodd;"
d="M 124.4047,85.0268
124.9449,84.1853
126.2072,84.9957
125.6669,85.8372
Z" /> 
<path style="fill:#000000; fill-opacity:1.0000; 
stroke:#000000; stroke-width:0.0000; stroke-opacity:1; 
stroke-linecap:round; stroke-linejoin:round;fill-rule:evenodd;"
d="M 128.5281,87.6740
129.0683,86.8325
130.3306,87.6428
129.7903,88.4843
Z" /> 
<path style="fill:#000000; fill-opacity:1.0000; 
stroke:#000000; stroke-width:0.0000; stroke-opacity:1; 
stroke-linecap:round; stroke-linejoin:round;fill-rule:evenodd;"
d="M 130.2568,84.9811
130.7971,84.1396
132.0593,84.9500
131.5191,85.7915
Z" /> 
</g>
<g >
</g>
<g >
</g>
<g >
</g>
<g style="fill:#000000; fill-opacity:1.0000; 
stroke:#000000; stroke-width:0.0000; stroke-opacity:1; 
stroke-linecap:round; stroke-linejoin:round;">
<path style="fill:#000000; fill-opacity:1.0000; 
stroke:#000000; stroke-width:0.0000; stroke-opacity:1; 
stroke-linecap:round; stroke-linejoin:round;fill-rule:evenodd;"
d="M 115.0082,98.9964
115.5485,98.1549
116.8107,98.9652
116.2705,99.8067
Z" /> 
<path style="fill:#000000; fill-opacity:1.0000; 
stroke:#000000; stroke-width:0.0000; stroke-opacity:1; 
stroke-linecap:round; stroke-linejoin:round;fill-rule:evenodd;"
d="M 113.2795,101.6892
113.8197,100.8477
115.0820,101.6581
114.5417,102.4996
Z" /> 
<path style="fill:#000000; fill-opacity:1.0000; 
stroke:#000000; stroke-width:0.0000; stroke-opacity:1; 
stroke-linecap:round; stroke-linejoin:round;fill-rule:evenodd;"
d="M 117.4029,104.3364
117.9431,103.4949
119.2054,104.3052
118.6651,105.1467
Z" /> 
<path style="fill:#000000; fill-opacity:1.0000; 
stroke:#000000; stroke-width:0.0000; stroke-opacity:1; 
stroke-linecap:round; stroke-linejoin:round;fill-rule:evenodd;"
d="M 119.1316,101.6435
119.6719,100.8020
120.9341,101.6124
120.3939,102.4539
Z" /> 
</g>
<g >
</g>
<g style="fill:#000000; fill-opacity:1.0000; 
stroke:#000000; stroke-width:0.0000; stroke-opacity:1; 
stroke-linecap:round; stroke-linejoin:round;">
<path style="fill:#000000; fill-opacity:1.0000; 
stroke:#000000; stroke-width:0.0000; stroke-opacity:1; 
stroke-linecap:round; stroke-linejoin:round;fill-rule:evenodd;"
d="M 118.7385,93.3292
119.2788,92.4877
120.5410,93.2980
120.0008,94.1395
Z" /> 
<path style="fill:#000000; fill-opacity:1.0000; 
stroke:#000000; stroke-width:0.0000; stroke-opacity:1; 
stroke-linecap:round; stroke-linejoin:round;fill-rule:evenodd;"
d="M 117.0097,96.0220
117.5500,95.1805
118.8122,95.9908
118.2720,96.8324
Z" /> 
<path style="fill:#000000; fill-opacity:1.0000; 
stroke:#000000; stroke-width:0.0000; stroke-opacity:1; 
stroke-linecap:round; stroke-linejoin:round;fill-rule:evenodd;"
d="M 121.1331,98.6692
121.6734,97.8277
122.9357,98.6380
122.3954,99.4795
Z" /> 
<path style="fill:#000000; fill-opacity:1.0000; 
stroke:#000000; stroke-width:0.0000; stroke-opacity:1; 
stroke-linecap:round; stroke-linejoin:round;fill-rule:evenodd;"
d="M 122.8619,95.9763
123.4022,95.1348
124.6644,95.9452
124.1242,96.7867
Z" /> 
</g>
<g >
</g>
<g style="fill:#000000; fill-opacity:1.0000; 
stroke:#000000; stroke-width:0.0000; stroke-opacity:1; 
stroke-linecap:round; stroke-linejoin:round;">
<path style="fill:#000000; fill-opacity:1.0000; 
stroke:#000000; stroke-width:0.0000; stroke-opacity:1; 
stroke-linecap:round; stroke-linejoin:round;fill-rule:evenodd;"
d="M 106.2298,84.4142
106.2488,84.3185
106.3030,84.2374
106.3841,84.1832
106.4798,84.1642
107.1048,84.1642
107.2005,84.1832
107.2816,84.2374
107.3358,84.3185
107.3548,84.4142
107.3548,85.6642
107.3358,85.7599
107.2816,85.8410
107.2005,85.8952
107.1048,85.9142
106.4798,85.9142
106.3841,85.8952
106.3030,85.8410
106.2488,85.7599
106.2298,85.6642
Z" /> 
<path style="fill:#000000; fill-opacity:1.0000; 
stroke:#000000; stroke-width:0.0000; stroke-opacity:1; 
stroke-linecap:round; stroke-linejoin:round;fill-rule:evenodd;"
d="M 109.1548,84.4142
109.1738,84.3185
109.2280,84.2374
109.3091,84.1832
109.4048,84.1642
110.0298,84.1642
110.1255,84.1832
110.2066,84.2374
110.2608,84.3185
110.2798,84.4142
110.2798,85.6642
110.2608,85.7599
110.2066,85.8410
110.1255,85.8952
110.0298,85.9142
109.4048,85.9142
109.3091,85.8952
109.2280,85.8410
109.1738,85.7599
109.1548,85.6642
Z" /> 
</g>
<g >
</g>
<g style="fill:#000000; fill-opacity:1.0000; 
stroke:#000000; stroke-width:0.0000; stroke-opacity:1; 
stroke-linecap:round; stroke-linejoin:round;">
<path style="fill:#000000; fill-opacity:1.0000; 
stroke:#000000; stroke-width:0.0000; stroke-opacity:1; 
stroke-linecap:round; stroke-linejoin:round;fill-rule:evenodd;"
d="M 132.8198,99.1236
132.2795,99.9651
131.0173,99.1548
131.5575,98.3133
Z" /> 
<path style="fill:#000000; fill-opacity:1.0000; 
stroke:#000000; stroke-width:0.0000; stroke-opacity:1; 
stroke-linecap:round; stroke-linejoin:round;fill-rule:evenodd;"
d="M 134.5485,96.4308
134.0083,97.2723
132.7460,96.4619
133.2863,95.6204
Z" /> 
<path style="fill:#000000; fill-opacity:1.0000; 
stroke:#000000; stroke-width:0.0000; stroke-opacity:1; 
stroke-linecap:round; stroke-linejoin:round;fill-rule:evenodd;"
d="M 130.4251,93.7836
129.8849,94.6251
128.6226,93.8148
129.1629,92.9733
Z" /> 
<path style="fill:#000000; fill-opacity:1.0000; 
stroke:#000000; stroke-width:0.0000; stroke-opacity:1; 
stroke-linecap:round; stroke-linejoin:round;fill-rule:evenodd;"
d="M 128.6964,96.4765
128.1561,97.3180
126.8939,96.5076
127.4341,95.6661
Z" /> 
</g>
<g >
</g>
<g style="fill:#000000; fill-opacity:1.0000; 
stroke:#000000; stroke-width:0.0000; stroke-opacity:1; 
stroke-linecap:round; stroke-linejoin:round;">
<path style="fill:#000000; fill-opacity:1.0000; 
stroke:#000000; stroke-width:0.0000; stroke-opacity:1; 
stroke-linecap:round; stroke-linejoin:round;fill-rule:evenodd;"
d="M 116.5130,93.5864
115.9727,94.4279
114.7105,93.6176
115.2507,92.7761
Z" /> 
<path style="fill:#000000; fill-opacity:1.0000; 
stroke:#000000; stroke-width:0.0000; stroke-opacity:1; 
stroke-linecap:round; stroke-linejoin:round;fill-rule:evenodd;"
d="M 118.2417,90.8936
117.7015,91.7351
116.4392,90.9247
116.9795,90.0832
Z" /> 
<path style="fill:#000000; fill-opacity:1.0000; 
stroke:#000000; stroke-width:0.0000; stroke-opacity:1; 
stroke-linecap:round; stroke-linejoin:round;fill-rule:evenodd;"
d="M 114.1183,88.2464
113.5781,89.0879
112.3158,88.2776
112.8561,87.4361
Z" /> 
<path style="fill:#000000; fill-opacity:1.0000; 
stroke:#000000; stroke-width:0.0000; stroke-opacity:1; 
stroke-linecap:round; stroke-linejoin:round;fill-rule:evenodd;"
d="M 112.3896,90.9393
111.8493,91.7808
110.5871,90.9704
111.1273,90.1289
Z" /> 
</g>
<g >
</g>
<g >
</g>
<g >
</g>
</g>
<g style="fill:#000000; fill-opacity:1.0000; 
stroke:#000000; stroke-width:0.0000; stroke-opacity:1; 
stroke-linecap:round; stroke-linejoin:round;">
</g>
<g style="fill:#000000; fill-opacity:0.0; 
stroke:#000000; stroke-width:0.2000; stroke-opacity:1; 
stroke-linecap:round; stroke-linejoin:round;">
<path d="M134.9824,79.2206 C137.0263,79.2206 137.3955,79.2207 137.8893,79.2877" />
<path d="M144.2720,88.6460 C144.2720,92.3080 144.2720,95.9699 144.2720,99.6319" />
<path d="M115.1378,107.9414 C113.4958,107.8532 111.6467,107.4714 109.7849,106.5947" />
<path d="M139.1842,107.5991 C137.8452,108.0341 137.4368,107.9616 133.6836,107.9616" />
<path d="M133.6836,107.9616 C132.0563,107.9616 130.9560,107.9616 129.5142,107.9616" />
<path d="M129.5142,107.9616 C126.6481,107.9616 123.2162,107.9617 120.9017,107.9617" />
<path d="M144.2417,101.2547 C144.1830,101.8994 144.0125,102.8841 143.4526,103.9683" />
<path d="M142.7415,82.0947 C143.1353,82.6070 143.6958,83.4625 144.0228,84.6922" />
<path d="M140.5831,80.2063 C141.1795,80.5505 141.9994,81.1293 142.7415,82.0947" />
<path d="M143.4526,103.9683 C143.1536,104.5473 142.6208,105.4012 141.6874,106.1967" />
<path d="M144.0228,84.6922 C144.3078,85.7640 144.2720,86.2337 144.2720,88.6460" />
<path d="M105.3420,103.3385 C104.1869,102.0857 103.1474,100.5080 102.4455,98.6349" />
<path d="M120.9017,107.9617 C115.8052,107.9618 115.5198,107.9619 115.1378,107.9414" />
<path d="M101.5370,93.1887 C101.5896,91.3466 101.9992,89.5090 102.7440,87.8134" />
<path d="M102.4455,98.6349 C101.8336,97.0017 101.4810,95.1541 101.5370,93.1887" />
<path d="M110.4949,80.2767 C112.2068,79.5816 114.0548,79.2207 115.9016,79.2207" />
<path d="M141.6874,106.1967 C141.2074,106.6058 140.3826,107.2098 139.1842,107.5991" />
<path d="M105.8805,83.2910 C107.2051,82.0026 108.7816,80.9724 110.4949,80.2767" />
<path d="M109.7849,106.5947 C108.3045,105.8975 106.7367,104.8511 105.3420,103.3385" />
<path d="M102.7440,87.8134 C103.4852,86.1260 104.5559,84.5793 105.8805,83.2910" />
<path d="M115.9016,79.2207 C121.8837,79.2207 129.0079,79.2206 134.9824,79.2206" />
<path d="M144.2720,99.6319 C144.2720,100.6745 144.2720,100.9223 144.2417,101.2547" />
<path d="M137.8893,79.2877 C138.5614,79.3789 139.5311,79.5991 140.5831,80.2063" />
<g >
</g>
<g >
</g>
<g >
</g>
<g >
</g>
<g >
</g>
<g >
</g>
<g >
</g>
<g >
</g>
<g >
</g>
<g >
</g>
<g >
</g>
<g >
</g>
<g >
</g>
<g >
</g>
</g> 
</svg>
