0
SECTION
2
HEADER
9
$INSUNITS
70
4
9
$ACADVER
1
AC1014
9
$HANDSEED
5
FFFF
0
ENDSEC
0
SECTION
2
TABLES
0
TABLE
2
VPORT
5
8
100
AcDbSymbolTable
0
ENDTAB
0
TABLE
2
LTYPE
5
5
100
AcDbSymbolTable
0
LTYPE
5
14
100
AcDbSymbolTableRecord
100
AcDbLinetypeTableRecord
2
BYBLOCK
70
0
0
LTYPE
5
15
100
AcDbSymbolTableRecord
100
AcDbLinetypeTableRecord
2
BYLAYER
70
0
0
ENDTAB
0
TABLE
2
LAYER
5
2
100
AcDbSymbolTable
70
2
0
LAYER
5
50
100
AcDbSymbolTableRecord
100
AcDbLayerTableRecord
2
0
70
0
6
CONTINUOUS
0
ENDTAB
0
TABLE
2
STYLE
5
3
100
AcDbSymbolTable
70
1
0
STYLE
5
11
100
AcDbSymbolTableRecord
100
AcDbTextStyleTableRecord
2
STANDARD
70
0
0
ENDTAB
0
TABLE
2
VIEW
5
6
100
AcDbSymbolTable
70
0
0
ENDTAB
0
TABLE
2
UCS
5
7
100
AcDbSymbolTable
70
0
0
ENDTAB
0
TABLE
2
APPID
5
9
100
AcDbSymbolTable
70
2
0
APPID
5
12
100
AcDbSymbolTableRecord
100
AcDbRegAppTableRecord
2
ACAD
70
0
0
ENDTAB
0
TABLE
2
DIMSTYLE
5
A
100
AcDbSymbolTable
70
1
0
ENDTAB
0
TABLE
2
BLOCK_RECORD
5
1
100
AcDbSymbolTable
70
1
0
BLOCK_RECORD
5
1F
100
AcDbSymbolTableRecord
100
AcDbBlockTableRecord
2
*MODEL_SPACE
0
BLOCK_RECORD
5
1B
100
AcDbSymbolTableRecord
100
AcDbBlockTableRecord
2
*PAPER_SPACE
0
ENDTAB
0
ENDSEC
0
SECTION
2
BLOCKS
0
BLOCK
5
20
100
AcDbEntity
100
AcDbBlockBegin
2
*MODEL_SPACE
0
ENDBLK
5
21
100
AcDbEntity
100
AcDbBlockEnd
0
BLOCK
5
1C
100
AcDbEntity
100
AcDbBlockBegin
2
*PAPER_SPACE
0
ENDBLK
5
1D
100
AcDbEntity
100
AcDbBlockEnd
0
ENDSEC
0
SECTION
2
ENTITIES
0
LWPOLYLINE
5
100
100
AcDbEntity
8
0
100
AcDbPolyline
90
24
70
1
43
0.0
10
126.67947566901012
20
-113.91299832281709
10
148.00047566901284
20
-113.91299832281616
42
0.41421356237308038
10
151.20047566901286
20
-110.71299832281632
10
151.20047566901476
20
110.71299832281593
42
0.41421356237310969
10
148.00047566902356
20
113.91299832280728
10
126.67947566901171
20
113.91299832281517
42
-0.41421356237309503
10
106.87947566901184
20
133.71299832281534
10
106.87947566901192
20
147.99999832280292
42
0.41421356237308038
10
103.67947566901209
20
151.19999832280294
10
-103.67947566900968
20
151.19999832280439
42
0.41421356237310969
10
-106.87947566899977
20
147.99999832281452
10
-106.87947566900996
20
133.71299832281682
42
-0.41421356237309503
10
-126.67947566901013
20
113.91299832281695
10
-148.00047566901205
20
113.91299832281709
42
0.41421356237308038
10
-151.20047566901206
20
110.71299832281726
10
-151.20047566901553
20
-110.71299832281498
42
0.41421356237310969
10
-148.00047566902438
20
-113.91299832280636
10
-126.67947566901171
20
-113.91299832281531
42
-0.41421356237309503
10
-106.87947566901184
20
-133.71299832281548
10
-106.87947566901089
20
-147.9999983228038
42
0.41421356237307877
10
-103.67947566901105
20
-151.19999832280376
10
103.67947566901073
20
-151.19999832280376
42
0.41421356237310969
10
106.8794756690008
20
-147.99999832281387
10
106.87947566900996
20
-133.71299832281696
42
-0.41421356237309453
0
CIRCLE
5
101
100
AcDbEntity
8
0
100
AcDbCircle
10
-147.50047339179315
20
-64.249992196681518
30
2.5620544709888627e-13
40
1.6999999999999993
210
2.6645352591003895e-15
220
4.7055810576568313e-16
230
-1
0
CIRCLE
5
102
100
AcDbEntity
8
0
100
AcDbCircle
10
-147.50047339178818
20
64.250007803318539
30
2.7300325123571696e-13
40
1.7000000000000171
210
2.3684757858670139e-15
220
4.7055810576568313e-16
230
-1
0
CIRCLE
5
103
100
AcDbEntity
8
0
100
AcDbCircle
10
64.22637767396283
20
-147.49999999999625
30
7.0117429672938419e-13
40
1.7000000000000082
210
6.8093678843676428e-15
220
4.7055810576568313e-16
230
-1
0
CIRCLE
5
104
100
AcDbEntity
8
0
100
AcDbCircle
10
-64.273622326037213
20
-147.5000000000025
30
7.2352678695850357e-13
40
1.6999999999999993
210
6.8093678843676412e-15
220
4.7055810576568313e-16
230
-1
0
CIRCLE
5
105
100
AcDbEntity
8
0
100
AcDbCircle
10
147.5004733917886
20
-64.250007803317629
30
2.4276988926835339e-13
40
1.7000000000000171
210
-2.3684757858669894e-15
220
1.6516775203064935e-29
230
-1
0
CIRCLE
5
106
100
AcDbEntity
8
0
100
AcDbCircle
10
147.5004733917927
20
64.249992196682427
30
2.8643880172241304e-13
40
1.6999999999999993
210
-2.664535259100365e-15
220
1.8587535079270091e-29
230
-1
0
CIRCLE
5
107
100
AcDbEntity
8
0
100
AcDbCircle
10
64.27362232603619
20
147.50000000000281
30
7.2187983398293129e-13
40
1.6999999999999993
210
-6.809367884367616e-15
220
4.7528869539565961e-29
230
-1
0
CIRCLE
5
108
100
AcDbEntity
8
0
100
AcDbCircle
10
-64.226377673963867
20
147.49999999999571
30
6.9952734375381241e-13
40
1.7000000000000082
210
-6.8093678843676176e-15
220
4.7528869539565961e-29
230
-1
0
ENDSEC
0
SECTION
2
OBJECTS
0
DICTIONARY
5
C
100
AcDbDictionary
3
ACAD_GROUP
350
D
3
ACAD_MLINESTYLE
350
17
0
DICTIONARY
5
D
100
AcDbDictionary
0
DICTIONARY
5
1A
330
C
100
AcDbDictionary
0
DICTIONARY
5
17
100
AcDbDictionary
0
ENDSEC
0
EOF
