G04 #@! TF.GenerationSoftware,KiCad,Pcbnew,7.0.2-0*
G04 #@! TF.CreationDate,2023-12-21T10:07:40-08:00*
G04 #@! TF.ProjectId,MM Skirt,4d4d2053-6b69-4727-942e-6b696361645f,rev?*
G04 #@! TF.SameCoordinates,Original*
G04 #@! TF.FileFunction,Soldermask,Top*
G04 #@! TF.FilePolarity,Negative*
%FSLAX46Y46*%
G04 Gerber Fmt 4.6, Leading zero omitted, Abs format (unit mm)*
G04 Created by KiCad (PCBNEW 7.0.2-0) date 2023-12-21 10:07:40*
%MOMM*%
%LPD*%
G01*
G04 APERTURE LIST*
G04 Aperture macros list*
%AMRoundRect*
0 Rectangle with rounded corners*
0 $1 Rounding radius*
0 $2 $3 $4 $5 $6 $7 $8 $9 X,Y pos of 4 corners*
0 Add a 4 corners polygon primitive as box body*
4,1,4,$2,$3,$4,$5,$6,$7,$8,$9,$2,$3,0*
0 Add four circle primitives for the rounded corners*
1,1,$1+$1,$2,$3*
1,1,$1+$1,$4,$5*
1,1,$1+$1,$6,$7*
1,1,$1+$1,$8,$9*
0 Add four rect primitives between the rounded corners*
20,1,$1+$1,$2,$3,$4,$5,0*
20,1,$1+$1,$4,$5,$6,$7,0*
20,1,$1+$1,$6,$7,$8,$9,0*
20,1,$1+$1,$8,$9,$2,$3,0*%
%AMRotRect*
0 Rectangle, with rotation*
0 The origin of the aperture is its center*
0 $1 length*
0 $2 width*
0 $3 Rotation angle, in degrees counterclockwise*
0 Add horizontal line*
21,1,$1,$2,0,0,$3*%
G04 Aperture macros list end*
%ADD10RotRect,1.500000X1.000000X147.300000*%
%ADD11RotRect,1.500000X1.000000X327.300000*%
%ADD12RoundRect,0.250000X-0.312500X-0.625000X0.312500X-0.625000X0.312500X0.625000X-0.312500X0.625000X0*%
%ADD13RoundRect,0.250000X-0.725000X0.600000X-0.725000X-0.600000X0.725000X-0.600000X0.725000X0.600000X0*%
%ADD14O,1.950000X1.700000*%
%ADD15RoundRect,0.250000X0.725000X-0.600000X0.725000X0.600000X-0.725000X0.600000X-0.725000X-0.600000X0*%
G04 APERTURE END LIST*
D10*
X119320117Y-87658406D03*
X121048886Y-84965572D03*
X116925483Y-82318394D03*
X115196714Y-85011228D03*
D11*
X127034683Y-82318394D03*
X125305914Y-85011228D03*
X129429317Y-87658406D03*
X131158086Y-84965572D03*
X115909483Y-98980794D03*
X114180714Y-101673628D03*
X118304117Y-104320806D03*
X120032886Y-101627972D03*
D10*
X128159317Y-104828806D03*
X129888086Y-102135972D03*
X125764683Y-99488794D03*
X124035914Y-102181628D03*
X131918517Y-99139206D03*
X133647286Y-96446372D03*
X129523883Y-93799194D03*
X127795114Y-96492028D03*
D11*
X119639766Y-93313588D03*
X117910997Y-96006422D03*
X122034400Y-98653600D03*
X123763169Y-95960766D03*
D12*
X106792300Y-85039200D03*
X109717300Y-85039200D03*
D11*
X123326283Y-87652394D03*
X121597514Y-90345228D03*
X125720917Y-92992406D03*
X127449686Y-90299572D03*
D10*
X115611717Y-93602006D03*
X117340486Y-90909172D03*
X113217083Y-88261994D03*
X111488314Y-90954828D03*
D13*
X140191000Y-90464000D03*
D14*
X140191000Y-92964000D03*
X140191000Y-95464000D03*
D15*
X106680000Y-95464000D03*
D14*
X106680000Y-92964000D03*
X106680000Y-90464000D03*
M02*
