G04 #@! TF.GenerationSoftware,KiCad,Pcbnew,7.0.2-0*
G04 #@! TF.CreationDate,2023-12-21T10:07:40-08:00*
G04 #@! TF.ProjectId,MM Skirt,4d4d2053-6b69-4727-942e-6b696361645f,rev?*
G04 #@! TF.SameCoordinates,Original*
G04 #@! TF.FileFunction,Profile,NP*
%FSLAX46Y46*%
G04 Gerber Fmt 4.6, Leading zero omitted, Abs format (unit mm)*
G04 Created by KiCad (PCBNEW 7.0.2-0) date 2023-12-21 10:07:40*
%MOMM*%
%LPD*%
G01*
G04 APERTURE LIST*
%ADD10C,0.200000*%
G04 APERTURE END LIST*
D10*
X134982428Y-79220625D02*
X135346475Y-79220645D01*
X135673906Y-79220765D01*
X135967356Y-79221080D01*
X136229461Y-79221690D01*
X136462857Y-79222692D01*
X136670180Y-79224185D01*
X136938044Y-79227559D01*
X137162071Y-79232588D01*
X137407961Y-79242442D01*
X137612822Y-79256612D01*
X137843330Y-79281591D01*
X137889318Y-79287679D01*
X144272000Y-88646000D02*
X144271999Y-88989308D01*
X144271999Y-89332616D01*
X144271999Y-89675925D01*
X144271999Y-90019233D01*
X144271999Y-90362541D01*
X144272000Y-90705850D01*
X144272000Y-91049158D01*
X144272000Y-91392467D01*
X144272000Y-91735775D01*
X144272000Y-92079084D01*
X144272000Y-92422392D01*
X144272000Y-92765700D01*
X144272001Y-93109009D01*
X144272001Y-93452317D01*
X144272001Y-93795626D01*
X144272001Y-94138934D01*
X144272000Y-94482243D01*
X144272000Y-94825551D01*
X144272000Y-95168859D01*
X144271999Y-95512168D01*
X144271999Y-95855476D01*
X144271998Y-96198785D01*
X144271998Y-96542093D01*
X144271997Y-96885402D01*
X144271996Y-97228710D01*
X144271994Y-97572019D01*
X144271993Y-97915327D01*
X144271992Y-98258636D01*
X144271990Y-98601944D01*
X144271988Y-98945253D01*
X144271986Y-99288561D01*
X144271984Y-99631870D01*
X115137759Y-107941362D02*
X114827504Y-107921342D01*
X114512682Y-107894145D01*
X114193577Y-107859478D01*
X113870473Y-107817044D01*
X113543654Y-107766548D01*
X113213405Y-107707696D01*
X112880011Y-107640193D01*
X112543756Y-107563744D01*
X112204925Y-107478052D01*
X111863802Y-107382825D01*
X111520672Y-107277765D01*
X111175819Y-107162579D01*
X110829528Y-107036972D01*
X110482083Y-106900648D01*
X110133769Y-106753312D01*
X109784871Y-106594670D01*
X139184167Y-107599104D02*
X138942963Y-107674851D01*
X138717308Y-107739555D01*
X138500939Y-107794065D01*
X138287594Y-107839230D01*
X138071009Y-107875901D01*
X137844922Y-107904925D01*
X137603069Y-107927154D01*
X137339189Y-107943436D01*
X137047018Y-107954622D01*
X136720293Y-107961560D01*
X136352753Y-107965101D01*
X136151719Y-107965863D01*
X135938133Y-107966094D01*
X135711212Y-107965900D01*
X135470172Y-107965388D01*
X135214231Y-107964664D01*
X134942606Y-107963833D01*
X134654515Y-107963003D01*
X134349174Y-107962279D01*
X134025800Y-107961768D01*
X133683611Y-107961576D01*
X133683611Y-107961576D02*
X133384447Y-107961577D01*
X133096365Y-107961579D01*
X132818092Y-107961581D01*
X132548356Y-107961583D01*
X132285885Y-107961585D01*
X132029405Y-107961587D01*
X131777644Y-107961589D01*
X131529329Y-107961591D01*
X131283189Y-107961594D01*
X131037950Y-107961596D01*
X130792340Y-107961598D01*
X130545086Y-107961601D01*
X130294915Y-107961604D01*
X130040556Y-107961606D01*
X129780736Y-107961609D01*
X129514182Y-107961613D01*
X129514182Y-107961613D02*
X129243883Y-107961616D01*
X128970577Y-107961619D01*
X128694572Y-107961623D01*
X128416176Y-107961626D01*
X128135697Y-107961630D01*
X127853444Y-107961634D01*
X127569724Y-107961638D01*
X127284846Y-107961642D01*
X126999118Y-107961646D01*
X126712848Y-107961650D01*
X126426345Y-107961655D01*
X126139916Y-107961659D01*
X125853870Y-107961664D01*
X125568516Y-107961668D01*
X125284160Y-107961673D01*
X125001112Y-107961677D01*
X124719680Y-107961682D01*
X124440172Y-107961686D01*
X124162896Y-107961691D01*
X123888161Y-107961696D01*
X123616274Y-107961700D01*
X123347543Y-107961705D01*
X123082278Y-107961709D01*
X122820786Y-107961714D01*
X122563376Y-107961718D01*
X122310355Y-107961723D01*
X122062032Y-107961727D01*
X121818715Y-107961732D01*
X121580713Y-107961736D01*
X121348333Y-107961740D01*
X121121884Y-107961744D01*
X120901674Y-107961749D01*
X144241694Y-101254748D02*
X144213890Y-101511963D01*
X144184204Y-101724098D01*
X144145423Y-101951389D01*
X144096173Y-102192648D01*
X144035081Y-102446687D01*
X143960776Y-102712317D01*
X143871885Y-102988349D01*
X143803843Y-103177563D01*
X143728301Y-103370520D01*
X143644852Y-103566868D01*
X143553091Y-103766254D01*
X143452611Y-103968328D01*
X142741516Y-82094725D02*
X142896226Y-82302992D01*
X143019693Y-82480523D01*
X143147334Y-82676508D01*
X143277170Y-82891101D01*
X143407222Y-83124456D01*
X143535512Y-83376725D01*
X143660061Y-83648064D01*
X143740038Y-83839626D01*
X143816887Y-84039777D01*
X143890022Y-84248562D01*
X143958856Y-84466028D01*
X144022803Y-84692219D01*
X140583146Y-80206327D02*
X140756517Y-80309446D01*
X140940188Y-80425686D01*
X141132669Y-80555800D01*
X141332469Y-80700538D01*
X141538098Y-80860654D01*
X141748067Y-81036898D01*
X141960885Y-81230023D01*
X142175063Y-81440781D01*
X142317867Y-81591453D01*
X142460171Y-81750519D01*
X142601535Y-81918202D01*
X142741516Y-82094725D01*
X143452611Y-103968328D02*
X143329212Y-104197679D01*
X143221099Y-104384258D01*
X143098730Y-104581489D01*
X142961282Y-104787724D01*
X142807929Y-105001316D01*
X142637847Y-105220616D01*
X142450212Y-105443976D01*
X142314964Y-105594325D01*
X142171304Y-105745258D01*
X142018988Y-105896286D01*
X141857771Y-106046921D01*
X141687411Y-106196676D01*
X144022803Y-84692219D02*
X144072564Y-84886739D01*
X144134253Y-85160215D01*
X144181965Y-85422911D01*
X144217462Y-85687405D01*
X144242507Y-85966279D01*
X144254268Y-86166397D01*
X144262689Y-86382224D01*
X144268293Y-86617488D01*
X144271602Y-86875917D01*
X144273138Y-87161239D01*
X144273423Y-87477180D01*
X144272980Y-87827469D01*
X144272332Y-88215833D01*
X144272093Y-88425458D01*
X144272000Y-88646000D01*
X105341963Y-103338474D02*
X105126795Y-103099778D01*
X104914662Y-102853511D01*
X104705888Y-102599716D01*
X104500799Y-102338436D01*
X104299720Y-102069714D01*
X104102976Y-101793593D01*
X103910892Y-101510117D01*
X103723795Y-101219328D01*
X103542008Y-100921270D01*
X103365859Y-100615985D01*
X103195671Y-100303518D01*
X103031770Y-99983911D01*
X102874482Y-99657208D01*
X102724132Y-99323451D01*
X102581044Y-98982684D01*
X102445546Y-98634950D01*
X120901674Y-107961749D02*
X120437828Y-107961757D01*
X120001274Y-107961761D01*
X119591111Y-107961757D01*
X119206442Y-107961741D01*
X118846367Y-107961710D01*
X118509989Y-107961660D01*
X118196409Y-107961587D01*
X117904727Y-107961487D01*
X117634046Y-107961358D01*
X117383467Y-107961193D01*
X117152092Y-107960991D01*
X116939021Y-107960748D01*
X116564198Y-107960121D01*
X116251812Y-107959282D01*
X115994672Y-107958202D01*
X115785591Y-107956851D01*
X115546353Y-107954249D01*
X115328478Y-107949550D01*
X115137759Y-107941362D01*
X101537039Y-93188738D02*
X101551072Y-92843418D01*
X101573441Y-92498407D01*
X101604113Y-92153905D01*
X101643058Y-91810114D01*
X101690242Y-91467236D01*
X101745634Y-91125471D01*
X101809203Y-90785021D01*
X101880915Y-90446088D01*
X101960740Y-90108872D01*
X102048646Y-89773575D01*
X102144600Y-89440399D01*
X102248571Y-89109544D01*
X102360526Y-88781212D01*
X102480435Y-88455605D01*
X102608264Y-88132923D01*
X102743983Y-87813369D01*
X102445546Y-98634950D02*
X102333873Y-98326220D01*
X102228499Y-98012609D01*
X102129642Y-97694260D01*
X102037520Y-97371314D01*
X101952353Y-97043911D01*
X101874360Y-96712192D01*
X101803758Y-96376300D01*
X101740766Y-96036375D01*
X101685603Y-95692558D01*
X101638488Y-95344991D01*
X101599639Y-94993814D01*
X101569274Y-94639170D01*
X101547614Y-94281199D01*
X101534875Y-93920042D01*
X101531277Y-93555841D01*
X101537039Y-93188738D01*
X110494853Y-80276714D02*
X110817409Y-80150296D01*
X111142952Y-80031752D01*
X111471279Y-79921120D01*
X111802191Y-79818440D01*
X112135486Y-79723750D01*
X112470964Y-79637089D01*
X112808424Y-79558497D01*
X113147664Y-79488012D01*
X113488486Y-79425674D01*
X113830686Y-79371521D01*
X114174066Y-79325592D01*
X114518423Y-79287927D01*
X114863558Y-79258565D01*
X115209269Y-79237544D01*
X115555356Y-79224904D01*
X115901618Y-79220684D01*
X141687411Y-106196676D02*
X141491183Y-106358423D01*
X141322598Y-106488840D01*
X141135500Y-106624812D01*
X140929745Y-106764313D01*
X140705191Y-106905317D01*
X140461695Y-107045799D01*
X140199113Y-107183733D01*
X140013384Y-107273273D01*
X139819068Y-107360181D01*
X139616121Y-107443855D01*
X139404502Y-107523696D01*
X139184167Y-107599104D01*
X105880473Y-83290990D02*
X106131766Y-83052455D01*
X106388793Y-82820086D01*
X106651386Y-82593992D01*
X106919375Y-82374286D01*
X107192592Y-82161079D01*
X107470869Y-81954483D01*
X107754037Y-81754610D01*
X108041927Y-81561572D01*
X108334372Y-81375480D01*
X108631203Y-81196445D01*
X108932251Y-81024581D01*
X109237347Y-80859998D01*
X109546324Y-80702808D01*
X109859013Y-80553123D01*
X110175245Y-80411054D01*
X110494853Y-80276714D01*
X109784871Y-106594670D02*
X109506340Y-106459837D01*
X109226141Y-106316646D01*
X108944655Y-106164927D01*
X108662265Y-106004508D01*
X108379352Y-105835217D01*
X108096297Y-105656884D01*
X107813483Y-105469336D01*
X107531291Y-105272402D01*
X107250102Y-105065911D01*
X106970300Y-104849691D01*
X106692265Y-104623571D01*
X106416379Y-104387380D01*
X106143024Y-104140946D01*
X105872582Y-103884098D01*
X105605434Y-103616664D01*
X105341963Y-103338474D01*
X102743983Y-87813369D02*
X102886801Y-87498664D01*
X103037231Y-87187430D01*
X103195163Y-86879838D01*
X103360486Y-86576061D01*
X103533088Y-86276271D01*
X103712859Y-85980640D01*
X103899688Y-85689341D01*
X104093464Y-85402545D01*
X104294077Y-85120426D01*
X104501415Y-84843155D01*
X104715368Y-84570904D01*
X104935824Y-84303847D01*
X105162674Y-84042154D01*
X105395806Y-83785999D01*
X105635109Y-83535553D01*
X105880473Y-83290990D01*
X115901618Y-79220684D02*
X116465714Y-79220683D01*
X117036082Y-79220681D01*
X117612303Y-79220679D01*
X118193957Y-79220676D01*
X118780625Y-79220673D01*
X119371886Y-79220669D01*
X119967321Y-79220665D01*
X120566511Y-79220661D01*
X121169036Y-79220657D01*
X121774476Y-79220652D01*
X122382411Y-79220648D01*
X122992423Y-79220643D01*
X123604091Y-79220638D01*
X124216997Y-79220633D01*
X124830719Y-79220629D01*
X125444839Y-79220624D01*
X126058937Y-79220620D01*
X126672593Y-79220616D01*
X127285388Y-79220613D01*
X127896902Y-79220610D01*
X128506716Y-79220607D01*
X129114410Y-79220605D01*
X129719564Y-79220603D01*
X130321758Y-79220602D01*
X130920574Y-79220602D01*
X131515591Y-79220603D01*
X132106391Y-79220604D01*
X132692552Y-79220606D01*
X133273656Y-79220609D01*
X133849283Y-79220613D01*
X134419013Y-79220618D01*
X134982428Y-79220625D01*
X144271984Y-99631870D02*
X144271957Y-99904887D01*
X144271781Y-100140335D01*
X144271305Y-100342562D01*
X144269948Y-100568035D01*
X144266587Y-100793395D01*
X144259201Y-101007560D01*
X144244445Y-101223805D01*
X144241694Y-101254748D01*
X137889318Y-79287679D02*
X138154867Y-79328423D01*
X138370823Y-79368739D01*
X138599993Y-79418836D01*
X138841312Y-79479988D01*
X139093716Y-79553473D01*
X139356140Y-79640566D01*
X139627521Y-79742541D01*
X139812892Y-79819423D01*
X140001455Y-79903865D01*
X140192895Y-79996244D01*
X140386897Y-80096938D01*
X140583146Y-80206327D01*
M02*
