G04 #@! TF.GenerationSoftware,KiCad,Pcbnew,7.0.2-0*
G04 #@! TF.CreationDate,2023-12-21T10:07:39-08:00*
G04 #@! TF.ProjectId,MM Skirt,4d4d2053-6b69-4727-942e-6b696361645f,rev?*
G04 #@! TF.SameCoordinates,Original*
G04 #@! TF.FileFunction,Copper,L1,Top*
G04 #@! TF.FilePolarity,Positive*
%FSLAX46Y46*%
G04 Gerber Fmt 4.6, Leading zero omitted, Abs format (unit mm)*
G04 Created by KiCad (PCBNEW 7.0.2-0) date 2023-12-21 10:07:39*
%MOMM*%
%LPD*%
G01*
G04 APERTURE LIST*
G04 Aperture macros list*
%AMRoundRect*
0 Rectangle with rounded corners*
0 $1 Rounding radius*
0 $2 $3 $4 $5 $6 $7 $8 $9 X,Y pos of 4 corners*
0 Add a 4 corners polygon primitive as box body*
4,1,4,$2,$3,$4,$5,$6,$7,$8,$9,$2,$3,0*
0 Add four circle primitives for the rounded corners*
1,1,$1+$1,$2,$3*
1,1,$1+$1,$4,$5*
1,1,$1+$1,$6,$7*
1,1,$1+$1,$8,$9*
0 Add four rect primitives between the rounded corners*
20,1,$1+$1,$2,$3,$4,$5,0*
20,1,$1+$1,$4,$5,$6,$7,0*
20,1,$1+$1,$6,$7,$8,$9,0*
20,1,$1+$1,$8,$9,$2,$3,0*%
%AMRotRect*
0 Rectangle, with rotation*
0 The origin of the aperture is its center*
0 $1 length*
0 $2 width*
0 $3 Rotation angle, in degrees counterclockwise*
0 Add horizontal line*
21,1,$1,$2,0,0,$3*%
G04 Aperture macros list end*
G04 #@! TA.AperFunction,SMDPad,CuDef*
%ADD10RotRect,1.500000X1.000000X147.300000*%
G04 #@! TD*
G04 #@! TA.AperFunction,SMDPad,CuDef*
%ADD11RotRect,1.500000X1.000000X327.300000*%
G04 #@! TD*
G04 #@! TA.AperFunction,SMDPad,CuDef*
%ADD12RoundRect,0.250000X-0.312500X-0.625000X0.312500X-0.625000X0.312500X0.625000X-0.312500X0.625000X0*%
G04 #@! TD*
G04 #@! TA.AperFunction,ComponentPad*
%ADD13RoundRect,0.250000X-0.725000X0.600000X-0.725000X-0.600000X0.725000X-0.600000X0.725000X0.600000X0*%
G04 #@! TD*
G04 #@! TA.AperFunction,ComponentPad*
%ADD14O,1.950000X1.700000*%
G04 #@! TD*
G04 #@! TA.AperFunction,ComponentPad*
%ADD15RoundRect,0.250000X0.725000X-0.600000X0.725000X0.600000X-0.725000X0.600000X-0.725000X-0.600000X0*%
G04 #@! TD*
G04 #@! TA.AperFunction,ViaPad*
%ADD16C,0.800000*%
G04 #@! TD*
G04 #@! TA.AperFunction,Conductor*
%ADD17C,0.250000*%
G04 #@! TD*
G04 APERTURE END LIST*
D10*
X119320117Y-87658406D03*
X121048886Y-84965572D03*
X116925483Y-82318394D03*
X115196714Y-85011228D03*
D11*
X127034683Y-82318394D03*
X125305914Y-85011228D03*
X129429317Y-87658406D03*
X131158086Y-84965572D03*
X115909483Y-98980794D03*
X114180714Y-101673628D03*
X118304117Y-104320806D03*
X120032886Y-101627972D03*
D10*
X128159317Y-104828806D03*
X129888086Y-102135972D03*
X125764683Y-99488794D03*
X124035914Y-102181628D03*
X131918517Y-99139206D03*
X133647286Y-96446372D03*
X129523883Y-93799194D03*
X127795114Y-96492028D03*
D11*
X119639766Y-93313588D03*
X117910997Y-96006422D03*
X122034400Y-98653600D03*
X123763169Y-95960766D03*
D12*
X106792300Y-85039200D03*
X109717300Y-85039200D03*
D11*
X123326283Y-87652394D03*
X121597514Y-90345228D03*
X125720917Y-92992406D03*
X127449686Y-90299572D03*
D10*
X115611717Y-93602006D03*
X117340486Y-90909172D03*
X113217083Y-88261994D03*
X111488314Y-90954828D03*
D13*
X140191000Y-90464000D03*
D14*
X140191000Y-92964000D03*
X140191000Y-95464000D03*
D15*
X106680000Y-95464000D03*
D14*
X106680000Y-92964000D03*
X106680000Y-90464000D03*
D16*
X129590800Y-93675200D03*
X118262400Y-104343200D03*
X121970800Y-98704400D03*
X125679200Y-93014800D03*
X129336800Y-87680800D03*
X113233200Y-88290400D03*
X125679200Y-99364800D03*
X116890800Y-82346800D03*
D17*
X115196714Y-88765400D02*
X115196714Y-85011228D01*
X117340486Y-90909172D02*
X115196714Y-88765400D01*
X127434372Y-84965572D02*
X131158086Y-84965572D01*
X123159658Y-82854800D02*
X125323600Y-82854800D01*
X125323600Y-82854800D02*
X127434372Y-84965572D01*
X121048886Y-84965572D02*
X123159658Y-82854800D01*
X125305914Y-85011228D02*
X127449686Y-87155000D01*
X127449686Y-87155000D02*
X127449686Y-90299572D01*
X121597514Y-90345228D02*
X123763169Y-92510883D01*
X123763169Y-92510883D02*
X123763169Y-95960766D01*
X120032886Y-98128311D02*
X120032886Y-101627972D01*
X117910997Y-96006422D02*
X120032886Y-98128311D01*
X114180714Y-101673628D02*
X115285994Y-102778908D01*
X115285994Y-102778908D02*
X123438634Y-102778908D01*
X123438634Y-102778908D02*
X124035914Y-102181628D01*
X127795114Y-100043000D02*
X127795114Y-96492028D01*
X129888086Y-102135972D02*
X127795114Y-100043000D01*
X133647286Y-96446372D02*
X139208628Y-96446372D01*
X139208628Y-96446372D02*
X140191000Y-95464000D01*
X109717300Y-89183814D02*
X111488314Y-90954828D01*
X109717300Y-85039200D02*
X109717300Y-89183814D01*
X106680000Y-85151500D02*
X106792300Y-85039200D01*
X106680000Y-90464000D02*
X106680000Y-85151500D01*
G04 #@! TA.AperFunction,Conductor*
G36*
X131490829Y-79221103D02*
G01*
X131515492Y-79221103D01*
X132081625Y-79221103D01*
X132081629Y-79221104D01*
X132106292Y-79221104D01*
X132667787Y-79221104D01*
X132667791Y-79221106D01*
X132717115Y-79221106D01*
X133248890Y-79221107D01*
X133248894Y-79221109D01*
X133322884Y-79221109D01*
X133824517Y-79221111D01*
X133824521Y-79221113D01*
X133923175Y-79221113D01*
X134394248Y-79221116D01*
X134394252Y-79221118D01*
X134542233Y-79221119D01*
X134957662Y-79221123D01*
X134957664Y-79221124D01*
X134957665Y-79221124D01*
X135056207Y-79221128D01*
X135345918Y-79221143D01*
X135346375Y-79221144D01*
X135346376Y-79221145D01*
X135672171Y-79221263D01*
X135723395Y-79221318D01*
X135966657Y-79221578D01*
X135967255Y-79221579D01*
X135967256Y-79221580D01*
X136228874Y-79222187D01*
X136229359Y-79222189D01*
X136229360Y-79222190D01*
X136462802Y-79223191D01*
X136670178Y-79224685D01*
X136937980Y-79228058D01*
X137162030Y-79233087D01*
X137406216Y-79242872D01*
X137409702Y-79243063D01*
X137610391Y-79256944D01*
X137615188Y-79257369D01*
X137841799Y-79281927D01*
X137844693Y-79282275D01*
X137888032Y-79288012D01*
X137890502Y-79288365D01*
X138148452Y-79327944D01*
X138152819Y-79328614D01*
X138156767Y-79329285D01*
X138368917Y-79368892D01*
X138372566Y-79369631D01*
X138597925Y-79418896D01*
X138601821Y-79419814D01*
X138839129Y-79479950D01*
X138843245Y-79481071D01*
X139091381Y-79553313D01*
X139095761Y-79554677D01*
X139353687Y-79640278D01*
X139358215Y-79641879D01*
X139625437Y-79742291D01*
X139629246Y-79743797D01*
X139811110Y-79819225D01*
X139814238Y-79820574D01*
X139999680Y-79903619D01*
X140002890Y-79905112D01*
X140191034Y-79995901D01*
X140194216Y-79997493D01*
X140385067Y-80096551D01*
X140388238Y-80098258D01*
X140581375Y-80205913D01*
X140584390Y-80207649D01*
X140754785Y-80308997D01*
X140757709Y-80310792D01*
X140938321Y-80425096D01*
X140941453Y-80427145D01*
X141127083Y-80552628D01*
X141130699Y-80555072D01*
X141134000Y-80557382D01*
X141330427Y-80699676D01*
X141333864Y-80702258D01*
X141535863Y-80859547D01*
X141535983Y-80859640D01*
X141539523Y-80862502D01*
X141745909Y-81035741D01*
X141749516Y-81038890D01*
X141958684Y-81228702D01*
X141962327Y-81232145D01*
X142173162Y-81439612D01*
X142176172Y-81442677D01*
X142281242Y-81553537D01*
X142316256Y-81590480D01*
X142318671Y-81593103D01*
X142458578Y-81749490D01*
X142460968Y-81752242D01*
X142464016Y-81755857D01*
X142590685Y-81906109D01*
X142599966Y-81917117D01*
X142602312Y-81919986D01*
X142629392Y-81954136D01*
X142739898Y-82093489D01*
X142742273Y-82096583D01*
X142894673Y-82301740D01*
X142896929Y-82304878D01*
X142942774Y-82370798D01*
X143018202Y-82479255D01*
X143020307Y-82482382D01*
X143145783Y-82675044D01*
X143147970Y-82678526D01*
X143275588Y-82889452D01*
X143277810Y-82893277D01*
X143405634Y-83122635D01*
X143407848Y-83126791D01*
X143533933Y-83374725D01*
X143536099Y-83379205D01*
X143658693Y-83646283D01*
X143660426Y-83650238D01*
X143738893Y-83838182D01*
X143740225Y-83841509D01*
X143815744Y-84038194D01*
X143817010Y-84041643D01*
X143888926Y-84246950D01*
X143890108Y-84250494D01*
X143957797Y-84464343D01*
X143958901Y-84468028D01*
X143999724Y-84612426D01*
X144021898Y-84690856D01*
X144022706Y-84693859D01*
X144071632Y-84885114D01*
X144072461Y-84888557D01*
X144124694Y-85120115D01*
X144133185Y-85157754D01*
X144134228Y-85162881D01*
X144180956Y-85420159D01*
X144181850Y-85425824D01*
X144216600Y-85684746D01*
X144217205Y-85690148D01*
X144241837Y-85964414D01*
X144242120Y-85968230D01*
X144253769Y-86166427D01*
X144262190Y-86382282D01*
X144267792Y-86617481D01*
X144271101Y-86875902D01*
X144272636Y-87161025D01*
X144272922Y-87477442D01*
X144272480Y-87827368D01*
X144272480Y-87827369D01*
X144271832Y-88215733D01*
X144271832Y-88215734D01*
X144271593Y-88425358D01*
X144271593Y-88425359D01*
X144271500Y-88645900D01*
X144271500Y-88645901D01*
X144271499Y-88989208D01*
X144271499Y-90757104D01*
X144271500Y-90757114D01*
X144271500Y-93160263D01*
X144271501Y-93160273D01*
X144271501Y-93452218D01*
X144271501Y-93795526D01*
X144271501Y-93795527D01*
X144271501Y-94138835D01*
X144271500Y-94482143D01*
X144271500Y-94482144D01*
X144271500Y-94825452D01*
X144271500Y-95168760D01*
X144271499Y-95512068D01*
X144271499Y-95512069D01*
X144271499Y-95855377D01*
X144271498Y-96198685D01*
X144271498Y-96198686D01*
X144271498Y-96541994D01*
X144271497Y-96885302D01*
X144271497Y-96885303D01*
X144271496Y-97228610D01*
X144271496Y-97228611D01*
X144271494Y-97571919D01*
X144271494Y-97571920D01*
X144271493Y-97915227D01*
X144271493Y-97915228D01*
X144271492Y-98258536D01*
X144271492Y-98258537D01*
X144271490Y-98601844D01*
X144271490Y-98601845D01*
X144271488Y-98945153D01*
X144271488Y-98945154D01*
X144271486Y-99288461D01*
X144271486Y-99288462D01*
X144271484Y-99631770D01*
X144271484Y-99631771D01*
X144271457Y-99904787D01*
X144271457Y-99904788D01*
X144271281Y-100140233D01*
X144271281Y-100140234D01*
X144270805Y-100342604D01*
X144269447Y-100568129D01*
X144266087Y-100793375D01*
X144261665Y-100921611D01*
X144258773Y-101005453D01*
X144258559Y-101009607D01*
X144244030Y-101222517D01*
X144243831Y-101225051D01*
X144241198Y-101254679D01*
X144213598Y-101510008D01*
X144213120Y-101513857D01*
X144183964Y-101722197D01*
X144183394Y-101725867D01*
X144145264Y-101949336D01*
X144144525Y-101953281D01*
X144096117Y-102190420D01*
X144095186Y-102194612D01*
X144035131Y-102444338D01*
X144033984Y-102448749D01*
X143960950Y-102709836D01*
X143959565Y-102714441D01*
X143872057Y-102986182D01*
X143870711Y-102990133D01*
X143803960Y-103175756D01*
X143802742Y-103179000D01*
X143728493Y-103368657D01*
X143727147Y-103371955D01*
X143645118Y-103564962D01*
X143643640Y-103568301D01*
X143553410Y-103764360D01*
X143551798Y-103767729D01*
X143453056Y-103966307D01*
X143451223Y-103969849D01*
X143329708Y-104195699D01*
X143327800Y-104199116D01*
X143221606Y-104382384D01*
X143219683Y-104385589D01*
X143099379Y-104579492D01*
X143097196Y-104582887D01*
X142962063Y-104785647D01*
X142959606Y-104789197D01*
X142808865Y-104999153D01*
X142806122Y-105002828D01*
X142638939Y-105218389D01*
X142635900Y-105222154D01*
X142451165Y-105442061D01*
X142448408Y-105445231D01*
X142315750Y-105592700D01*
X142313381Y-105595261D01*
X142172185Y-105743606D01*
X142169674Y-105746169D01*
X142019965Y-105894612D01*
X142017314Y-105897164D01*
X141858792Y-106045280D01*
X141856004Y-106047807D01*
X141797154Y-106099540D01*
X141688572Y-106194988D01*
X141685599Y-106197520D01*
X141492353Y-106356809D01*
X141489355Y-106359203D01*
X141323774Y-106487297D01*
X141320800Y-106489527D01*
X141136872Y-106623196D01*
X141133558Y-106625523D01*
X140931248Y-106762687D01*
X140927604Y-106765065D01*
X140706898Y-106903653D01*
X140702924Y-106906046D01*
X140463582Y-107044131D01*
X140459280Y-107046501D01*
X140200754Y-107182305D01*
X140196938Y-107184226D01*
X140014801Y-107272033D01*
X140011579Y-107273530D01*
X139820536Y-107358976D01*
X139817173Y-107360421D01*
X139617650Y-107442682D01*
X139614158Y-107444060D01*
X139406124Y-107522548D01*
X139402504Y-107523850D01*
X139185533Y-107598107D01*
X139182533Y-107599092D01*
X138944315Y-107673902D01*
X138941342Y-107674795D01*
X138719110Y-107738518D01*
X138715223Y-107739564D01*
X138503116Y-107792999D01*
X138498506Y-107794067D01*
X138289990Y-107838211D01*
X138285008Y-107839160D01*
X138073391Y-107874990D01*
X138068480Y-107875721D01*
X137847096Y-107904141D01*
X137842656Y-107904630D01*
X137604871Y-107926485D01*
X137601158Y-107926770D01*
X137340563Y-107942849D01*
X137337671Y-107942993D01*
X137046994Y-107954122D01*
X136720265Y-107961060D01*
X136352687Y-107964601D01*
X136151799Y-107965362D01*
X135938120Y-107965593D01*
X135711313Y-107965400D01*
X135711312Y-107965400D01*
X135470273Y-107964888D01*
X135470272Y-107964888D01*
X135214332Y-107964164D01*
X135214331Y-107964164D01*
X134942707Y-107963333D01*
X134942706Y-107963333D01*
X134654616Y-107962503D01*
X134654615Y-107962503D01*
X134349274Y-107961779D01*
X134349273Y-107961779D01*
X134025899Y-107961268D01*
X133683710Y-107961076D01*
X133683513Y-107961076D01*
X133683512Y-107961076D01*
X133683511Y-107961076D01*
X133384348Y-107961077D01*
X133384347Y-107961077D01*
X133096266Y-107961079D01*
X133096265Y-107961079D01*
X132817993Y-107961081D01*
X132817992Y-107961081D01*
X132548257Y-107961083D01*
X132548256Y-107961083D01*
X132285786Y-107961085D01*
X132285785Y-107961085D01*
X132029306Y-107961087D01*
X132029305Y-107961087D01*
X131777545Y-107961089D01*
X131777544Y-107961089D01*
X131529230Y-107961091D01*
X131529229Y-107961091D01*
X131283090Y-107961094D01*
X131283089Y-107961094D01*
X131037851Y-107961096D01*
X131037850Y-107961096D01*
X130792241Y-107961098D01*
X130792240Y-107961098D01*
X130544987Y-107961101D01*
X130544986Y-107961101D01*
X130294816Y-107961104D01*
X130294815Y-107961104D01*
X130040457Y-107961106D01*
X130040456Y-107961106D01*
X129780637Y-107961109D01*
X129780636Y-107961109D01*
X129514083Y-107961113D01*
X129514082Y-107961113D01*
X129243784Y-107961116D01*
X129243783Y-107961116D01*
X128970478Y-107961119D01*
X128970477Y-107961119D01*
X128694473Y-107961123D01*
X128694472Y-107961123D01*
X128416077Y-107961126D01*
X128416076Y-107961126D01*
X128416072Y-107961126D01*
X128135599Y-107961129D01*
X128135598Y-107961130D01*
X128135597Y-107961130D01*
X128135591Y-107961130D01*
X127853346Y-107961133D01*
X127853345Y-107961134D01*
X127853344Y-107961134D01*
X127853338Y-107961134D01*
X127569626Y-107961137D01*
X127569625Y-107961138D01*
X127569624Y-107961138D01*
X127569617Y-107961138D01*
X127284748Y-107961141D01*
X127284747Y-107961142D01*
X127284746Y-107961142D01*
X127284740Y-107961142D01*
X126999020Y-107961145D01*
X126999019Y-107961146D01*
X126999018Y-107961146D01*
X126999011Y-107961146D01*
X126712750Y-107961149D01*
X126712749Y-107961150D01*
X126712748Y-107961150D01*
X126712739Y-107961150D01*
X126426247Y-107961154D01*
X126426246Y-107961155D01*
X126426245Y-107961155D01*
X126426239Y-107961155D01*
X126139818Y-107961158D01*
X126139817Y-107961159D01*
X126139816Y-107961159D01*
X126139807Y-107961159D01*
X125853772Y-107961163D01*
X125853771Y-107961164D01*
X125853770Y-107961164D01*
X125853764Y-107961164D01*
X125568418Y-107961167D01*
X125568417Y-107961168D01*
X125568416Y-107961168D01*
X125568408Y-107961168D01*
X125284062Y-107961172D01*
X125284061Y-107961173D01*
X125284060Y-107961173D01*
X125284054Y-107961173D01*
X125001014Y-107961176D01*
X125001013Y-107961177D01*
X125001012Y-107961177D01*
X125001004Y-107961177D01*
X124719582Y-107961181D01*
X124719581Y-107961182D01*
X124719580Y-107961182D01*
X124719573Y-107961182D01*
X124440074Y-107961185D01*
X124440073Y-107961186D01*
X124440072Y-107961186D01*
X124440064Y-107961186D01*
X124162798Y-107961190D01*
X124162797Y-107961191D01*
X124162796Y-107961191D01*
X124162788Y-107961191D01*
X123888063Y-107961195D01*
X123888062Y-107961196D01*
X123888061Y-107961196D01*
X123888055Y-107961196D01*
X123616176Y-107961199D01*
X123616175Y-107961200D01*
X123616174Y-107961200D01*
X123616165Y-107961200D01*
X123347445Y-107961204D01*
X123347444Y-107961205D01*
X123347443Y-107961205D01*
X123347436Y-107961205D01*
X123082180Y-107961208D01*
X123082179Y-107961209D01*
X123082178Y-107961209D01*
X123082169Y-107961209D01*
X122820688Y-107961213D01*
X122820687Y-107961214D01*
X122820686Y-107961214D01*
X122820679Y-107961214D01*
X122563278Y-107961217D01*
X122563277Y-107961218D01*
X122563276Y-107961218D01*
X122563267Y-107961218D01*
X122310257Y-107961222D01*
X122310256Y-107961223D01*
X122310255Y-107961223D01*
X122310248Y-107961223D01*
X122061935Y-107961226D01*
X122061933Y-107961227D01*
X122061932Y-107961227D01*
X122061920Y-107961227D01*
X121818617Y-107961231D01*
X121818616Y-107961232D01*
X121818615Y-107961232D01*
X121818608Y-107961232D01*
X121580615Y-107961235D01*
X121580614Y-107961236D01*
X121580613Y-107961236D01*
X121580606Y-107961236D01*
X121348235Y-107961239D01*
X121348234Y-107961240D01*
X121348233Y-107961240D01*
X121348226Y-107961240D01*
X121121787Y-107961243D01*
X121121785Y-107961244D01*
X121121784Y-107961244D01*
X121121772Y-107961244D01*
X120901576Y-107961248D01*
X120901575Y-107961249D01*
X120901574Y-107961249D01*
X120437729Y-107961257D01*
X120437728Y-107961257D01*
X120001277Y-107961260D01*
X119591210Y-107961257D01*
X119206541Y-107961241D01*
X118846466Y-107961210D01*
X118510088Y-107961160D01*
X118196508Y-107961087D01*
X117904826Y-107960987D01*
X117634145Y-107960858D01*
X117383566Y-107960693D01*
X117152191Y-107960491D01*
X116939121Y-107960248D01*
X116564298Y-107959621D01*
X116251914Y-107958782D01*
X116251913Y-107958782D01*
X115994701Y-107957702D01*
X115785534Y-107956350D01*
X115672627Y-107955122D01*
X115546389Y-107953749D01*
X115540507Y-107953622D01*
X115329816Y-107949077D01*
X115327175Y-107948992D01*
X115139135Y-107940919D01*
X115136470Y-107940776D01*
X114828916Y-107920932D01*
X114826227Y-107920729D01*
X114514067Y-107893761D01*
X114511348Y-107893496D01*
X114194993Y-107859128D01*
X114192238Y-107858797D01*
X113871932Y-107816730D01*
X113869145Y-107816332D01*
X113545169Y-107766275D01*
X113542348Y-107765806D01*
X113214884Y-107707450D01*
X113212032Y-107706907D01*
X112881551Y-107639994D01*
X112878667Y-107639374D01*
X112545308Y-107563583D01*
X112542396Y-107562884D01*
X112206534Y-107477943D01*
X112203596Y-107477162D01*
X111865422Y-107382758D01*
X111862460Y-107381891D01*
X111522329Y-107277749D01*
X111519347Y-107276795D01*
X111177412Y-107162583D01*
X111174463Y-107161555D01*
X110831182Y-107037039D01*
X110828225Y-107035923D01*
X110483774Y-106900774D01*
X110480757Y-106899544D01*
X110161938Y-106764684D01*
X110135459Y-106753483D01*
X110132450Y-106752163D01*
X109851465Y-106624401D01*
X109786443Y-106594835D01*
X109783744Y-106593569D01*
X109568115Y-106489186D01*
X109507756Y-106459967D01*
X109505370Y-106458780D01*
X109309868Y-106358872D01*
X109227574Y-106316816D01*
X109225229Y-106315586D01*
X109039453Y-106215454D01*
X108946159Y-106165169D01*
X108943745Y-106163833D01*
X108663700Y-106004747D01*
X108661277Y-106003334D01*
X108479585Y-105894612D01*
X108380822Y-105835514D01*
X108378406Y-105834030D01*
X108332927Y-105805377D01*
X127829454Y-105805377D01*
X128287660Y-106099540D01*
X128293434Y-106102824D01*
X128344024Y-106128118D01*
X128484532Y-106158613D01*
X128627942Y-106148287D01*
X128762629Y-106097979D01*
X128877688Y-106011761D01*
X128913164Y-105967696D01*
X128917039Y-105962317D01*
X129076144Y-105714483D01*
X128234634Y-105174244D01*
X128234633Y-105174244D01*
X127829454Y-105805376D01*
X127829454Y-105805377D01*
X108332927Y-105805377D01*
X108238169Y-105745676D01*
X108097792Y-105657234D01*
X108095360Y-105655662D01*
X107814991Y-105469736D01*
X107812558Y-105468080D01*
X107532805Y-105272848D01*
X107530374Y-105271108D01*
X107251607Y-105066395D01*
X107249221Y-105064598D01*
X106971836Y-104850246D01*
X106969439Y-104848345D01*
X106693809Y-104624182D01*
X106691405Y-104622176D01*
X106417913Y-104388035D01*
X106415526Y-104385938D01*
X106144555Y-104141653D01*
X106142192Y-104139466D01*
X105961746Y-103968090D01*
X105874085Y-103884835D01*
X105871758Y-103882566D01*
X105841458Y-103852234D01*
X105679309Y-103689911D01*
X105606974Y-103617498D01*
X105604671Y-103615131D01*
X105343364Y-103339226D01*
X105341292Y-103336983D01*
X105128096Y-103100474D01*
X105126249Y-103098378D01*
X104915982Y-102854277D01*
X104914169Y-102852124D01*
X104707188Y-102600509D01*
X104705411Y-102598297D01*
X104502093Y-102339274D01*
X104500351Y-102337002D01*
X104300998Y-102070588D01*
X104299293Y-102068253D01*
X104170970Y-101888158D01*
X104104188Y-101794432D01*
X104102574Y-101792108D01*
X104008565Y-101653371D01*
X112775085Y-101653371D01*
X112785421Y-101796921D01*
X112833040Y-101924409D01*
X112835781Y-101931747D01*
X112922085Y-102046920D01*
X112964317Y-102080919D01*
X112968785Y-102084516D01*
X114311622Y-102946601D01*
X114365247Y-102973413D01*
X114505895Y-103003940D01*
X114561819Y-102999912D01*
X114630098Y-103014731D01*
X114658406Y-103035911D01*
X114785190Y-103162695D01*
X114798090Y-103178796D01*
X114849217Y-103226808D01*
X114852014Y-103229519D01*
X114871523Y-103249028D01*
X114874703Y-103251495D01*
X114883565Y-103259063D01*
X114915412Y-103288970D01*
X114932358Y-103298286D01*
X114932966Y-103298620D01*
X114949230Y-103309304D01*
X114957142Y-103315441D01*
X114965058Y-103321581D01*
X114989903Y-103332332D01*
X115005146Y-103338929D01*
X115015625Y-103344062D01*
X115053902Y-103365105D01*
X115073300Y-103370085D01*
X115091702Y-103376385D01*
X115110098Y-103384346D01*
X115153255Y-103391181D01*
X115164658Y-103393542D01*
X115206975Y-103404408D01*
X115227010Y-103404408D01*
X115246407Y-103405934D01*
X115266190Y-103409068D01*
X115309668Y-103404958D01*
X115321338Y-103404408D01*
X117179456Y-103404408D01*
X117246495Y-103424093D01*
X117292250Y-103476897D01*
X117302194Y-103546055D01*
X117283803Y-103595398D01*
X117044296Y-103968470D01*
X116955826Y-104106276D01*
X116954344Y-104109239D01*
X116954336Y-104109254D01*
X116929014Y-104159899D01*
X116920503Y-104199116D01*
X116898488Y-104300549D01*
X116908824Y-104444099D01*
X116956199Y-104570933D01*
X116959184Y-104578925D01*
X117045488Y-104694098D01*
X117089589Y-104729602D01*
X117092188Y-104731694D01*
X118435025Y-105593779D01*
X118488650Y-105620591D01*
X118629298Y-105651118D01*
X118772848Y-105640781D01*
X118907672Y-105590422D01*
X119022846Y-105504118D01*
X119060443Y-105457418D01*
X119476986Y-104808584D01*
X126754191Y-104808584D01*
X126764517Y-104951993D01*
X126814824Y-105086678D01*
X126901044Y-105201740D01*
X126945114Y-105237219D01*
X126950488Y-105241090D01*
X127408697Y-105535255D01*
X127408698Y-105535255D01*
X127813877Y-104904123D01*
X127813877Y-104904122D01*
X127579240Y-104753488D01*
X128504755Y-104753488D01*
X129346264Y-105293727D01*
X129346265Y-105293727D01*
X129505369Y-105045898D01*
X129508649Y-105040131D01*
X129533946Y-104989535D01*
X129564442Y-104849027D01*
X129554116Y-104705618D01*
X129503809Y-104570933D01*
X129417589Y-104455871D01*
X129373519Y-104420392D01*
X129368145Y-104416521D01*
X128909935Y-104122355D01*
X128909934Y-104122355D01*
X128504755Y-104753487D01*
X128504755Y-104753488D01*
X127579240Y-104753488D01*
X126972368Y-104363883D01*
X126972367Y-104363883D01*
X126813264Y-104611713D01*
X126809983Y-104617482D01*
X126784687Y-104668076D01*
X126754191Y-104808584D01*
X119476986Y-104808584D01*
X119652408Y-104535336D01*
X119679220Y-104481711D01*
X119709746Y-104341063D01*
X119699410Y-104197513D01*
X119649051Y-104062689D01*
X119578579Y-103968644D01*
X119562745Y-103947513D01*
X119557297Y-103943127D01*
X127242488Y-103943127D01*
X128083998Y-104483366D01*
X128083999Y-104483366D01*
X128489178Y-103852234D01*
X128489178Y-103852233D01*
X128030973Y-103558071D01*
X128025199Y-103554787D01*
X127974609Y-103529493D01*
X127834101Y-103498998D01*
X127690691Y-103509324D01*
X127556004Y-103559632D01*
X127440945Y-103645850D01*
X127405472Y-103689911D01*
X127401590Y-103695300D01*
X127242488Y-103943126D01*
X127242488Y-103943127D01*
X119557297Y-103943127D01*
X119518644Y-103912009D01*
X119518637Y-103912004D01*
X119516046Y-103909918D01*
X119294564Y-103767729D01*
X119084320Y-103632755D01*
X119038540Y-103579973D01*
X119028564Y-103510819D01*
X119057558Y-103447250D01*
X119116319Y-103409448D01*
X119151310Y-103404408D01*
X123355890Y-103404408D01*
X123376396Y-103406672D01*
X123379299Y-103406580D01*
X123379301Y-103406581D01*
X123446506Y-103404469D01*
X123450402Y-103404408D01*
X123474082Y-103404408D01*
X123477984Y-103404408D01*
X123481947Y-103403907D01*
X123493596Y-103402988D01*
X123537261Y-103401617D01*
X123556493Y-103396028D01*
X123575552Y-103392082D01*
X123582725Y-103391176D01*
X123595426Y-103389572D01*
X123636041Y-103373490D01*
X123647078Y-103369711D01*
X123689024Y-103357526D01*
X123706263Y-103347330D01*
X123723736Y-103338770D01*
X123725355Y-103338129D01*
X123742366Y-103331394D01*
X123777698Y-103305722D01*
X123787458Y-103299311D01*
X123793228Y-103295898D01*
X123860952Y-103278719D01*
X123923336Y-103298286D01*
X123986571Y-103338882D01*
X124166822Y-103454601D01*
X124220447Y-103481413D01*
X124361095Y-103511940D01*
X124504645Y-103501603D01*
X124639469Y-103451244D01*
X124754643Y-103364940D01*
X124792240Y-103318240D01*
X125384205Y-102396158D01*
X125411017Y-102342533D01*
X125441543Y-102201885D01*
X125431207Y-102058335D01*
X125380848Y-101923511D01*
X125377200Y-101918643D01*
X125294542Y-101808335D01*
X125250441Y-101772831D01*
X125250434Y-101772826D01*
X125247843Y-101770740D01*
X125217504Y-101751263D01*
X124694512Y-101415508D01*
X123905006Y-100908655D01*
X123902034Y-100907169D01*
X123902027Y-100907165D01*
X123851382Y-100881843D01*
X123758359Y-100861653D01*
X123710733Y-100851316D01*
X123710732Y-100851316D01*
X123567180Y-100861653D01*
X123432359Y-100912011D01*
X123317186Y-100998315D01*
X123317185Y-100998316D01*
X123279588Y-101045016D01*
X123277797Y-101047804D01*
X123277791Y-101047814D01*
X122689422Y-101964295D01*
X122687623Y-101967098D01*
X122686141Y-101970061D01*
X122686133Y-101970076D01*
X122660811Y-102020721D01*
X122660811Y-102020723D01*
X122655126Y-102046919D01*
X122653218Y-102055709D01*
X122619762Y-102117048D01*
X122558454Y-102150562D01*
X122532039Y-102153408D01*
X121408539Y-102153408D01*
X121341500Y-102133723D01*
X121295745Y-102080919D01*
X121285801Y-102011761D01*
X121304192Y-101962418D01*
X121308404Y-101955857D01*
X121381177Y-101842502D01*
X121407989Y-101788877D01*
X121438515Y-101648229D01*
X121428179Y-101504679D01*
X121377820Y-101369855D01*
X121297554Y-101262740D01*
X121291514Y-101254679D01*
X121247413Y-101219175D01*
X121247406Y-101219170D01*
X121244815Y-101217084D01*
X121242016Y-101215287D01*
X120715396Y-100877202D01*
X120669616Y-100824420D01*
X120658386Y-100772855D01*
X120658386Y-99186107D01*
X120678071Y-99119068D01*
X120730875Y-99073313D01*
X120800033Y-99063369D01*
X120849373Y-99081759D01*
X122165308Y-99926573D01*
X122218933Y-99953385D01*
X122359581Y-99983912D01*
X122503131Y-99973575D01*
X122637955Y-99923216D01*
X122753129Y-99836912D01*
X122790726Y-99790212D01*
X122997237Y-99468537D01*
X124359054Y-99468537D01*
X124369390Y-99612087D01*
X124419749Y-99746911D01*
X124419750Y-99746913D01*
X124506054Y-99862086D01*
X124550155Y-99897590D01*
X124552754Y-99899682D01*
X125895591Y-100761767D01*
X125949216Y-100788579D01*
X126089864Y-100819106D01*
X126233414Y-100808769D01*
X126368238Y-100758410D01*
X126483412Y-100672106D01*
X126521009Y-100625406D01*
X126940759Y-99971575D01*
X126993539Y-99925798D01*
X127062692Y-99915822D01*
X127126262Y-99944816D01*
X127164064Y-100003576D01*
X127169043Y-100034666D01*
X127169553Y-100050865D01*
X127169614Y-100054767D01*
X127169614Y-100082350D01*
X127170102Y-100086219D01*
X127170103Y-100086225D01*
X127170118Y-100086343D01*
X127171032Y-100097967D01*
X127172404Y-100141626D01*
X127177993Y-100160860D01*
X127181939Y-100179916D01*
X127184449Y-100199792D01*
X127200528Y-100240404D01*
X127204311Y-100251451D01*
X127216496Y-100293391D01*
X127226694Y-100310635D01*
X127235250Y-100328100D01*
X127242628Y-100346732D01*
X127253180Y-100361256D01*
X127268294Y-100382059D01*
X127274707Y-100391822D01*
X127296940Y-100429416D01*
X127296943Y-100429419D01*
X127296944Y-100429420D01*
X127311109Y-100443585D01*
X127323741Y-100458375D01*
X127335520Y-100474587D01*
X127369172Y-100502426D01*
X127377813Y-100510289D01*
X128566592Y-101699068D01*
X128600077Y-101760391D01*
X128595093Y-101830083D01*
X128583259Y-101853737D01*
X128541590Y-101918643D01*
X128541575Y-101918669D01*
X128539795Y-101921442D01*
X128538315Y-101924401D01*
X128538311Y-101924409D01*
X128512983Y-101975065D01*
X128488302Y-102088782D01*
X128482457Y-102115715D01*
X128492793Y-102259265D01*
X128542812Y-102393179D01*
X128543153Y-102394091D01*
X128629457Y-102509264D01*
X128673558Y-102544768D01*
X128676157Y-102546860D01*
X130018994Y-103408945D01*
X130072619Y-103435757D01*
X130213267Y-103466284D01*
X130356817Y-103455947D01*
X130491641Y-103405588D01*
X130606815Y-103319284D01*
X130644412Y-103272584D01*
X131236377Y-102350502D01*
X131263189Y-102296877D01*
X131293715Y-102156229D01*
X131283379Y-102012679D01*
X131233020Y-101877855D01*
X131233018Y-101877852D01*
X131146714Y-101762679D01*
X131102613Y-101727175D01*
X131102606Y-101727170D01*
X131100015Y-101725084D01*
X130765720Y-101510471D01*
X130319098Y-101223745D01*
X129757178Y-100862999D01*
X129754206Y-100861513D01*
X129754199Y-100861509D01*
X129703554Y-100836187D01*
X129668390Y-100828555D01*
X129562905Y-100805660D01*
X129562902Y-100805660D01*
X129506976Y-100809686D01*
X129438696Y-100794866D01*
X129410392Y-100773687D01*
X128752483Y-100115777D01*
X131588654Y-100115777D01*
X132046860Y-100409940D01*
X132052634Y-100413224D01*
X132103224Y-100438518D01*
X132243732Y-100469013D01*
X132387142Y-100458687D01*
X132521829Y-100408379D01*
X132636888Y-100322161D01*
X132672364Y-100278096D01*
X132676239Y-100272717D01*
X132835344Y-100024883D01*
X131993834Y-99484644D01*
X131993833Y-99484644D01*
X131588654Y-100115776D01*
X131588654Y-100115777D01*
X128752483Y-100115777D01*
X128456933Y-99820227D01*
X128423448Y-99758904D01*
X128420614Y-99732546D01*
X128420614Y-99118984D01*
X130513391Y-99118984D01*
X130523717Y-99262393D01*
X130574024Y-99397078D01*
X130660244Y-99512140D01*
X130704314Y-99547619D01*
X130709688Y-99551490D01*
X131167897Y-99845655D01*
X131167898Y-99845655D01*
X131573077Y-99214523D01*
X131573077Y-99214522D01*
X131338440Y-99063888D01*
X132263955Y-99063888D01*
X133105464Y-99604127D01*
X133105465Y-99604127D01*
X133264569Y-99356298D01*
X133267849Y-99350531D01*
X133293146Y-99299935D01*
X133323642Y-99159427D01*
X133313316Y-99016018D01*
X133263009Y-98881333D01*
X133176789Y-98766271D01*
X133132719Y-98730792D01*
X133127345Y-98726921D01*
X132669135Y-98432755D01*
X132669134Y-98432755D01*
X132263955Y-99063887D01*
X132263955Y-99063888D01*
X131338440Y-99063888D01*
X130731568Y-98674283D01*
X130731567Y-98674283D01*
X130572464Y-98922113D01*
X130569183Y-98927882D01*
X130543887Y-98978476D01*
X130513391Y-99118984D01*
X128420614Y-99118984D01*
X128420614Y-98253527D01*
X131001688Y-98253527D01*
X131843198Y-98793766D01*
X131843199Y-98793766D01*
X132248378Y-98162634D01*
X132248378Y-98162633D01*
X131790173Y-97868471D01*
X131784399Y-97865187D01*
X131733809Y-97839893D01*
X131593301Y-97809398D01*
X131449891Y-97819724D01*
X131315204Y-97870032D01*
X131200145Y-97956250D01*
X131164672Y-98000311D01*
X131160790Y-98005700D01*
X131001688Y-98253526D01*
X131001688Y-98253527D01*
X128420614Y-98253527D01*
X128420614Y-97807232D01*
X128440299Y-97740193D01*
X128470256Y-97708000D01*
X128513843Y-97675340D01*
X128551440Y-97628640D01*
X129143405Y-96706558D01*
X129170217Y-96652933D01*
X129200743Y-96512285D01*
X129194539Y-96426115D01*
X132241657Y-96426115D01*
X132251993Y-96569665D01*
X132284359Y-96656316D01*
X132302353Y-96704491D01*
X132388657Y-96819664D01*
X132432758Y-96855168D01*
X132435357Y-96857260D01*
X133778194Y-97719345D01*
X133831819Y-97746157D01*
X133972467Y-97776684D01*
X134116017Y-97766347D01*
X134250841Y-97715988D01*
X134366015Y-97629684D01*
X134403612Y-97582984D01*
X134695139Y-97128881D01*
X134747921Y-97083102D01*
X134799486Y-97071872D01*
X139125884Y-97071872D01*
X139146390Y-97074136D01*
X139149293Y-97074044D01*
X139149295Y-97074045D01*
X139216500Y-97071933D01*
X139220396Y-97071872D01*
X139244076Y-97071872D01*
X139247978Y-97071872D01*
X139251941Y-97071371D01*
X139263590Y-97070452D01*
X139307255Y-97069081D01*
X139326487Y-97063492D01*
X139345546Y-97059546D01*
X139351824Y-97058753D01*
X139365420Y-97057036D01*
X139406035Y-97040954D01*
X139417072Y-97037175D01*
X139459018Y-97024990D01*
X139476257Y-97014794D01*
X139493730Y-97006234D01*
X139512360Y-96998858D01*
X139547692Y-96973186D01*
X139557458Y-96966772D01*
X139595046Y-96944543D01*
X139595045Y-96944543D01*
X139595048Y-96944542D01*
X139609213Y-96930376D01*
X139624001Y-96917745D01*
X139640215Y-96905966D01*
X139668066Y-96872298D01*
X139675907Y-96863681D01*
X139708937Y-96830651D01*
X139770258Y-96797168D01*
X139819764Y-96798346D01*
X139819784Y-96798118D01*
X139823373Y-96798432D01*
X139828708Y-96798559D01*
X139830590Y-96799063D01*
X139869785Y-96802492D01*
X140007034Y-96814500D01*
X140009742Y-96814500D01*
X140372258Y-96814500D01*
X140374966Y-96814500D01*
X140551408Y-96799063D01*
X140779663Y-96737903D01*
X140993829Y-96638035D01*
X141187401Y-96502495D01*
X141354495Y-96335401D01*
X141490035Y-96141830D01*
X141589903Y-95927663D01*
X141651063Y-95699408D01*
X141671659Y-95464000D01*
X141651063Y-95228592D01*
X141589903Y-95000337D01*
X141490035Y-94786171D01*
X141354495Y-94592599D01*
X141187401Y-94425505D01*
X141030401Y-94315573D01*
X140986778Y-94260998D01*
X140979584Y-94191500D01*
X141011107Y-94129145D01*
X141030398Y-94112428D01*
X141187401Y-94002495D01*
X141354495Y-93835401D01*
X141490035Y-93641830D01*
X141589903Y-93427663D01*
X141651063Y-93199408D01*
X141671659Y-92964000D01*
X141665276Y-92891049D01*
X141651063Y-92728592D01*
X141647776Y-92716326D01*
X141589903Y-92500337D01*
X141490035Y-92286171D01*
X141354495Y-92092599D01*
X141206931Y-91945035D01*
X141173446Y-91883712D01*
X141178430Y-91814020D01*
X141220302Y-91758087D01*
X141229516Y-91751815D01*
X141384345Y-91656316D01*
X141508316Y-91532345D01*
X141600357Y-91383122D01*
X141655506Y-91216696D01*
X141665680Y-91117109D01*
X141666000Y-91110831D01*
X141666000Y-90714000D01*
X140594969Y-90714000D01*
X140627519Y-90663351D01*
X140666000Y-90532295D01*
X140666000Y-90395705D01*
X140627519Y-90264649D01*
X140594969Y-90214000D01*
X141665999Y-90214000D01*
X141665999Y-89817170D01*
X141665678Y-89810888D01*
X141655506Y-89711304D01*
X141600357Y-89544877D01*
X141508316Y-89395654D01*
X141384345Y-89271683D01*
X141235122Y-89179642D01*
X141068696Y-89124493D01*
X140969109Y-89114319D01*
X140962832Y-89114000D01*
X140441000Y-89114000D01*
X140441000Y-90055981D01*
X140326199Y-90003554D01*
X140224975Y-89989000D01*
X140157025Y-89989000D01*
X140055801Y-90003554D01*
X139941000Y-90055981D01*
X139941000Y-89114000D01*
X139419171Y-89114000D01*
X139412888Y-89114321D01*
X139313304Y-89124493D01*
X139146877Y-89179642D01*
X138997654Y-89271683D01*
X138873683Y-89395654D01*
X138781642Y-89544877D01*
X138726493Y-89711303D01*
X138716319Y-89810890D01*
X138716000Y-89817168D01*
X138716000Y-90214000D01*
X139787031Y-90214000D01*
X139754481Y-90264649D01*
X139716000Y-90395705D01*
X139716000Y-90532295D01*
X139754481Y-90663351D01*
X139787031Y-90714000D01*
X138716001Y-90714000D01*
X138716001Y-91110829D01*
X138716321Y-91117111D01*
X138726493Y-91216695D01*
X138781642Y-91383122D01*
X138873683Y-91532345D01*
X138997653Y-91656315D01*
X139152484Y-91751815D01*
X139199208Y-91803763D01*
X139210431Y-91872725D01*
X139182587Y-91936808D01*
X139175069Y-91945034D01*
X139027505Y-92092599D01*
X138892687Y-92285140D01*
X138891964Y-92286172D01*
X138792097Y-92500337D01*
X138730936Y-92728592D01*
X138710340Y-92963999D01*
X138730936Y-93199407D01*
X138766949Y-93333809D01*
X138792097Y-93427663D01*
X138891965Y-93641829D01*
X139027505Y-93835401D01*
X139194599Y-94002495D01*
X139269974Y-94055273D01*
X139351596Y-94112425D01*
X139395221Y-94167002D01*
X139402415Y-94236500D01*
X139370892Y-94298855D01*
X139351596Y-94315575D01*
X139194598Y-94425505D01*
X139027508Y-94592595D01*
X139027505Y-94592598D01*
X139027505Y-94592599D01*
X138920939Y-94744792D01*
X138891964Y-94786172D01*
X138792097Y-95000337D01*
X138730936Y-95228592D01*
X138710340Y-95464000D01*
X138729769Y-95686065D01*
X138716002Y-95754565D01*
X138667387Y-95804748D01*
X138606241Y-95820872D01*
X134561299Y-95820872D01*
X134494309Y-95801219D01*
X134484419Y-95794870D01*
X133516378Y-95173399D01*
X133513406Y-95171913D01*
X133513399Y-95171909D01*
X133462754Y-95146587D01*
X133384055Y-95129506D01*
X133322105Y-95116060D01*
X133322104Y-95116060D01*
X133178552Y-95126397D01*
X133043731Y-95176755D01*
X132928558Y-95263059D01*
X132928557Y-95263060D01*
X132890960Y-95309760D01*
X132889169Y-95312548D01*
X132889163Y-95312558D01*
X132307313Y-96218885D01*
X132298995Y-96231842D01*
X132297513Y-96234805D01*
X132297505Y-96234820D01*
X132272183Y-96285465D01*
X132252469Y-96376299D01*
X132241657Y-96426115D01*
X129194539Y-96426115D01*
X129190407Y-96368735D01*
X129140048Y-96233911D01*
X129132430Y-96223745D01*
X129053742Y-96118735D01*
X129009641Y-96083231D01*
X129009634Y-96083226D01*
X129007043Y-96081140D01*
X128937292Y-96036361D01*
X128498350Y-95754565D01*
X127664206Y-95219055D01*
X127661234Y-95217569D01*
X127661227Y-95217565D01*
X127610582Y-95192243D01*
X127517559Y-95172053D01*
X127469933Y-95161716D01*
X127469932Y-95161716D01*
X127326380Y-95172053D01*
X127191559Y-95222411D01*
X127076386Y-95308715D01*
X127047055Y-95345148D01*
X127038788Y-95355416D01*
X127036997Y-95358204D01*
X127036991Y-95358214D01*
X126455141Y-96264541D01*
X126446823Y-96277498D01*
X126445341Y-96280461D01*
X126445333Y-96280476D01*
X126420011Y-96331121D01*
X126408725Y-96383122D01*
X126389485Y-96471771D01*
X126399821Y-96615321D01*
X126449512Y-96748357D01*
X126450181Y-96750147D01*
X126536485Y-96865320D01*
X126580586Y-96900824D01*
X126583185Y-96902916D01*
X127100815Y-97235228D01*
X127112604Y-97242796D01*
X127158384Y-97295578D01*
X127169614Y-97347143D01*
X127169614Y-98975008D01*
X127149929Y-99042047D01*
X127097125Y-99087802D01*
X127027967Y-99097746D01*
X126973438Y-99075747D01*
X126976612Y-99077906D01*
X125633775Y-98215821D01*
X125630803Y-98214335D01*
X125630796Y-98214331D01*
X125580151Y-98189009D01*
X125487128Y-98168819D01*
X125439502Y-98158482D01*
X125439501Y-98158482D01*
X125295949Y-98168819D01*
X125161128Y-98219177D01*
X125045955Y-98305481D01*
X125028333Y-98327370D01*
X125008357Y-98352182D01*
X125006566Y-98354970D01*
X125006560Y-98354980D01*
X124444374Y-99230677D01*
X124416392Y-99274264D01*
X124414910Y-99277227D01*
X124414902Y-99277242D01*
X124389580Y-99327887D01*
X124375431Y-99393078D01*
X124359054Y-99468537D01*
X122997237Y-99468537D01*
X123382691Y-98868130D01*
X123409503Y-98814505D01*
X123440029Y-98673857D01*
X123429693Y-98530307D01*
X123379334Y-98395483D01*
X123373278Y-98387401D01*
X123293028Y-98280307D01*
X123248927Y-98244803D01*
X123248920Y-98244798D01*
X123246329Y-98242712D01*
X123209669Y-98219177D01*
X122392394Y-97694496D01*
X121903492Y-97380627D01*
X121900520Y-97379141D01*
X121900513Y-97379137D01*
X121849868Y-97353815D01*
X121771169Y-97336734D01*
X121709219Y-97323288D01*
X121709218Y-97323288D01*
X121565666Y-97333625D01*
X121430845Y-97383983D01*
X121315672Y-97470287D01*
X121315671Y-97470288D01*
X121278074Y-97516988D01*
X121276283Y-97519776D01*
X121276277Y-97519786D01*
X120885026Y-98129224D01*
X120832244Y-98175004D01*
X120763090Y-98184980D01*
X120699521Y-98155986D01*
X120661719Y-98097226D01*
X120656740Y-98066128D01*
X120655595Y-98029684D01*
X120650006Y-98010451D01*
X120646060Y-97991393D01*
X120643550Y-97971519D01*
X120643549Y-97971519D01*
X120627471Y-97930908D01*
X120623690Y-97919863D01*
X120611505Y-97877924D01*
X120611504Y-97877923D01*
X120611504Y-97877921D01*
X120601303Y-97860672D01*
X120592746Y-97843206D01*
X120585372Y-97824579D01*
X120559699Y-97789243D01*
X120553288Y-97779483D01*
X120551495Y-97776452D01*
X120531056Y-97741890D01*
X120516892Y-97727726D01*
X120504255Y-97712931D01*
X120492481Y-97696725D01*
X120489567Y-97694314D01*
X120458821Y-97668879D01*
X120450191Y-97661025D01*
X119232490Y-96443324D01*
X119199005Y-96382001D01*
X119203989Y-96312309D01*
X119215818Y-96288662D01*
X119259288Y-96220952D01*
X119286100Y-96167327D01*
X119316626Y-96026679D01*
X119306290Y-95883129D01*
X119255931Y-95748305D01*
X119221717Y-95702646D01*
X119169625Y-95633129D01*
X119125524Y-95597625D01*
X119125517Y-95597620D01*
X119122926Y-95595534D01*
X119055066Y-95551969D01*
X118541728Y-95222412D01*
X117780089Y-94733449D01*
X117777117Y-94731963D01*
X117777110Y-94731959D01*
X117726465Y-94706637D01*
X117633442Y-94686447D01*
X117585816Y-94676110D01*
X117585815Y-94676110D01*
X117442263Y-94686447D01*
X117307442Y-94736805D01*
X117192269Y-94823109D01*
X117192268Y-94823110D01*
X117154671Y-94869810D01*
X117152880Y-94872598D01*
X117152874Y-94872608D01*
X116564505Y-95789089D01*
X116562706Y-95791892D01*
X116561224Y-95794855D01*
X116561216Y-95794870D01*
X116535894Y-95845515D01*
X116515277Y-95940509D01*
X116505368Y-95986165D01*
X116515704Y-96129715D01*
X116566063Y-96264539D01*
X116566064Y-96264541D01*
X116652368Y-96379714D01*
X116696469Y-96415218D01*
X116699068Y-96417310D01*
X118041905Y-97279395D01*
X118095530Y-97306207D01*
X118236178Y-97336734D01*
X118292103Y-97332706D01*
X118360383Y-97347525D01*
X118388690Y-97368705D01*
X119371066Y-98351081D01*
X119404551Y-98412404D01*
X119407385Y-98438762D01*
X119407385Y-100312767D01*
X119387700Y-100379806D01*
X119357744Y-100411998D01*
X119314154Y-100444661D01*
X119278651Y-100488761D01*
X119278639Y-100488777D01*
X119276560Y-100491360D01*
X119274769Y-100494148D01*
X119274763Y-100494158D01*
X118712579Y-101369852D01*
X118684595Y-101413442D01*
X118683113Y-101416405D01*
X118683105Y-101416420D01*
X118657783Y-101467065D01*
X118639710Y-101550336D01*
X118627257Y-101607715D01*
X118637593Y-101751265D01*
X118687612Y-101885179D01*
X118687953Y-101886091D01*
X118739627Y-101955050D01*
X118764076Y-102020502D01*
X118749257Y-102088782D01*
X118699875Y-102138212D01*
X118640396Y-102153408D01*
X115596446Y-102153408D01*
X115529407Y-102133723D01*
X115508765Y-102117089D01*
X115502206Y-102110530D01*
X115468721Y-102049207D01*
X115473705Y-101979515D01*
X115485535Y-101955868D01*
X115529005Y-101888158D01*
X115555817Y-101834533D01*
X115586343Y-101693885D01*
X115576007Y-101550335D01*
X115525648Y-101415511D01*
X115439343Y-101300337D01*
X115439342Y-101300335D01*
X115395241Y-101264831D01*
X115395234Y-101264826D01*
X115392643Y-101262740D01*
X115325417Y-101219582D01*
X114846326Y-100912011D01*
X114049806Y-100400655D01*
X114046834Y-100399169D01*
X114046827Y-100399165D01*
X113996182Y-100373843D01*
X113903159Y-100353653D01*
X113855533Y-100343316D01*
X113855532Y-100343316D01*
X113711980Y-100353653D01*
X113577159Y-100404011D01*
X113464060Y-100488761D01*
X113461985Y-100490316D01*
X113424388Y-100537016D01*
X113422597Y-100539804D01*
X113422591Y-100539814D01*
X112834222Y-101456295D01*
X112832423Y-101459098D01*
X112830941Y-101462061D01*
X112830933Y-101462076D01*
X112805611Y-101512721D01*
X112784994Y-101607715D01*
X112775085Y-101653371D01*
X104008565Y-101653371D01*
X103912133Y-101511059D01*
X103910547Y-101508658D01*
X103725001Y-101220279D01*
X103723433Y-101217776D01*
X103618066Y-101045016D01*
X103543238Y-100922327D01*
X103541700Y-100919735D01*
X103517159Y-100877202D01*
X103367021Y-100616997D01*
X103365536Y-100614347D01*
X103340368Y-100568139D01*
X103289414Y-100474587D01*
X103196860Y-100304656D01*
X103195418Y-100301928D01*
X103032908Y-99985032D01*
X103031519Y-99982238D01*
X103019544Y-99957365D01*
X115579620Y-99957365D01*
X116037826Y-100251528D01*
X116043600Y-100254812D01*
X116094190Y-100280106D01*
X116234698Y-100310601D01*
X116378108Y-100300275D01*
X116512795Y-100249967D01*
X116627854Y-100163749D01*
X116663330Y-100119684D01*
X116667205Y-100114305D01*
X116826310Y-99866471D01*
X115984800Y-99326232D01*
X115984799Y-99326232D01*
X115579620Y-99957364D01*
X115579620Y-99957365D01*
X103019544Y-99957365D01*
X102992638Y-99901478D01*
X102875618Y-99658414D01*
X102874289Y-99655561D01*
X102790038Y-99468537D01*
X102725239Y-99324693D01*
X102723975Y-99321787D01*
X102714799Y-99299935D01*
X102582111Y-98983932D01*
X102580910Y-98980963D01*
X102578590Y-98975008D01*
X102572965Y-98960572D01*
X114504357Y-98960572D01*
X114514683Y-99103981D01*
X114564990Y-99238666D01*
X114651210Y-99353728D01*
X114695280Y-99389207D01*
X114700654Y-99393078D01*
X115158863Y-99687243D01*
X115158864Y-99687243D01*
X115564043Y-99056111D01*
X115564043Y-99056110D01*
X115329406Y-98905476D01*
X116254921Y-98905476D01*
X117096430Y-99445715D01*
X117096431Y-99445715D01*
X117255535Y-99197886D01*
X117258815Y-99192119D01*
X117284112Y-99141523D01*
X117314608Y-99001015D01*
X117304282Y-98857606D01*
X117253975Y-98722921D01*
X117167755Y-98607859D01*
X117123685Y-98572380D01*
X117118311Y-98568509D01*
X116660101Y-98274343D01*
X116660100Y-98274343D01*
X116254921Y-98905475D01*
X116254921Y-98905476D01*
X115329406Y-98905476D01*
X114722534Y-98515871D01*
X114722533Y-98515871D01*
X114563430Y-98763701D01*
X114560149Y-98769470D01*
X114534853Y-98820064D01*
X114504357Y-98960572D01*
X102572965Y-98960572D01*
X102446554Y-98636161D01*
X102445503Y-98633362D01*
X102434102Y-98601844D01*
X102396140Y-98496892D01*
X102334821Y-98327370D01*
X102333885Y-98324686D01*
X102256749Y-98095115D01*
X114992654Y-98095115D01*
X115834164Y-98635354D01*
X115834165Y-98635354D01*
X116239344Y-98004222D01*
X116239344Y-98004221D01*
X115781139Y-97710059D01*
X115775365Y-97706775D01*
X115724775Y-97681481D01*
X115584267Y-97650986D01*
X115440857Y-97661312D01*
X115306170Y-97711620D01*
X115191111Y-97797838D01*
X115155638Y-97841899D01*
X115151756Y-97847288D01*
X114992654Y-98095114D01*
X114992654Y-98095115D01*
X102256749Y-98095115D01*
X102229445Y-98013855D01*
X102228565Y-98011135D01*
X102198782Y-97915227D01*
X102130530Y-97695438D01*
X102129718Y-97692707D01*
X102120762Y-97661312D01*
X102038398Y-97372572D01*
X102037637Y-97369780D01*
X102017164Y-97291078D01*
X101953199Y-97045177D01*
X101952497Y-97042341D01*
X101951282Y-97037173D01*
X101875178Y-96713491D01*
X101874559Y-96710709D01*
X101804545Y-96377617D01*
X101803989Y-96374804D01*
X101741522Y-96037716D01*
X101741016Y-96034783D01*
X101686339Y-95693988D01*
X101685897Y-95691002D01*
X101666766Y-95549878D01*
X101639181Y-95346389D01*
X101638825Y-95343491D01*
X101600306Y-94995309D01*
X101600007Y-94992257D01*
X101589523Y-94869810D01*
X101569902Y-94640651D01*
X101569678Y-94637581D01*
X101568185Y-94612900D01*
X101548203Y-94282674D01*
X101548059Y-94279643D01*
X101535429Y-93921577D01*
X101535359Y-93918464D01*
X101531791Y-93557361D01*
X101531799Y-93554308D01*
X101537513Y-93190270D01*
X101537597Y-93187306D01*
X101546672Y-92964000D01*
X105199340Y-92964000D01*
X105219936Y-93199407D01*
X105281097Y-93427663D01*
X105380965Y-93641829D01*
X105516505Y-93835401D01*
X105664068Y-93982964D01*
X105697553Y-94044287D01*
X105692569Y-94113979D01*
X105650697Y-94169912D01*
X105641484Y-94176184D01*
X105486653Y-94271684D01*
X105362683Y-94395654D01*
X105270642Y-94544877D01*
X105215493Y-94711303D01*
X105205319Y-94810890D01*
X105205000Y-94817168D01*
X105205000Y-95214000D01*
X106276031Y-95214000D01*
X106243481Y-95264649D01*
X106205000Y-95395705D01*
X106205000Y-95532295D01*
X106243481Y-95663351D01*
X106276031Y-95714000D01*
X105205001Y-95714000D01*
X105205001Y-96110829D01*
X105205321Y-96117111D01*
X105215493Y-96216695D01*
X105270642Y-96383122D01*
X105362683Y-96532345D01*
X105486654Y-96656316D01*
X105635877Y-96748357D01*
X105802303Y-96803506D01*
X105901890Y-96813680D01*
X105908168Y-96813999D01*
X106429999Y-96813999D01*
X106430000Y-96813998D01*
X106430000Y-95872018D01*
X106544801Y-95924446D01*
X106646025Y-95939000D01*
X106713975Y-95939000D01*
X106815199Y-95924446D01*
X106930000Y-95872018D01*
X106930000Y-96813999D01*
X107451829Y-96813999D01*
X107458111Y-96813678D01*
X107557695Y-96803506D01*
X107724122Y-96748357D01*
X107873345Y-96656316D01*
X107997316Y-96532345D01*
X108089357Y-96383122D01*
X108144506Y-96216696D01*
X108154680Y-96117109D01*
X108155000Y-96110831D01*
X108155000Y-95714000D01*
X107083969Y-95714000D01*
X107116519Y-95663351D01*
X107155000Y-95532295D01*
X107155000Y-95395705D01*
X107116519Y-95264649D01*
X107083969Y-95214000D01*
X108154999Y-95214000D01*
X108154999Y-94817170D01*
X108154678Y-94810888D01*
X108144506Y-94711304D01*
X108100524Y-94578577D01*
X115281854Y-94578577D01*
X115740060Y-94872740D01*
X115745834Y-94876024D01*
X115796424Y-94901318D01*
X115936932Y-94931813D01*
X116080342Y-94921487D01*
X116215029Y-94871179D01*
X116330088Y-94784961D01*
X116365564Y-94740896D01*
X116369439Y-94735517D01*
X116528544Y-94487683D01*
X116220868Y-94290159D01*
X119309903Y-94290159D01*
X119768109Y-94584322D01*
X119773883Y-94587606D01*
X119824473Y-94612900D01*
X119964981Y-94643395D01*
X120108391Y-94633069D01*
X120243078Y-94582761D01*
X120358137Y-94496543D01*
X120393613Y-94452478D01*
X120397488Y-94447099D01*
X120556593Y-94199265D01*
X119715083Y-93659026D01*
X119715082Y-93659026D01*
X119309903Y-94290158D01*
X119309903Y-94290159D01*
X116220868Y-94290159D01*
X115687034Y-93947444D01*
X115687033Y-93947444D01*
X115281854Y-94578576D01*
X115281854Y-94578577D01*
X108100524Y-94578577D01*
X108089357Y-94544877D01*
X107997316Y-94395654D01*
X107873346Y-94271684D01*
X107718515Y-94176184D01*
X107671791Y-94124236D01*
X107660568Y-94055273D01*
X107688412Y-93991191D01*
X107695909Y-93982986D01*
X107843495Y-93835401D01*
X107979035Y-93641830D01*
X108007035Y-93581784D01*
X114206591Y-93581784D01*
X114216917Y-93725193D01*
X114267224Y-93859878D01*
X114353444Y-93974940D01*
X114397514Y-94010419D01*
X114402888Y-94014290D01*
X114861097Y-94308455D01*
X114861098Y-94308455D01*
X115266277Y-93677323D01*
X115266277Y-93677322D01*
X115031640Y-93526688D01*
X115957155Y-93526688D01*
X116798664Y-94066927D01*
X116798665Y-94066927D01*
X116957769Y-93819098D01*
X116961049Y-93813331D01*
X116986346Y-93762735D01*
X117016842Y-93622227D01*
X117006516Y-93478818D01*
X116956209Y-93344133D01*
X116918168Y-93293366D01*
X118234640Y-93293366D01*
X118244966Y-93436775D01*
X118295273Y-93571460D01*
X118381493Y-93686522D01*
X118425563Y-93722001D01*
X118430937Y-93725872D01*
X118889146Y-94020037D01*
X118889147Y-94020037D01*
X119294326Y-93388905D01*
X119294326Y-93388904D01*
X119059689Y-93238270D01*
X119985204Y-93238270D01*
X120826713Y-93778509D01*
X120826714Y-93778509D01*
X120985818Y-93530680D01*
X120989098Y-93524913D01*
X121014395Y-93474317D01*
X121044891Y-93333809D01*
X121034565Y-93190400D01*
X120984258Y-93055715D01*
X120898038Y-92940653D01*
X120853968Y-92905174D01*
X120848594Y-92901303D01*
X120390384Y-92607137D01*
X120390383Y-92607137D01*
X119985204Y-93238269D01*
X119985204Y-93238270D01*
X119059689Y-93238270D01*
X118452817Y-92848665D01*
X118452816Y-92848665D01*
X118293713Y-93096495D01*
X118290432Y-93102264D01*
X118265136Y-93152858D01*
X118234640Y-93293366D01*
X116918168Y-93293366D01*
X116869989Y-93229071D01*
X116825919Y-93193592D01*
X116820545Y-93189721D01*
X116362335Y-92895555D01*
X116362334Y-92895555D01*
X115957155Y-93526687D01*
X115957155Y-93526688D01*
X115031640Y-93526688D01*
X114424768Y-93137083D01*
X114424767Y-93137083D01*
X114265664Y-93384913D01*
X114262383Y-93390682D01*
X114237087Y-93441276D01*
X114206591Y-93581784D01*
X108007035Y-93581784D01*
X108078903Y-93427663D01*
X108140063Y-93199408D01*
X108160659Y-92964000D01*
X108140063Y-92728592D01*
X108136777Y-92716327D01*
X114694888Y-92716327D01*
X115536398Y-93256566D01*
X115536399Y-93256566D01*
X115941578Y-92625434D01*
X115941578Y-92625433D01*
X115633902Y-92427909D01*
X118722937Y-92427909D01*
X119564447Y-92968148D01*
X119564448Y-92968148D01*
X119969627Y-92337016D01*
X119969627Y-92337015D01*
X119511422Y-92042853D01*
X119505648Y-92039569D01*
X119455058Y-92014275D01*
X119314550Y-91983780D01*
X119171140Y-91994106D01*
X119036453Y-92044414D01*
X118921394Y-92130632D01*
X118885921Y-92174693D01*
X118882039Y-92180082D01*
X118722937Y-92427908D01*
X118722937Y-92427909D01*
X115633902Y-92427909D01*
X115483373Y-92331271D01*
X115477599Y-92327987D01*
X115427009Y-92302693D01*
X115286501Y-92272198D01*
X115143091Y-92282524D01*
X115008404Y-92332832D01*
X114893345Y-92419050D01*
X114857872Y-92463111D01*
X114853990Y-92468500D01*
X114694888Y-92716326D01*
X114694888Y-92716327D01*
X108136777Y-92716327D01*
X108078903Y-92500337D01*
X107979035Y-92286171D01*
X107843495Y-92092599D01*
X107676401Y-91925505D01*
X107519401Y-91815573D01*
X107475778Y-91760998D01*
X107468584Y-91691500D01*
X107500107Y-91629145D01*
X107519398Y-91612428D01*
X107676401Y-91502495D01*
X107843495Y-91335401D01*
X107979035Y-91141830D01*
X108078903Y-90927663D01*
X108140063Y-90699408D01*
X108160659Y-90464000D01*
X108140063Y-90228592D01*
X108078903Y-90000337D01*
X107979035Y-89786171D01*
X107843495Y-89592599D01*
X107676401Y-89425505D01*
X107620912Y-89386651D01*
X107482831Y-89289966D01*
X107377094Y-89240659D01*
X107324655Y-89194486D01*
X107305500Y-89128277D01*
X107305500Y-86477866D01*
X107325185Y-86410827D01*
X107377989Y-86365072D01*
X107390489Y-86360162D01*
X107424134Y-86349014D01*
X107573456Y-86256912D01*
X107697512Y-86132856D01*
X107789614Y-85983534D01*
X107844799Y-85816997D01*
X107855300Y-85714209D01*
X107855300Y-85711078D01*
X108654300Y-85711078D01*
X108654301Y-85714208D01*
X108654620Y-85717340D01*
X108654621Y-85717341D01*
X108664800Y-85816996D01*
X108719986Y-85983534D01*
X108812088Y-86132857D01*
X108936142Y-86256911D01*
X108958959Y-86270984D01*
X109032897Y-86316589D01*
X109079621Y-86368535D01*
X109091800Y-86422127D01*
X109091800Y-89101069D01*
X109089535Y-89121580D01*
X109091738Y-89191688D01*
X109091799Y-89195577D01*
X109091799Y-89219275D01*
X109091799Y-89219288D01*
X109091800Y-89223164D01*
X109092286Y-89227016D01*
X109092287Y-89227025D01*
X109092304Y-89227157D01*
X109093218Y-89238781D01*
X109094590Y-89282440D01*
X109100179Y-89301674D01*
X109104125Y-89320730D01*
X109106635Y-89340606D01*
X109122714Y-89381218D01*
X109126497Y-89392265D01*
X109138682Y-89434205D01*
X109148880Y-89451449D01*
X109157436Y-89468914D01*
X109164814Y-89487546D01*
X109164815Y-89487547D01*
X109190480Y-89522873D01*
X109196893Y-89532636D01*
X109219126Y-89570230D01*
X109219129Y-89570233D01*
X109219130Y-89570234D01*
X109233295Y-89584399D01*
X109245927Y-89599189D01*
X109257706Y-89615401D01*
X109291358Y-89643240D01*
X109299999Y-89651103D01*
X110166820Y-90517924D01*
X110200305Y-90579247D01*
X110195321Y-90648939D01*
X110183487Y-90672593D01*
X110141818Y-90737499D01*
X110141803Y-90737525D01*
X110140023Y-90740298D01*
X110138543Y-90743257D01*
X110138539Y-90743265D01*
X110113211Y-90793921D01*
X110084184Y-90927663D01*
X110082685Y-90934571D01*
X110093021Y-91078121D01*
X110143380Y-91212945D01*
X110143381Y-91212947D01*
X110229685Y-91328120D01*
X110273786Y-91363624D01*
X110276385Y-91365716D01*
X111619222Y-92227801D01*
X111672847Y-92254613D01*
X111813495Y-92285140D01*
X111957045Y-92274803D01*
X112091869Y-92224444D01*
X112207043Y-92138140D01*
X112244640Y-92091440D01*
X112836605Y-91169358D01*
X112863417Y-91115733D01*
X112893943Y-90975085D01*
X112883607Y-90831535D01*
X112833248Y-90696711D01*
X112829600Y-90691843D01*
X112746942Y-90581535D01*
X112702841Y-90546031D01*
X112702834Y-90546026D01*
X112700243Y-90543940D01*
X112653765Y-90514102D01*
X112056552Y-90130698D01*
X111357406Y-89681855D01*
X111354434Y-89680369D01*
X111354427Y-89680365D01*
X111303782Y-89655043D01*
X111249401Y-89643240D01*
X111163133Y-89624516D01*
X111163131Y-89624516D01*
X111107206Y-89628543D01*
X111038926Y-89613723D01*
X111010620Y-89592544D01*
X110379119Y-88961042D01*
X110345634Y-88899719D01*
X110342800Y-88873361D01*
X110342800Y-88241737D01*
X111811454Y-88241737D01*
X111821790Y-88385287D01*
X111866994Y-88506309D01*
X111872150Y-88520113D01*
X111958454Y-88635286D01*
X112002555Y-88670790D01*
X112005154Y-88672882D01*
X113347991Y-89534967D01*
X113350968Y-89536455D01*
X113350969Y-89536456D01*
X113401580Y-89561761D01*
X113401616Y-89561779D01*
X113542264Y-89592306D01*
X113685814Y-89581969D01*
X113820638Y-89531610D01*
X113935812Y-89445306D01*
X113973409Y-89398606D01*
X114346474Y-88817495D01*
X114399256Y-88771716D01*
X114468409Y-88761740D01*
X114531979Y-88790734D01*
X114569781Y-88849494D01*
X114569897Y-88849888D01*
X114579593Y-88883259D01*
X114583539Y-88902316D01*
X114586049Y-88922192D01*
X114602128Y-88962804D01*
X114605911Y-88973851D01*
X114618096Y-89015791D01*
X114628294Y-89033035D01*
X114636850Y-89050500D01*
X114644228Y-89069132D01*
X114646497Y-89072255D01*
X114669894Y-89104459D01*
X114676307Y-89114222D01*
X114698540Y-89151816D01*
X114698543Y-89151819D01*
X114698544Y-89151820D01*
X114712709Y-89165985D01*
X114725341Y-89180775D01*
X114737120Y-89196987D01*
X114770772Y-89224826D01*
X114779413Y-89232689D01*
X116018992Y-90472268D01*
X116052477Y-90533591D01*
X116047493Y-90603283D01*
X116035659Y-90626937D01*
X115993990Y-90691843D01*
X115993975Y-90691869D01*
X115992195Y-90694642D01*
X115990715Y-90697601D01*
X115990711Y-90697609D01*
X115965383Y-90748265D01*
X115947310Y-90831536D01*
X115934857Y-90888915D01*
X115945193Y-91032465D01*
X115986043Y-91141830D01*
X115995553Y-91167291D01*
X116081857Y-91282464D01*
X116125958Y-91317968D01*
X116128557Y-91320060D01*
X117471394Y-92182145D01*
X117525019Y-92208957D01*
X117665667Y-92239484D01*
X117809217Y-92229147D01*
X117944041Y-92178788D01*
X118059215Y-92092484D01*
X118096812Y-92045784D01*
X118688777Y-91123702D01*
X118715589Y-91070077D01*
X118746115Y-90929429D01*
X118735779Y-90785879D01*
X118685420Y-90651055D01*
X118685418Y-90651052D01*
X118599114Y-90535879D01*
X118555013Y-90500375D01*
X118555006Y-90500370D01*
X118552415Y-90498284D01*
X118493524Y-90460477D01*
X118282452Y-90324971D01*
X120191885Y-90324971D01*
X120202221Y-90468521D01*
X120247053Y-90588548D01*
X120252581Y-90603347D01*
X120338885Y-90718520D01*
X120382986Y-90754024D01*
X120385585Y-90756116D01*
X121728422Y-91618201D01*
X121782047Y-91645013D01*
X121922695Y-91675540D01*
X121978620Y-91671512D01*
X122046900Y-91686331D01*
X122075207Y-91707511D01*
X123101350Y-92733654D01*
X123134835Y-92794977D01*
X123137669Y-92821335D01*
X123137669Y-94645561D01*
X123117984Y-94712600D01*
X123088028Y-94744792D01*
X123044440Y-94777454D01*
X123012466Y-94817170D01*
X123006843Y-94824154D01*
X123005052Y-94826942D01*
X123005046Y-94826952D01*
X122442862Y-95702646D01*
X122414878Y-95746236D01*
X122413396Y-95749199D01*
X122413388Y-95749214D01*
X122388066Y-95799859D01*
X122369993Y-95883130D01*
X122357540Y-95940509D01*
X122367876Y-96084059D01*
X122410691Y-96198685D01*
X122418236Y-96218885D01*
X122504540Y-96334058D01*
X122547614Y-96368735D01*
X122551240Y-96371654D01*
X123894077Y-97233739D01*
X123947702Y-97260551D01*
X124088350Y-97291078D01*
X124231900Y-97280741D01*
X124366724Y-97230382D01*
X124481898Y-97144078D01*
X124519495Y-97097378D01*
X125111460Y-96175296D01*
X125138272Y-96121671D01*
X125168798Y-95981023D01*
X125158462Y-95837473D01*
X125108103Y-95702649D01*
X125108101Y-95702646D01*
X125021797Y-95587473D01*
X124977696Y-95551969D01*
X124977689Y-95551964D01*
X124975098Y-95549878D01*
X124947710Y-95532295D01*
X124445679Y-95209996D01*
X124399899Y-95157214D01*
X124388669Y-95105649D01*
X124388669Y-93553010D01*
X124408354Y-93485971D01*
X124461158Y-93440216D01*
X124530316Y-93430272D01*
X124579655Y-93448661D01*
X125851825Y-94265379D01*
X125905450Y-94292191D01*
X126046098Y-94322718D01*
X126189648Y-94312381D01*
X126324472Y-94262022D01*
X126439646Y-94175718D01*
X126477243Y-94129018D01*
X126701991Y-93778937D01*
X128118254Y-93778937D01*
X128128590Y-93922487D01*
X128178188Y-94055273D01*
X128178950Y-94057313D01*
X128265254Y-94172486D01*
X128309355Y-94207990D01*
X128311954Y-94210082D01*
X129654791Y-95072167D01*
X129708416Y-95098979D01*
X129849064Y-95129506D01*
X129992614Y-95119169D01*
X130127438Y-95068810D01*
X130242612Y-94982506D01*
X130280209Y-94935806D01*
X130872174Y-94013724D01*
X130898986Y-93960099D01*
X130929512Y-93819451D01*
X130919176Y-93675901D01*
X130868817Y-93541077D01*
X130802231Y-93452218D01*
X130782511Y-93425901D01*
X130738410Y-93390397D01*
X130738403Y-93390392D01*
X130735812Y-93388306D01*
X130700595Y-93365697D01*
X130295769Y-93105803D01*
X130270609Y-93084428D01*
X130196670Y-93002310D01*
X130043532Y-92891049D01*
X129928245Y-92839720D01*
X129870603Y-92814056D01*
X129848981Y-92809460D01*
X129807774Y-92792517D01*
X129746042Y-92752886D01*
X129392975Y-92526221D01*
X129390003Y-92524735D01*
X129389996Y-92524731D01*
X129339351Y-92499409D01*
X129246328Y-92479219D01*
X129198702Y-92468882D01*
X129198701Y-92468882D01*
X129055149Y-92479219D01*
X128920328Y-92529577D01*
X128816824Y-92607137D01*
X128805154Y-92615882D01*
X128767557Y-92662582D01*
X128765766Y-92665370D01*
X128765760Y-92665380D01*
X128177391Y-93581861D01*
X128175592Y-93584664D01*
X128174110Y-93587627D01*
X128174102Y-93587642D01*
X128148780Y-93638287D01*
X128129771Y-93725872D01*
X128118254Y-93778937D01*
X126701991Y-93778937D01*
X127069208Y-93206936D01*
X127096020Y-93153311D01*
X127126546Y-93012663D01*
X127116210Y-92869113D01*
X127065851Y-92734289D01*
X127061582Y-92728592D01*
X126979545Y-92619113D01*
X126935444Y-92583609D01*
X126935437Y-92583604D01*
X126932846Y-92581518D01*
X126851939Y-92529577D01*
X126150069Y-92078985D01*
X125590009Y-91719433D01*
X125587037Y-91717947D01*
X125587030Y-91717943D01*
X125536385Y-91692621D01*
X125457686Y-91675540D01*
X125395736Y-91662094D01*
X125395735Y-91662094D01*
X125252183Y-91672431D01*
X125117362Y-91722789D01*
X125002189Y-91809093D01*
X125002188Y-91809094D01*
X124964591Y-91855794D01*
X124962800Y-91858582D01*
X124962794Y-91858592D01*
X124602921Y-92419152D01*
X124550139Y-92464932D01*
X124480985Y-92474908D01*
X124417416Y-92445914D01*
X124379613Y-92387153D01*
X124375553Y-92367712D01*
X124373833Y-92354091D01*
X124357748Y-92313466D01*
X124353977Y-92302451D01*
X124341787Y-92260493D01*
X124331583Y-92243238D01*
X124323030Y-92225778D01*
X124316370Y-92208957D01*
X124315655Y-92207151D01*
X124289977Y-92171808D01*
X124283570Y-92162054D01*
X124278776Y-92153947D01*
X124261339Y-92124463D01*
X124247175Y-92110299D01*
X124234536Y-92095500D01*
X124222764Y-92079296D01*
X124189110Y-92051456D01*
X124180468Y-92043592D01*
X122919006Y-90782130D01*
X122885521Y-90720807D01*
X122890505Y-90651115D01*
X122902335Y-90627468D01*
X122945805Y-90559758D01*
X122972617Y-90506133D01*
X123003143Y-90365485D01*
X122992807Y-90221935D01*
X122942448Y-90087111D01*
X122879835Y-90003554D01*
X122856142Y-89971935D01*
X122812041Y-89936431D01*
X122812034Y-89936426D01*
X122809443Y-89934340D01*
X122741583Y-89890775D01*
X122175895Y-89527610D01*
X121466606Y-89072255D01*
X121463634Y-89070769D01*
X121463627Y-89070765D01*
X121412982Y-89045443D01*
X121319959Y-89025253D01*
X121272333Y-89014916D01*
X121272332Y-89014916D01*
X121128780Y-89025253D01*
X120993959Y-89075611D01*
X120878786Y-89161915D01*
X120878785Y-89161916D01*
X120841188Y-89208616D01*
X120839397Y-89211404D01*
X120839391Y-89211414D01*
X120262200Y-90110484D01*
X120249223Y-90130698D01*
X120247741Y-90133661D01*
X120247733Y-90133676D01*
X120222411Y-90184321D01*
X120212803Y-90228592D01*
X120191885Y-90324971D01*
X118282452Y-90324971D01*
X117908724Y-90085042D01*
X117209578Y-89636199D01*
X117206606Y-89634713D01*
X117206599Y-89634709D01*
X117155954Y-89609387D01*
X117108967Y-89599189D01*
X117015305Y-89578860D01*
X117015302Y-89578860D01*
X116959376Y-89582886D01*
X116891096Y-89568066D01*
X116862792Y-89546887D01*
X115950882Y-88634977D01*
X118990254Y-88634977D01*
X119448460Y-88929140D01*
X119454234Y-88932424D01*
X119504824Y-88957718D01*
X119645332Y-88988213D01*
X119788742Y-88977887D01*
X119923429Y-88927579D01*
X120038488Y-88841361D01*
X120073964Y-88797296D01*
X120077839Y-88791917D01*
X120182451Y-88628965D01*
X122996420Y-88628965D01*
X123454626Y-88923128D01*
X123460400Y-88926412D01*
X123510990Y-88951706D01*
X123651498Y-88982201D01*
X123794908Y-88971875D01*
X123929595Y-88921567D01*
X124044654Y-88835349D01*
X124080130Y-88791284D01*
X124084005Y-88785905D01*
X124243110Y-88538071D01*
X123401600Y-87997832D01*
X123401599Y-87997832D01*
X122996420Y-88628964D01*
X122996420Y-88628965D01*
X120182451Y-88628965D01*
X120236944Y-88544083D01*
X119395434Y-88003844D01*
X119395433Y-88003844D01*
X118990254Y-88634976D01*
X118990254Y-88634977D01*
X115950882Y-88634977D01*
X115858533Y-88542628D01*
X115825048Y-88481305D01*
X115822214Y-88454947D01*
X115822214Y-87638184D01*
X117914991Y-87638184D01*
X117925317Y-87781593D01*
X117975624Y-87916278D01*
X118061844Y-88031340D01*
X118105914Y-88066819D01*
X118111288Y-88070690D01*
X118569497Y-88364855D01*
X118569498Y-88364855D01*
X118974677Y-87733723D01*
X118974677Y-87733722D01*
X118740040Y-87583088D01*
X119665555Y-87583088D01*
X120507064Y-88123327D01*
X120507065Y-88123327D01*
X120666169Y-87875498D01*
X120669449Y-87869731D01*
X120694746Y-87819135D01*
X120725242Y-87678627D01*
X120721897Y-87632172D01*
X121921157Y-87632172D01*
X121931483Y-87775581D01*
X121981790Y-87910266D01*
X122068010Y-88025328D01*
X122112080Y-88060807D01*
X122117454Y-88064678D01*
X122575663Y-88358843D01*
X122575664Y-88358843D01*
X122980843Y-87727711D01*
X122980843Y-87727710D01*
X122746206Y-87577076D01*
X123671721Y-87577076D01*
X124513230Y-88117315D01*
X124513231Y-88117315D01*
X124672335Y-87869486D01*
X124675615Y-87863719D01*
X124700912Y-87813123D01*
X124731408Y-87672615D01*
X124721082Y-87529206D01*
X124670775Y-87394521D01*
X124584555Y-87279459D01*
X124540485Y-87243980D01*
X124535111Y-87240109D01*
X124076901Y-86945943D01*
X124076900Y-86945943D01*
X123671721Y-87577075D01*
X123671721Y-87577076D01*
X122746206Y-87577076D01*
X122139334Y-87187471D01*
X122139333Y-87187471D01*
X121980230Y-87435301D01*
X121976949Y-87441070D01*
X121951653Y-87491664D01*
X121921157Y-87632172D01*
X120721897Y-87632172D01*
X120714916Y-87535218D01*
X120664609Y-87400533D01*
X120578389Y-87285471D01*
X120534319Y-87249992D01*
X120528945Y-87246121D01*
X120070735Y-86951955D01*
X120070734Y-86951955D01*
X119665555Y-87583087D01*
X119665555Y-87583088D01*
X118740040Y-87583088D01*
X118133168Y-87193483D01*
X118133167Y-87193483D01*
X117974064Y-87441313D01*
X117970783Y-87447082D01*
X117945487Y-87497676D01*
X117914991Y-87638184D01*
X115822214Y-87638184D01*
X115822214Y-87394521D01*
X115822214Y-86772727D01*
X118403288Y-86772727D01*
X119244798Y-87312966D01*
X119244799Y-87312966D01*
X119595485Y-86766715D01*
X122409454Y-86766715D01*
X123250964Y-87306954D01*
X123250965Y-87306954D01*
X123656144Y-86675822D01*
X123656144Y-86675821D01*
X123197939Y-86381659D01*
X123192165Y-86378375D01*
X123141575Y-86353081D01*
X123001067Y-86322586D01*
X122857657Y-86332912D01*
X122722970Y-86383220D01*
X122607911Y-86469438D01*
X122572438Y-86513499D01*
X122568556Y-86518888D01*
X122409454Y-86766714D01*
X122409454Y-86766715D01*
X119595485Y-86766715D01*
X119649978Y-86681834D01*
X119649978Y-86681833D01*
X119191773Y-86387671D01*
X119185999Y-86384387D01*
X119135409Y-86359093D01*
X118994901Y-86328598D01*
X118851491Y-86338924D01*
X118716804Y-86389232D01*
X118601745Y-86475450D01*
X118566272Y-86519511D01*
X118562390Y-86524900D01*
X118403288Y-86772726D01*
X118403288Y-86772727D01*
X115822214Y-86772727D01*
X115822214Y-86326428D01*
X115841898Y-86259393D01*
X115871853Y-86227202D01*
X115915443Y-86194540D01*
X115953040Y-86147840D01*
X116545005Y-85225758D01*
X116571817Y-85172133D01*
X116602343Y-85031485D01*
X116596139Y-84945315D01*
X119643257Y-84945315D01*
X119653593Y-85088865D01*
X119700582Y-85214666D01*
X119703953Y-85223691D01*
X119790257Y-85338864D01*
X119825764Y-85367449D01*
X119836957Y-85376460D01*
X121179794Y-86238545D01*
X121233419Y-86265357D01*
X121374067Y-86295884D01*
X121517617Y-86285547D01*
X121652441Y-86235188D01*
X121767615Y-86148884D01*
X121805212Y-86102184D01*
X122397177Y-85180102D01*
X122423989Y-85126477D01*
X122454515Y-84985829D01*
X122444179Y-84842279D01*
X122393820Y-84707455D01*
X122382373Y-84692179D01*
X122371657Y-84677878D01*
X122347208Y-84612426D01*
X122362027Y-84544146D01*
X122383203Y-84515843D01*
X123382429Y-83516619D01*
X123443753Y-83483134D01*
X123470111Y-83480300D01*
X124715597Y-83480300D01*
X124782636Y-83499985D01*
X124828391Y-83552789D01*
X124838335Y-83621947D01*
X124809310Y-83685503D01*
X124758985Y-83720461D01*
X124702358Y-83741611D01*
X124587186Y-83827915D01*
X124587185Y-83827916D01*
X124549588Y-83874616D01*
X124547797Y-83877404D01*
X124547791Y-83877414D01*
X123959422Y-84793895D01*
X123957623Y-84796698D01*
X123956141Y-84799661D01*
X123956133Y-84799676D01*
X123930811Y-84850321D01*
X123922512Y-84888560D01*
X123900285Y-84990971D01*
X123910621Y-85134521D01*
X123960980Y-85269345D01*
X123960981Y-85269347D01*
X124047285Y-85384520D01*
X124084895Y-85414798D01*
X124093985Y-85422116D01*
X125436822Y-86284201D01*
X125490447Y-86311013D01*
X125631095Y-86341540D01*
X125687020Y-86337512D01*
X125755300Y-86352331D01*
X125783607Y-86373511D01*
X126787867Y-87377771D01*
X126821352Y-87439094D01*
X126824186Y-87465452D01*
X126824186Y-88984367D01*
X126804501Y-89051406D01*
X126774545Y-89083598D01*
X126730957Y-89116260D01*
X126702329Y-89151820D01*
X126693360Y-89162960D01*
X126691569Y-89165748D01*
X126691563Y-89165758D01*
X126153709Y-90003554D01*
X126101395Y-90085042D01*
X126099913Y-90088005D01*
X126099905Y-90088020D01*
X126074583Y-90138665D01*
X126056510Y-90221936D01*
X126044057Y-90279315D01*
X126054393Y-90422865D01*
X126099225Y-90542892D01*
X126104753Y-90557691D01*
X126191057Y-90672864D01*
X126235158Y-90708368D01*
X126237757Y-90710460D01*
X127580594Y-91572545D01*
X127634219Y-91599357D01*
X127774867Y-91629884D01*
X127918417Y-91619547D01*
X128053241Y-91569188D01*
X128168415Y-91482884D01*
X128206012Y-91436184D01*
X128797977Y-90514102D01*
X128824789Y-90460477D01*
X128855315Y-90319829D01*
X128844979Y-90176279D01*
X128794620Y-90041455D01*
X128766219Y-90003554D01*
X128708314Y-89926279D01*
X128664213Y-89890775D01*
X128664206Y-89890770D01*
X128661615Y-89888684D01*
X128550221Y-89817170D01*
X128132195Y-89548802D01*
X128086415Y-89496020D01*
X128075185Y-89444459D01*
X128075185Y-88204960D01*
X128094870Y-88137922D01*
X128147674Y-88092167D01*
X128216832Y-88082223D01*
X128266172Y-88100613D01*
X129560225Y-88931379D01*
X129613850Y-88958191D01*
X129754498Y-88988718D01*
X129898048Y-88978381D01*
X130032872Y-88928022D01*
X130148046Y-88841718D01*
X130185643Y-88795018D01*
X130777608Y-87872936D01*
X130804420Y-87819311D01*
X130834946Y-87678663D01*
X130824610Y-87535113D01*
X130774251Y-87400289D01*
X130769929Y-87394521D01*
X130687945Y-87285113D01*
X130643844Y-87249609D01*
X130643837Y-87249604D01*
X130641246Y-87247518D01*
X130589553Y-87214332D01*
X129901682Y-86772727D01*
X129298409Y-86385433D01*
X129295437Y-86383947D01*
X129295430Y-86383943D01*
X129244785Y-86358621D01*
X129166086Y-86341540D01*
X129104136Y-86328094D01*
X129104135Y-86328094D01*
X128960583Y-86338431D01*
X128825762Y-86388789D01*
X128718136Y-86469438D01*
X128710588Y-86475094D01*
X128708356Y-86477866D01*
X128675331Y-86518888D01*
X128672991Y-86521794D01*
X128671200Y-86524582D01*
X128671194Y-86524592D01*
X128299925Y-87102903D01*
X128247143Y-87148683D01*
X128177989Y-87158659D01*
X128114420Y-87129665D01*
X128076617Y-87070904D01*
X128076503Y-87070511D01*
X128066808Y-87037144D01*
X128062860Y-87018082D01*
X128060350Y-86998208D01*
X128057425Y-86990820D01*
X128044264Y-86957581D01*
X128040491Y-86946560D01*
X128028303Y-86904610D01*
X128018107Y-86887369D01*
X128009549Y-86869902D01*
X128002172Y-86851268D01*
X127976484Y-86815912D01*
X127970095Y-86806184D01*
X127947856Y-86768579D01*
X127933692Y-86754415D01*
X127921055Y-86739620D01*
X127909281Y-86723414D01*
X127909280Y-86723413D01*
X127875621Y-86695568D01*
X127866991Y-86687714D01*
X126627407Y-85448130D01*
X126593922Y-85386807D01*
X126598906Y-85317115D01*
X126610738Y-85293464D01*
X126631936Y-85260444D01*
X126684715Y-85214666D01*
X126753869Y-85204689D01*
X126817439Y-85233682D01*
X126823963Y-85239754D01*
X126933568Y-85349359D01*
X126946468Y-85365460D01*
X126948585Y-85367448D01*
X126948586Y-85367449D01*
X126985742Y-85402341D01*
X126997595Y-85413472D01*
X127000392Y-85416183D01*
X127019901Y-85435692D01*
X127023081Y-85438159D01*
X127031943Y-85445727D01*
X127063790Y-85475634D01*
X127081342Y-85485283D01*
X127097610Y-85495969D01*
X127113436Y-85508245D01*
X127153518Y-85525589D01*
X127164005Y-85530727D01*
X127202279Y-85551769D01*
X127210782Y-85553951D01*
X127221680Y-85556750D01*
X127240085Y-85563050D01*
X127258476Y-85571009D01*
X127301622Y-85577842D01*
X127313040Y-85580207D01*
X127355353Y-85591072D01*
X127375388Y-85591072D01*
X127394787Y-85592599D01*
X127414568Y-85595732D01*
X127458046Y-85591622D01*
X127469716Y-85591072D01*
X130244073Y-85591072D01*
X130311062Y-85610724D01*
X131288994Y-86238545D01*
X131342619Y-86265357D01*
X131483267Y-86295884D01*
X131626817Y-86285547D01*
X131761641Y-86235188D01*
X131876815Y-86148884D01*
X131914412Y-86102184D01*
X132506377Y-85180102D01*
X132533189Y-85126477D01*
X132563715Y-84985829D01*
X132553379Y-84842279D01*
X132503020Y-84707455D01*
X132491573Y-84692179D01*
X132416714Y-84592279D01*
X132372613Y-84556775D01*
X132372606Y-84556770D01*
X132370015Y-84554684D01*
X132005059Y-84320387D01*
X131573975Y-84043636D01*
X131027178Y-83692599D01*
X131024206Y-83691113D01*
X131024199Y-83691109D01*
X130973554Y-83665787D01*
X130894855Y-83648706D01*
X130832905Y-83635260D01*
X130832904Y-83635260D01*
X130689352Y-83645597D01*
X130554531Y-83695955D01*
X130493602Y-83741612D01*
X130439357Y-83782260D01*
X130436563Y-83785731D01*
X130404942Y-83825008D01*
X130401760Y-83828960D01*
X130399969Y-83831748D01*
X130399963Y-83831758D01*
X130231052Y-84094866D01*
X130124138Y-84261403D01*
X130110233Y-84283062D01*
X130057451Y-84328842D01*
X130005886Y-84340072D01*
X127744825Y-84340072D01*
X127677786Y-84320387D01*
X127657144Y-84303753D01*
X127200621Y-83847230D01*
X127167136Y-83785907D01*
X127172120Y-83716215D01*
X127213992Y-83660282D01*
X127279456Y-83635865D01*
X127314603Y-83638370D01*
X127359900Y-83648201D01*
X127503308Y-83637875D01*
X127637995Y-83587567D01*
X127753054Y-83501349D01*
X127788530Y-83457284D01*
X127792405Y-83451905D01*
X127951510Y-83204071D01*
X126715892Y-82410819D01*
X126715889Y-82410815D01*
X126454608Y-82243076D01*
X127380121Y-82243076D01*
X128221630Y-82783315D01*
X128221631Y-82783315D01*
X128380735Y-82535486D01*
X128384015Y-82529719D01*
X128409312Y-82479123D01*
X128439808Y-82338615D01*
X128429482Y-82195206D01*
X128379175Y-82060521D01*
X128292955Y-81945459D01*
X128248885Y-81909980D01*
X128243511Y-81906109D01*
X127785301Y-81611943D01*
X127785300Y-81611943D01*
X127380121Y-82243075D01*
X127380121Y-82243076D01*
X126454608Y-82243076D01*
X125847734Y-81853471D01*
X125847733Y-81853471D01*
X125688630Y-82101301D01*
X125685349Y-82107070D01*
X125653088Y-82171597D01*
X125652572Y-82171339D01*
X125626608Y-82218939D01*
X125565300Y-82252451D01*
X125515426Y-82248905D01*
X125514966Y-82251813D01*
X125499497Y-82249362D01*
X125499496Y-82249362D01*
X125456359Y-82242529D01*
X125444924Y-82240161D01*
X125402619Y-82229300D01*
X125382584Y-82229300D01*
X125363186Y-82227773D01*
X125355762Y-82226597D01*
X125343405Y-82224640D01*
X125343404Y-82224640D01*
X125317084Y-82227128D01*
X125299925Y-82228750D01*
X125288256Y-82229300D01*
X123242398Y-82229300D01*
X123221894Y-82227036D01*
X123151802Y-82229239D01*
X123147908Y-82229300D01*
X123120308Y-82229300D01*
X123116447Y-82229787D01*
X123116436Y-82229788D01*
X123116303Y-82229805D01*
X123104687Y-82230718D01*
X123061026Y-82232090D01*
X123041787Y-82237680D01*
X123022738Y-82241625D01*
X123002866Y-82244135D01*
X122962251Y-82260215D01*
X122951207Y-82263996D01*
X122909269Y-82276182D01*
X122892022Y-82286381D01*
X122874558Y-82294936D01*
X122855925Y-82302314D01*
X122820584Y-82327989D01*
X122810826Y-82334399D01*
X122773237Y-82356629D01*
X122759068Y-82370798D01*
X122744280Y-82383428D01*
X122728071Y-82395205D01*
X122700230Y-82428858D01*
X122692369Y-82437496D01*
X121304857Y-83825008D01*
X121243534Y-83858493D01*
X121173842Y-83853509D01*
X121150186Y-83841674D01*
X120989094Y-83738255D01*
X120917978Y-83692599D01*
X120915006Y-83691113D01*
X120914999Y-83691109D01*
X120864354Y-83665787D01*
X120785655Y-83648706D01*
X120723705Y-83635260D01*
X120723704Y-83635260D01*
X120580152Y-83645597D01*
X120445331Y-83695955D01*
X120384402Y-83741612D01*
X120330157Y-83782260D01*
X120327363Y-83785731D01*
X120295742Y-83825008D01*
X120292560Y-83828960D01*
X120290769Y-83831748D01*
X120290763Y-83831758D01*
X119728579Y-84707452D01*
X119700595Y-84751042D01*
X119699113Y-84754005D01*
X119699105Y-84754020D01*
X119673783Y-84804665D01*
X119655710Y-84887936D01*
X119643257Y-84945315D01*
X116596139Y-84945315D01*
X116592007Y-84887935D01*
X116541648Y-84753111D01*
X116495989Y-84692179D01*
X116455342Y-84637935D01*
X116411241Y-84602431D01*
X116411234Y-84602426D01*
X116408643Y-84600340D01*
X116340783Y-84556775D01*
X115535072Y-84039518D01*
X115065806Y-83738255D01*
X115062834Y-83736769D01*
X115062827Y-83736765D01*
X115012182Y-83711443D01*
X114919159Y-83691253D01*
X114871533Y-83680916D01*
X114871532Y-83680916D01*
X114727980Y-83691253D01*
X114593159Y-83741611D01*
X114477986Y-83827915D01*
X114477985Y-83827916D01*
X114440388Y-83874616D01*
X114438597Y-83877404D01*
X114438591Y-83877414D01*
X113850222Y-84793895D01*
X113848423Y-84796698D01*
X113846941Y-84799661D01*
X113846933Y-84799676D01*
X113821611Y-84850321D01*
X113813312Y-84888560D01*
X113791085Y-84990971D01*
X113801421Y-85134521D01*
X113851780Y-85269345D01*
X113851781Y-85269347D01*
X113938085Y-85384520D01*
X113975695Y-85414798D01*
X113984785Y-85422116D01*
X114444646Y-85717341D01*
X114514204Y-85761996D01*
X114559984Y-85814778D01*
X114571214Y-85866343D01*
X114571214Y-87715437D01*
X114551529Y-87782476D01*
X114498725Y-87828231D01*
X114429567Y-87838175D01*
X114380224Y-87819784D01*
X113263565Y-87102903D01*
X113086175Y-86989021D01*
X113083203Y-86987535D01*
X113083196Y-86987531D01*
X113032551Y-86962209D01*
X112939528Y-86942019D01*
X112891902Y-86931682D01*
X112891901Y-86931682D01*
X112748349Y-86942019D01*
X112613528Y-86992377D01*
X112498355Y-87078681D01*
X112498354Y-87078682D01*
X112460757Y-87125382D01*
X112458966Y-87128170D01*
X112458960Y-87128180D01*
X111952854Y-87916523D01*
X111868792Y-88047464D01*
X111867310Y-88050427D01*
X111867302Y-88050442D01*
X111841980Y-88101087D01*
X111835117Y-88132708D01*
X111811454Y-88241737D01*
X110342800Y-88241737D01*
X110342800Y-86422127D01*
X110362485Y-86355088D01*
X110401701Y-86316590D01*
X110498456Y-86256912D01*
X110622512Y-86132856D01*
X110714614Y-85983534D01*
X110769799Y-85816997D01*
X110780300Y-85714209D01*
X110780299Y-84364192D01*
X110769799Y-84261403D01*
X110714614Y-84094866D01*
X110622512Y-83945544D01*
X110622511Y-83945542D01*
X110498457Y-83821488D01*
X110349134Y-83729386D01*
X110182597Y-83674200D01*
X110082941Y-83664019D01*
X110082922Y-83664018D01*
X110079809Y-83663700D01*
X110076660Y-83663700D01*
X109357941Y-83663700D01*
X109357921Y-83663700D01*
X109354792Y-83663701D01*
X109351660Y-83664020D01*
X109351658Y-83664021D01*
X109252003Y-83674200D01*
X109085465Y-83729386D01*
X108936142Y-83821488D01*
X108812088Y-83945542D01*
X108719986Y-84094865D01*
X108664800Y-84261402D01*
X108654619Y-84361058D01*
X108654617Y-84361078D01*
X108654300Y-84364191D01*
X108654300Y-84367338D01*
X108654300Y-84367339D01*
X108654300Y-85711059D01*
X108654300Y-85711078D01*
X107855300Y-85711078D01*
X107855299Y-84364192D01*
X107844799Y-84261403D01*
X107789614Y-84094866D01*
X107697512Y-83945544D01*
X107697511Y-83945542D01*
X107573457Y-83821488D01*
X107424134Y-83729386D01*
X107257597Y-83674200D01*
X107157941Y-83664019D01*
X107157922Y-83664018D01*
X107154809Y-83663700D01*
X107151660Y-83663700D01*
X106432941Y-83663700D01*
X106432921Y-83663700D01*
X106429792Y-83663701D01*
X106426660Y-83664020D01*
X106426658Y-83664021D01*
X106327003Y-83674200D01*
X106160465Y-83729386D01*
X106011142Y-83821488D01*
X105887088Y-83945542D01*
X105794986Y-84094865D01*
X105739800Y-84261402D01*
X105729619Y-84361058D01*
X105729617Y-84361078D01*
X105729300Y-84364191D01*
X105729300Y-84367338D01*
X105729300Y-84367339D01*
X105729300Y-85711059D01*
X105729300Y-85711078D01*
X105729301Y-85714208D01*
X105729620Y-85717340D01*
X105729621Y-85717341D01*
X105739800Y-85816996D01*
X105794986Y-85983534D01*
X105887086Y-86132854D01*
X105887087Y-86132855D01*
X105887088Y-86132856D01*
X106011144Y-86256912D01*
X106011146Y-86256913D01*
X106018181Y-86263948D01*
X106051666Y-86325271D01*
X106054500Y-86351630D01*
X106054500Y-89128277D01*
X106034815Y-89195316D01*
X105982906Y-89240659D01*
X105877168Y-89289966D01*
X105683598Y-89425505D01*
X105516508Y-89592595D01*
X105516505Y-89592598D01*
X105516505Y-89592599D01*
X105389812Y-89773536D01*
X105380964Y-89786172D01*
X105281097Y-90000337D01*
X105219936Y-90228592D01*
X105199340Y-90463999D01*
X105219936Y-90699407D01*
X105255340Y-90831535D01*
X105281097Y-90927663D01*
X105380965Y-91141829D01*
X105516505Y-91335401D01*
X105683599Y-91502495D01*
X105821933Y-91599357D01*
X105840596Y-91612425D01*
X105884221Y-91667002D01*
X105891415Y-91736500D01*
X105859892Y-91798855D01*
X105840596Y-91815575D01*
X105683598Y-91925505D01*
X105516508Y-92092595D01*
X105516505Y-92092598D01*
X105516505Y-92092599D01*
X105381687Y-92285140D01*
X105380964Y-92286172D01*
X105281097Y-92500337D01*
X105219936Y-92728592D01*
X105199340Y-92964000D01*
X101546672Y-92964000D01*
X101551514Y-92844839D01*
X101551663Y-92842021D01*
X101573845Y-92499892D01*
X101574072Y-92496949D01*
X101576035Y-92474908D01*
X101604478Y-92155435D01*
X101604774Y-92152506D01*
X101643395Y-91811568D01*
X101643746Y-91808774D01*
X101690536Y-91468759D01*
X101690962Y-91465911D01*
X101745903Y-91126926D01*
X101746386Y-91124162D01*
X101809429Y-90786531D01*
X101809989Y-90783716D01*
X101881109Y-90447583D01*
X101881733Y-90444799D01*
X101960891Y-90110396D01*
X101961567Y-90107686D01*
X102048764Y-89775092D01*
X102049519Y-89772346D01*
X102144693Y-89441880D01*
X102145518Y-89439140D01*
X102248612Y-89111080D01*
X102249511Y-89108334D01*
X102360524Y-88782760D01*
X102361520Y-88779956D01*
X102480383Y-88457188D01*
X102481432Y-88454442D01*
X102608186Y-88134474D01*
X102609268Y-88131837D01*
X102743889Y-87814866D01*
X102745056Y-87812210D01*
X102886647Y-87500209D01*
X102887879Y-87497580D01*
X103037030Y-87188992D01*
X103038351Y-87186342D01*
X103059475Y-87145202D01*
X103194931Y-86881381D01*
X103196316Y-86878764D01*
X103197815Y-86876011D01*
X103360213Y-86577607D01*
X103361656Y-86575029D01*
X103532804Y-86277764D01*
X103534305Y-86275230D01*
X103540309Y-86265357D01*
X103712566Y-85982083D01*
X103714053Y-85979701D01*
X103899307Y-85690858D01*
X103900922Y-85688406D01*
X104093088Y-85403993D01*
X104094725Y-85401631D01*
X104293635Y-85121909D01*
X104295333Y-85119579D01*
X104500957Y-84844600D01*
X104502739Y-84842279D01*
X104714834Y-84572391D01*
X104716641Y-84570147D01*
X104935333Y-84305226D01*
X104937143Y-84303087D01*
X105162097Y-84043579D01*
X105163989Y-84041449D01*
X105395199Y-83787405D01*
X105397158Y-83785305D01*
X105634447Y-83536969D01*
X105636542Y-83534830D01*
X105879802Y-83292362D01*
X105881848Y-83290371D01*
X106131044Y-83053828D01*
X106133189Y-83051840D01*
X106388090Y-82821395D01*
X106390293Y-82819452D01*
X106650654Y-82595280D01*
X106652839Y-82593445D01*
X106918561Y-82375597D01*
X106920791Y-82373813D01*
X107017767Y-82298137D01*
X115519854Y-82298137D01*
X115530190Y-82441687D01*
X115580549Y-82576511D01*
X115580550Y-82576513D01*
X115666854Y-82691686D01*
X115710955Y-82727190D01*
X115713554Y-82729282D01*
X117056391Y-83591367D01*
X117110016Y-83618179D01*
X117250664Y-83648706D01*
X117394214Y-83638369D01*
X117529038Y-83588010D01*
X117644212Y-83501706D01*
X117681809Y-83455006D01*
X118273774Y-82532924D01*
X118300586Y-82479299D01*
X118331112Y-82338651D01*
X118320776Y-82195101D01*
X118270417Y-82060277D01*
X118190878Y-81954132D01*
X118184111Y-81945101D01*
X118140010Y-81909597D01*
X118140003Y-81909592D01*
X118137412Y-81907506D01*
X117891276Y-81749490D01*
X117413395Y-81442696D01*
X117397848Y-81432715D01*
X126117854Y-81432715D01*
X126959364Y-81972954D01*
X126959365Y-81972954D01*
X127364544Y-81341822D01*
X127364544Y-81341821D01*
X126906339Y-81047659D01*
X126900565Y-81044375D01*
X126849975Y-81019081D01*
X126709467Y-80988586D01*
X126566057Y-80998912D01*
X126431370Y-81049220D01*
X126316311Y-81135438D01*
X126280838Y-81179499D01*
X126276956Y-81184888D01*
X126117854Y-81432714D01*
X126117854Y-81432715D01*
X117397848Y-81432715D01*
X116794575Y-81045421D01*
X116791603Y-81043935D01*
X116791596Y-81043931D01*
X116740951Y-81018609D01*
X116647928Y-80998419D01*
X116600302Y-80988082D01*
X116600301Y-80988082D01*
X116456749Y-80998419D01*
X116321928Y-81048777D01*
X116206755Y-81135081D01*
X116206754Y-81135082D01*
X116169157Y-81181782D01*
X116167366Y-81184570D01*
X116167360Y-81184580D01*
X115578991Y-82101061D01*
X115577192Y-82103864D01*
X115575710Y-82106827D01*
X115575702Y-82106842D01*
X115550380Y-82157487D01*
X115521328Y-82291345D01*
X115519854Y-82298137D01*
X107017767Y-82298137D01*
X107191740Y-82162376D01*
X107194042Y-82160624D01*
X107470007Y-81955744D01*
X107472340Y-81954055D01*
X107753166Y-81755836D01*
X107755553Y-81754194D01*
X108040957Y-81562822D01*
X108043387Y-81561234D01*
X108333459Y-81376653D01*
X108335891Y-81375146D01*
X108630276Y-81197586D01*
X108632700Y-81196164D01*
X108931213Y-81025747D01*
X108933731Y-81024349D01*
X109236336Y-80861110D01*
X109238831Y-80859803D01*
X109545286Y-80703895D01*
X109547832Y-80702640D01*
X109857878Y-80554219D01*
X109860467Y-80553017D01*
X110174171Y-80412082D01*
X110176740Y-80410966D01*
X110493650Y-80277760D01*
X110496397Y-80276645D01*
X110816244Y-80151288D01*
X110818960Y-80150263D01*
X111141758Y-80032718D01*
X111144513Y-80031752D01*
X111470031Y-79922067D01*
X111472742Y-79921189D01*
X111800969Y-79819341D01*
X111803695Y-79818531D01*
X112080147Y-79739991D01*
X112134200Y-79724635D01*
X112137062Y-79723858D01*
X112469715Y-79637926D01*
X112472459Y-79637252D01*
X112807060Y-79559326D01*
X112809933Y-79558693D01*
X113146335Y-79488797D01*
X113149170Y-79488244D01*
X113487175Y-79426421D01*
X113489959Y-79425946D01*
X113829295Y-79372246D01*
X113832200Y-79371822D01*
X114172608Y-79326289D01*
X114175540Y-79325932D01*
X114516974Y-79288587D01*
X114519907Y-79288302D01*
X114862178Y-79259184D01*
X114865088Y-79258972D01*
X115207825Y-79238131D01*
X115210782Y-79237988D01*
X115553917Y-79225456D01*
X115556782Y-79225385D01*
X115901640Y-79221183D01*
X116465813Y-79221183D01*
X116517169Y-79221183D01*
X116517172Y-79221181D01*
X117036181Y-79221181D01*
X117087538Y-79221181D01*
X117087541Y-79221179D01*
X117612402Y-79221179D01*
X117663759Y-79221179D01*
X117663763Y-79221177D01*
X118142698Y-79221176D01*
X118245412Y-79221176D01*
X118245416Y-79221174D01*
X118729366Y-79221173D01*
X118832080Y-79221173D01*
X118832085Y-79221171D01*
X119269268Y-79221169D01*
X119423341Y-79221169D01*
X119423346Y-79221167D01*
X119864703Y-79221165D01*
X120018776Y-79221165D01*
X120018781Y-79221163D01*
X120463893Y-79221161D01*
X120617966Y-79221161D01*
X120617971Y-79221159D01*
X121066420Y-79221157D01*
X121220490Y-79221157D01*
X121220495Y-79221155D01*
X121620499Y-79221153D01*
X121825931Y-79221152D01*
X121825936Y-79221150D01*
X122279795Y-79221148D01*
X122433865Y-79221148D01*
X122433870Y-79221146D01*
X122838448Y-79221144D01*
X123043877Y-79221143D01*
X123043882Y-79221141D01*
X123450116Y-79221139D01*
X123655545Y-79221138D01*
X123655550Y-79221136D01*
X124063020Y-79221134D01*
X124268452Y-79221133D01*
X124268457Y-79221131D01*
X124728103Y-79221129D01*
X124882173Y-79221129D01*
X124882178Y-79221127D01*
X125290862Y-79221125D01*
X125496294Y-79221124D01*
X125496299Y-79221122D01*
X125956319Y-79221120D01*
X126110392Y-79221120D01*
X126110397Y-79221118D01*
X126569975Y-79221116D01*
X126724048Y-79221116D01*
X126724052Y-79221114D01*
X127234129Y-79221113D01*
X127336843Y-79221113D01*
X127336847Y-79221111D01*
X127845643Y-79221110D01*
X127948357Y-79221110D01*
X127948361Y-79221108D01*
X128455457Y-79221107D01*
X128558171Y-79221107D01*
X128558175Y-79221105D01*
X129114509Y-79221105D01*
X129165866Y-79221105D01*
X129165869Y-79221103D01*
X129719663Y-79221103D01*
X129771018Y-79221103D01*
X129771027Y-79221102D01*
X130321857Y-79221102D01*
X130920475Y-79221102D01*
X131490825Y-79221102D01*
X131490829Y-79221103D01*
G37*
G04 #@! TD.AperFunction*
M02*
