G04 #@! TF.GenerationSoftware,KiCad,Pcbnew,7.0.2-0*
G04 #@! TF.CreationDate,2023-12-21T10:07:40-08:00*
G04 #@! TF.ProjectId,MM Skirt,4d4d2053-6b69-4727-942e-6b696361645f,rev?*
G04 #@! TF.SameCoordinates,Original*
G04 #@! TF.FileFunction,Legend,Top*
G04 #@! TF.FilePolarity,Positive*
%FSLAX46Y46*%
G04 Gerber Fmt 4.6, Leading zero omitted, Abs format (unit mm)*
G04 Created by KiCad (PCBNEW 7.0.2-0) date 2023-12-21 10:07:40*
%MOMM*%
%LPD*%
G01*
G04 APERTURE LIST*
G04 Aperture macros list*
%AMRoundRect*
0 Rectangle with rounded corners*
0 $1 Rounding radius*
0 $2 $3 $4 $5 $6 $7 $8 $9 X,Y pos of 4 corners*
0 Add a 4 corners polygon primitive as box body*
4,1,4,$2,$3,$4,$5,$6,$7,$8,$9,$2,$3,0*
0 Add four circle primitives for the rounded corners*
1,1,$1+$1,$2,$3*
1,1,$1+$1,$4,$5*
1,1,$1+$1,$6,$7*
1,1,$1+$1,$8,$9*
0 Add four rect primitives between the rounded corners*
20,1,$1+$1,$2,$3,$4,$5,0*
20,1,$1+$1,$4,$5,$6,$7,0*
20,1,$1+$1,$6,$7,$8,$9,0*
20,1,$1+$1,$8,$9,$2,$3,0*%
%AMRotRect*
0 Rectangle, with rotation*
0 The origin of the aperture is its center*
0 $1 length*
0 $2 width*
0 $3 Rotation angle, in degrees counterclockwise*
0 Add horizontal line*
21,1,$1,$2,0,0,$3*%
G04 Aperture macros list end*
%ADD10C,0.150000*%
%ADD11C,0.120000*%
%ADD12C,0.380155*%
%ADD13O,1.950000X1.700000*%
%ADD14RotRect,1.500000X1.000000X147.300000*%
%ADD15RotRect,1.500000X1.000000X327.300000*%
%ADD16RoundRect,0.250000X-0.312500X-0.625000X0.312500X-0.625000X0.312500X0.625000X-0.312500X0.625000X0*%
%ADD17RoundRect,0.250000X-0.725000X0.600000X-0.725000X-0.600000X0.725000X-0.600000X0.725000X0.600000X0*%
%ADD18RoundRect,0.250000X0.725000X-0.600000X0.725000X0.600000X-0.725000X0.600000X-0.725000X-0.600000X0*%
G04 APERTURE END LIST*
D10*
X108088133Y-83681819D02*
X107754800Y-83205628D01*
X107516705Y-83681819D02*
X107516705Y-82681819D01*
X107516705Y-82681819D02*
X107897657Y-82681819D01*
X107897657Y-82681819D02*
X107992895Y-82729438D01*
X107992895Y-82729438D02*
X108040514Y-82777057D01*
X108040514Y-82777057D02*
X108088133Y-82872295D01*
X108088133Y-82872295D02*
X108088133Y-83015152D01*
X108088133Y-83015152D02*
X108040514Y-83110390D01*
X108040514Y-83110390D02*
X107992895Y-83158009D01*
X107992895Y-83158009D02*
X107897657Y-83205628D01*
X107897657Y-83205628D02*
X107516705Y-83205628D01*
X109040514Y-83681819D02*
X108469086Y-83681819D01*
X108754800Y-83681819D02*
X108754800Y-82681819D01*
X108754800Y-82681819D02*
X108659562Y-82824676D01*
X108659562Y-82824676D02*
X108564324Y-82919914D01*
X108564324Y-82919914D02*
X108469086Y-82967533D01*
D11*
X119708653Y-89274432D02*
X113565625Y-85330677D01*
X122679975Y-84646123D02*
X116536947Y-80702368D01*
D12*
X120477931Y-88279682D02*
G75*
G03*
X120477931Y-88279682I-190077J0D01*
G01*
D11*
X117374784Y-81248331D02*
X116050730Y-81459728D01*
X116536947Y-80702368D01*
X117374784Y-81248331D01*
G36*
X117374784Y-81248331D02*
G01*
X116050730Y-81459728D01*
X116536947Y-80702368D01*
X117374784Y-81248331D01*
G37*
X126646147Y-80702368D02*
X132789175Y-84646123D01*
X123674825Y-85330677D02*
X129817853Y-89274432D01*
D12*
X126257023Y-81697118D02*
G75*
G03*
X126257023Y-81697118I-190077J0D01*
G01*
D11*
X129817853Y-89274432D02*
X128980016Y-88728469D01*
X130304070Y-88517072D01*
X129817853Y-89274432D01*
G36*
X129817853Y-89274432D02*
G01*
X128980016Y-88728469D01*
X130304070Y-88517072D01*
X129817853Y-89274432D01*
G37*
X115520947Y-97364768D02*
X121663975Y-101308523D01*
X112549625Y-101993077D02*
X118692653Y-105936832D01*
D12*
X115131823Y-98359518D02*
G75*
G03*
X115131823Y-98359518I-190077J0D01*
G01*
D11*
X118692653Y-105936832D02*
X117854816Y-105390869D01*
X119178870Y-105179472D01*
X118692653Y-105936832D01*
G36*
X118692653Y-105936832D02*
G01*
X117854816Y-105390869D01*
X119178870Y-105179472D01*
X118692653Y-105936832D01*
G37*
X128547853Y-106444832D02*
X122404825Y-102501077D01*
X131519175Y-101816523D02*
X125376147Y-97872768D01*
D12*
X129317131Y-105450082D02*
G75*
G03*
X129317131Y-105450082I-190077J0D01*
G01*
D11*
X126213984Y-98418731D02*
X124889930Y-98630128D01*
X125376147Y-97872768D01*
X126213984Y-98418731D01*
G36*
X126213984Y-98418731D02*
G01*
X124889930Y-98630128D01*
X125376147Y-97872768D01*
X126213984Y-98418731D01*
G37*
X132307053Y-100755232D02*
X126164025Y-96811477D01*
X135278375Y-96126923D02*
X129135347Y-92183168D01*
D12*
X133076331Y-99760482D02*
G75*
G03*
X133076331Y-99760482I-190077J0D01*
G01*
D11*
X129973184Y-92729131D02*
X128649130Y-92940528D01*
X129135347Y-92183168D01*
X129973184Y-92729131D01*
G36*
X129973184Y-92729131D02*
G01*
X128649130Y-92940528D01*
X129135347Y-92183168D01*
X129973184Y-92729131D01*
G37*
X119251230Y-91697562D02*
X125394258Y-95641317D01*
X116279908Y-96325871D02*
X122422936Y-100269626D01*
D12*
X118862106Y-92692312D02*
G75*
G03*
X118862106Y-92692312I-190077J0D01*
G01*
D11*
X122422936Y-100269626D02*
X121585099Y-99723663D01*
X122909153Y-99512266D01*
X122422936Y-100269626D01*
G36*
X122422936Y-100269626D02*
G01*
X121585099Y-99723663D01*
X122909153Y-99512266D01*
X122422936Y-100269626D01*
G37*
X107527736Y-84129200D02*
X108981864Y-84129200D01*
X107527736Y-85949200D02*
X108981864Y-85949200D01*
X122937747Y-86036368D02*
X129080775Y-89980123D01*
X119966425Y-90664677D02*
X126109453Y-94608432D01*
D12*
X122548623Y-87031118D02*
G75*
G03*
X122548623Y-87031118I-190077J0D01*
G01*
D11*
X126109453Y-94608432D02*
X125271616Y-94062469D01*
X126595670Y-93851072D01*
X126109453Y-94608432D01*
G36*
X126109453Y-94608432D02*
G01*
X125271616Y-94062469D01*
X126595670Y-93851072D01*
X126109453Y-94608432D01*
G37*
X116000253Y-95218032D02*
X109857225Y-91274277D01*
X118971575Y-90589723D02*
X112828547Y-86645968D01*
D12*
X116769531Y-94223282D02*
G75*
G03*
X116769531Y-94223282I-190077J0D01*
G01*
D11*
X113666384Y-87191931D02*
X112342330Y-87403328D01*
X112828547Y-86645968D01*
X113666384Y-87191931D01*
G36*
X113666384Y-87191931D02*
G01*
X112342330Y-87403328D01*
X112828547Y-86645968D01*
X113666384Y-87191931D01*
G37*
D13*
X140191000Y-92964000D03*
%LPC*%
D14*
X119320117Y-87658406D03*
X121048886Y-84965572D03*
X116925483Y-82318394D03*
X115196714Y-85011228D03*
D15*
X127034683Y-82318394D03*
X125305914Y-85011228D03*
X129429317Y-87658406D03*
X131158086Y-84965572D03*
X115909483Y-98980794D03*
X114180714Y-101673628D03*
X118304117Y-104320806D03*
X120032886Y-101627972D03*
D14*
X128159317Y-104828806D03*
X129888086Y-102135972D03*
X125764683Y-99488794D03*
X124035914Y-102181628D03*
X131918517Y-99139206D03*
X133647286Y-96446372D03*
X129523883Y-93799194D03*
X127795114Y-96492028D03*
D15*
X119639766Y-93313588D03*
X117910997Y-96006422D03*
X122034400Y-98653600D03*
X123763169Y-95960766D03*
D16*
X106792300Y-85039200D03*
X109717300Y-85039200D03*
D15*
X123326283Y-87652394D03*
X121597514Y-90345228D03*
X125720917Y-92992406D03*
X127449686Y-90299572D03*
D14*
X115611717Y-93602006D03*
X117340486Y-90909172D03*
X113217083Y-88261994D03*
X111488314Y-90954828D03*
D17*
X140191000Y-90464000D03*
D13*
X140191000Y-92964000D03*
X140191000Y-95464000D03*
D18*
X106680000Y-95464000D03*
D13*
X106680000Y-92964000D03*
X106680000Y-90464000D03*
%LPD*%
M02*
