G04 #@! TF.GenerationSoftware,KiCad,Pcbnew,7.0.2-0*
G04 #@! TF.CreationDate,2023-12-21T10:07:40-08:00*
G04 #@! TF.ProjectId,MM Skirt,4d4d2053-6b69-4727-942e-6b696361645f,rev?*
G04 #@! TF.SameCoordinates,Original*
G04 #@! TF.FileFunction,Legend,Bot*
G04 #@! TF.FilePolarity,Positive*
%FSLAX46Y46*%
G04 Gerber Fmt 4.6, Leading zero omitted, Abs format (unit mm)*
G04 Created by KiCad (PCBNEW 7.0.2-0) date 2023-12-21 10:07:40*
%MOMM*%
%LPD*%
G01*
G04 APERTURE LIST*
G04 Aperture macros list*
%AMRoundRect*
0 Rectangle with rounded corners*
0 $1 Rounding radius*
0 $2 $3 $4 $5 $6 $7 $8 $9 X,Y pos of 4 corners*
0 Add a 4 corners polygon primitive as box body*
4,1,4,$2,$3,$4,$5,$6,$7,$8,$9,$2,$3,0*
0 Add four circle primitives for the rounded corners*
1,1,$1+$1,$2,$3*
1,1,$1+$1,$4,$5*
1,1,$1+$1,$6,$7*
1,1,$1+$1,$8,$9*
0 Add four rect primitives between the rounded corners*
20,1,$1+$1,$2,$3,$4,$5,0*
20,1,$1+$1,$4,$5,$6,$7,0*
20,1,$1+$1,$6,$7,$8,$9,0*
20,1,$1+$1,$8,$9,$2,$3,0*%
G04 Aperture macros list end*
%ADD10C,0.150000*%
%ADD11C,0.120000*%
%ADD12O,1.950000X1.700000*%
%ADD13RoundRect,0.250000X-0.725000X0.600000X-0.725000X-0.600000X0.725000X-0.600000X0.725000X0.600000X0*%
%ADD14RoundRect,0.250000X0.725000X-0.600000X0.725000X0.600000X-0.725000X0.600000X-0.725000X-0.600000X0*%
G04 APERTURE END LIST*
D10*
X113807904Y-91222428D02*
X113807904Y-89722428D01*
X113807904Y-89722428D02*
X113569809Y-89722428D01*
X113569809Y-89722428D02*
X113426952Y-89793857D01*
X113426952Y-89793857D02*
X113331714Y-89936714D01*
X113331714Y-89936714D02*
X113284095Y-90079571D01*
X113284095Y-90079571D02*
X113236476Y-90365285D01*
X113236476Y-90365285D02*
X113236476Y-90579571D01*
X113236476Y-90579571D02*
X113284095Y-90865285D01*
X113284095Y-90865285D02*
X113331714Y-91008142D01*
X113331714Y-91008142D02*
X113426952Y-91151000D01*
X113426952Y-91151000D02*
X113569809Y-91222428D01*
X113569809Y-91222428D02*
X113807904Y-91222428D01*
X112807904Y-91222428D02*
X112807904Y-89722428D01*
X112331714Y-91222428D02*
X112331714Y-89722428D01*
X112331714Y-89722428D02*
X111760286Y-91222428D01*
X111760286Y-91222428D02*
X111760286Y-89722428D01*
X113331714Y-92152428D02*
X113807904Y-92152428D01*
X113807904Y-92152428D02*
X113855523Y-92866714D01*
X113855523Y-92866714D02*
X113807904Y-92795285D01*
X113807904Y-92795285D02*
X113712666Y-92723857D01*
X113712666Y-92723857D02*
X113474571Y-92723857D01*
X113474571Y-92723857D02*
X113379333Y-92795285D01*
X113379333Y-92795285D02*
X113331714Y-92866714D01*
X113331714Y-92866714D02*
X113284095Y-93009571D01*
X113284095Y-93009571D02*
X113284095Y-93366714D01*
X113284095Y-93366714D02*
X113331714Y-93509571D01*
X113331714Y-93509571D02*
X113379333Y-93581000D01*
X113379333Y-93581000D02*
X113474571Y-93652428D01*
X113474571Y-93652428D02*
X113712666Y-93652428D01*
X113712666Y-93652428D02*
X113807904Y-93581000D01*
X113807904Y-93581000D02*
X113855523Y-93509571D01*
X112998380Y-92152428D02*
X112665047Y-93652428D01*
X112665047Y-93652428D02*
X112331714Y-92152428D01*
X111998380Y-93081000D02*
X111236476Y-93081000D01*
X113331714Y-94582428D02*
X113807904Y-94582428D01*
X113807904Y-94582428D02*
X113855523Y-95296714D01*
X113855523Y-95296714D02*
X113807904Y-95225285D01*
X113807904Y-95225285D02*
X113712666Y-95153857D01*
X113712666Y-95153857D02*
X113474571Y-95153857D01*
X113474571Y-95153857D02*
X113379333Y-95225285D01*
X113379333Y-95225285D02*
X113331714Y-95296714D01*
X113331714Y-95296714D02*
X113284095Y-95439571D01*
X113284095Y-95439571D02*
X113284095Y-95796714D01*
X113284095Y-95796714D02*
X113331714Y-95939571D01*
X113331714Y-95939571D02*
X113379333Y-96011000D01*
X113379333Y-96011000D02*
X113474571Y-96082428D01*
X113474571Y-96082428D02*
X113712666Y-96082428D01*
X113712666Y-96082428D02*
X113807904Y-96011000D01*
X113807904Y-96011000D02*
X113855523Y-95939571D01*
X112998380Y-94582428D02*
X112665047Y-96082428D01*
X112665047Y-96082428D02*
X112331714Y-94582428D01*
X111998380Y-95511000D02*
X111236476Y-95511000D01*
X111617428Y-96082428D02*
X111617428Y-94939571D01*
X135175714Y-89722428D02*
X135651904Y-89722428D01*
X135651904Y-89722428D02*
X135699523Y-90436714D01*
X135699523Y-90436714D02*
X135651904Y-90365285D01*
X135651904Y-90365285D02*
X135556666Y-90293857D01*
X135556666Y-90293857D02*
X135318571Y-90293857D01*
X135318571Y-90293857D02*
X135223333Y-90365285D01*
X135223333Y-90365285D02*
X135175714Y-90436714D01*
X135175714Y-90436714D02*
X135128095Y-90579571D01*
X135128095Y-90579571D02*
X135128095Y-90936714D01*
X135128095Y-90936714D02*
X135175714Y-91079571D01*
X135175714Y-91079571D02*
X135223333Y-91151000D01*
X135223333Y-91151000D02*
X135318571Y-91222428D01*
X135318571Y-91222428D02*
X135556666Y-91222428D01*
X135556666Y-91222428D02*
X135651904Y-91151000D01*
X135651904Y-91151000D02*
X135699523Y-91079571D01*
X134842380Y-89722428D02*
X134509047Y-91222428D01*
X134509047Y-91222428D02*
X134175714Y-89722428D01*
X133842380Y-90651000D02*
X133080476Y-90651000D01*
X133461428Y-91222428D02*
X133461428Y-90079571D01*
X135175714Y-92152428D02*
X135651904Y-92152428D01*
X135651904Y-92152428D02*
X135699523Y-92866714D01*
X135699523Y-92866714D02*
X135651904Y-92795285D01*
X135651904Y-92795285D02*
X135556666Y-92723857D01*
X135556666Y-92723857D02*
X135318571Y-92723857D01*
X135318571Y-92723857D02*
X135223333Y-92795285D01*
X135223333Y-92795285D02*
X135175714Y-92866714D01*
X135175714Y-92866714D02*
X135128095Y-93009571D01*
X135128095Y-93009571D02*
X135128095Y-93366714D01*
X135128095Y-93366714D02*
X135175714Y-93509571D01*
X135175714Y-93509571D02*
X135223333Y-93581000D01*
X135223333Y-93581000D02*
X135318571Y-93652428D01*
X135318571Y-93652428D02*
X135556666Y-93652428D01*
X135556666Y-93652428D02*
X135651904Y-93581000D01*
X135651904Y-93581000D02*
X135699523Y-93509571D01*
X134842380Y-92152428D02*
X134509047Y-93652428D01*
X134509047Y-93652428D02*
X134175714Y-92152428D01*
X133842380Y-93081000D02*
X133080476Y-93081000D01*
X135651904Y-96082428D02*
X135651904Y-94582428D01*
X135651904Y-94582428D02*
X135413809Y-94582428D01*
X135413809Y-94582428D02*
X135270952Y-94653857D01*
X135270952Y-94653857D02*
X135175714Y-94796714D01*
X135175714Y-94796714D02*
X135128095Y-94939571D01*
X135128095Y-94939571D02*
X135080476Y-95225285D01*
X135080476Y-95225285D02*
X135080476Y-95439571D01*
X135080476Y-95439571D02*
X135128095Y-95725285D01*
X135128095Y-95725285D02*
X135175714Y-95868142D01*
X135175714Y-95868142D02*
X135270952Y-96011000D01*
X135270952Y-96011000D02*
X135413809Y-96082428D01*
X135413809Y-96082428D02*
X135651904Y-96082428D01*
X134461428Y-94582428D02*
X134270952Y-94582428D01*
X134270952Y-94582428D02*
X134175714Y-94653857D01*
X134175714Y-94653857D02*
X134080476Y-94796714D01*
X134080476Y-94796714D02*
X134032857Y-95082428D01*
X134032857Y-95082428D02*
X134032857Y-95582428D01*
X134032857Y-95582428D02*
X134080476Y-95868142D01*
X134080476Y-95868142D02*
X134175714Y-96011000D01*
X134175714Y-96011000D02*
X134270952Y-96082428D01*
X134270952Y-96082428D02*
X134461428Y-96082428D01*
X134461428Y-96082428D02*
X134556666Y-96011000D01*
X134556666Y-96011000D02*
X134651904Y-95868142D01*
X134651904Y-95868142D02*
X134699523Y-95582428D01*
X134699523Y-95582428D02*
X134699523Y-95082428D01*
X134699523Y-95082428D02*
X134651904Y-94796714D01*
X134651904Y-94796714D02*
X134556666Y-94653857D01*
X134556666Y-94653857D02*
X134461428Y-94582428D01*
X133604285Y-94582428D02*
X133604285Y-95796714D01*
X133604285Y-95796714D02*
X133556666Y-95939571D01*
X133556666Y-95939571D02*
X133509047Y-96011000D01*
X133509047Y-96011000D02*
X133413809Y-96082428D01*
X133413809Y-96082428D02*
X133223333Y-96082428D01*
X133223333Y-96082428D02*
X133128095Y-96011000D01*
X133128095Y-96011000D02*
X133080476Y-95939571D01*
X133080476Y-95939571D02*
X133032857Y-95796714D01*
X133032857Y-95796714D02*
X133032857Y-94582428D01*
X132699523Y-94582428D02*
X132128095Y-94582428D01*
X132413809Y-96082428D02*
X132413809Y-94582428D01*
X136103619Y-91654476D02*
X136103619Y-91844952D01*
X136103619Y-91844952D02*
X136151238Y-91940190D01*
X136151238Y-91940190D02*
X136246476Y-92035428D01*
X136246476Y-92035428D02*
X136436952Y-92083047D01*
X136436952Y-92083047D02*
X136770285Y-92083047D01*
X136770285Y-92083047D02*
X136960761Y-92035428D01*
X136960761Y-92035428D02*
X137056000Y-91940190D01*
X137056000Y-91940190D02*
X137103619Y-91844952D01*
X137103619Y-91844952D02*
X137103619Y-91654476D01*
X137103619Y-91654476D02*
X137056000Y-91559238D01*
X137056000Y-91559238D02*
X136960761Y-91464000D01*
X136960761Y-91464000D02*
X136770285Y-91416381D01*
X136770285Y-91416381D02*
X136436952Y-91416381D01*
X136436952Y-91416381D02*
X136246476Y-91464000D01*
X136246476Y-91464000D02*
X136151238Y-91559238D01*
X136151238Y-91559238D02*
X136103619Y-91654476D01*
X136436952Y-92940190D02*
X137103619Y-92940190D01*
X136436952Y-92511619D02*
X136960761Y-92511619D01*
X136960761Y-92511619D02*
X137056000Y-92559238D01*
X137056000Y-92559238D02*
X137103619Y-92654476D01*
X137103619Y-92654476D02*
X137103619Y-92797333D01*
X137103619Y-92797333D02*
X137056000Y-92892571D01*
X137056000Y-92892571D02*
X137008380Y-92940190D01*
X136436952Y-93273524D02*
X136436952Y-93654476D01*
X136103619Y-93416381D02*
X136960761Y-93416381D01*
X136960761Y-93416381D02*
X137056000Y-93464000D01*
X137056000Y-93464000D02*
X137103619Y-93559238D01*
X137103619Y-93559238D02*
X137103619Y-93654476D01*
X137103619Y-94511619D02*
X137103619Y-93940191D01*
X137103619Y-94225905D02*
X136103619Y-94225905D01*
X136103619Y-94225905D02*
X136246476Y-94130667D01*
X136246476Y-94130667D02*
X136341714Y-94035429D01*
X136341714Y-94035429D02*
X136389333Y-93940191D01*
X110692619Y-92035429D02*
X109692619Y-92035429D01*
X110025952Y-92511619D02*
X110692619Y-92511619D01*
X110121190Y-92511619D02*
X110073571Y-92559238D01*
X110073571Y-92559238D02*
X110025952Y-92654476D01*
X110025952Y-92654476D02*
X110025952Y-92797333D01*
X110025952Y-92797333D02*
X110073571Y-92892571D01*
X110073571Y-92892571D02*
X110168809Y-92940190D01*
X110168809Y-92940190D02*
X110692619Y-92940190D01*
X110692619Y-93940190D02*
X110692619Y-93368762D01*
X110692619Y-93654476D02*
X109692619Y-93654476D01*
X109692619Y-93654476D02*
X109835476Y-93559238D01*
X109835476Y-93559238D02*
X109930714Y-93464000D01*
X109930714Y-93464000D02*
X109978333Y-93368762D01*
D11*
X137441000Y-87614000D02*
X138691000Y-87614000D01*
X143701000Y-87904000D02*
X143701000Y-98024000D01*
X137731000Y-87904000D02*
X143701000Y-87904000D01*
X139991000Y-87914000D02*
X139991000Y-88664000D01*
X138491000Y-87914000D02*
X138491000Y-89714000D01*
X137741000Y-87914000D02*
X138491000Y-87914000D01*
X142941000Y-88664000D02*
X142941000Y-92964000D01*
X139991000Y-88664000D02*
X142941000Y-88664000D01*
X137441000Y-88864000D02*
X137441000Y-87614000D01*
X138491000Y-89714000D02*
X137741000Y-89714000D01*
X137741000Y-89714000D02*
X137741000Y-87914000D01*
X138491000Y-91214000D02*
X138491000Y-94714000D01*
X137741000Y-91214000D02*
X138491000Y-91214000D01*
X138491000Y-94714000D02*
X137741000Y-94714000D01*
X137741000Y-94714000D02*
X137741000Y-91214000D01*
X138491000Y-96214000D02*
X138491000Y-98014000D01*
X137741000Y-96214000D02*
X138491000Y-96214000D01*
X142941000Y-97264000D02*
X142941000Y-92964000D01*
X139991000Y-97264000D02*
X142941000Y-97264000D01*
X139991000Y-98014000D02*
X139991000Y-97264000D01*
X138491000Y-98014000D02*
X137741000Y-98014000D01*
X137741000Y-98014000D02*
X137741000Y-96214000D01*
X143701000Y-98024000D02*
X137731000Y-98024000D01*
X137731000Y-98024000D02*
X137731000Y-87904000D01*
X109430000Y-98314000D02*
X108180000Y-98314000D01*
X103170000Y-98024000D02*
X103170000Y-87904000D01*
X109140000Y-98024000D02*
X103170000Y-98024000D01*
X106880000Y-98014000D02*
X106880000Y-97264000D01*
X108380000Y-98014000D02*
X108380000Y-96214000D01*
X109130000Y-98014000D02*
X108380000Y-98014000D01*
X103930000Y-97264000D02*
X103930000Y-92964000D01*
X106880000Y-97264000D02*
X103930000Y-97264000D01*
X109430000Y-97064000D02*
X109430000Y-98314000D01*
X108380000Y-96214000D02*
X109130000Y-96214000D01*
X109130000Y-96214000D02*
X109130000Y-98014000D01*
X108380000Y-94714000D02*
X108380000Y-91214000D01*
X109130000Y-94714000D02*
X108380000Y-94714000D01*
X108380000Y-91214000D02*
X109130000Y-91214000D01*
X109130000Y-91214000D02*
X109130000Y-94714000D01*
X108380000Y-89714000D02*
X108380000Y-87914000D01*
X109130000Y-89714000D02*
X108380000Y-89714000D01*
X103930000Y-88664000D02*
X103930000Y-92964000D01*
X106880000Y-88664000D02*
X103930000Y-88664000D01*
X106880000Y-87914000D02*
X106880000Y-88664000D01*
X108380000Y-87914000D02*
X109130000Y-87914000D01*
X109130000Y-87914000D02*
X109130000Y-89714000D01*
X103170000Y-87904000D02*
X109140000Y-87904000D01*
X109140000Y-87904000D02*
X109140000Y-98024000D01*
D12*
X140191000Y-92964000D03*
%LPC*%
D13*
X140191000Y-90464000D03*
D12*
X140191000Y-92964000D03*
X140191000Y-95464000D03*
D14*
X106680000Y-95464000D03*
D12*
X106680000Y-92964000D03*
X106680000Y-90464000D03*
%LPD*%
M02*
